<?xml version="1.0" encoding="UTF-8"?>
<svg id="_Слой_1" data-name="Слой 1" xmlns="http://www.w3.org/2000/svg" version="1.1" viewBox="0 0 2607.9 1693.2">
  <defs>
    <style>
      .cls-1 {
        fill: #9738f2;
      }

      .cls-1, .cls-2, .cls-3, .cls-4, .cls-5, .cls-6, .cls-7, .cls-8 {
        stroke-width: 0px;
      }

      .cls-2 {
        fill: #f94212;
      }

      .cls-3 {
        fill: #5ca098;
      }

      .cls-4 {
        fill: #000;
      }

      .cls-5 {
        fill: #5276f7;
      }

      .cls-6 {
        fill: #ff0dcc;
      }

      .cls-7 {
        fill: #47dd84;
      }

      <!--Класс котроый отвечает за закраску области -->
      .cls-8 {
        fill: #fff;
      }
    </style>
  </defs>
  <g id="_7" data-name="7">
    <g>
      <path data-url="1" class="cls-8" d="M2385,345.2c4.7,3.1,9.5,6.1,14.2,9.2,2.1,1.4,4.2,2.7,6.5,3.6,4.6,1.8,10,1.7,13.6,5,5.5,4.9,3.6,14.1,7.3,20.5,1.3,2.3,3.3,4.2,4.5,6.7,1.3,2.8,1.2,6.1.3,9-.8,2.5-2.2,4.8-3.6,7.1-2.1,3.4-4.2,6.8-7,9.6-3.3,3.3-7.5,5.7-11.6,8-3.2,1.8-6.4,3.6-10,4.2-1.5.2-3.3.2-4.4-.9-.8-.8-1.2-1.9-1.5-3-1.2-4.1-2.4-8.2-3.6-12.3-.5-1.7-1-3.4-1.6-5-.6-1.7-1.4-3.3-2.1-5-1.2-3.3-1.7-6.7-2.8-10-1.4-4.1-3.7-7.8-6.1-11.3-4.4-6.5-9.2-12.7-14.4-18.6-1.2-1.4-2.5-2.8-3.2-4.5-.9-2-1-4.3-1.1-6.5,0-2.5,0-5.1,1.1-7.3,1.9-3.8,6.8-5.5,11-5s8.1,2.6,11.9,4.8l2.7,1.7h0Z"/>
      <path  class="cls-3" d="M2384.3,346.5c3.9,2.5,7.8,5.1,11.7,7.6,3.5,2.3,6.9,4.7,11,5.9,3.3,1,7,1.3,10,3.1,2.9,1.7,4.1,4.7,4.8,7.8s1,6.4,1.9,9.5c.5,1.6,1.1,3.1,2,4.5,1.1,1.7,2.4,3.1,3.4,4.8,2.2,3.7,1.5,8-.4,11.7s-4.1,7.3-6.6,10.5-5.9,6-9.5,8.2-7.1,4.4-10.9,5.7c-1.6.5-3.8,1.3-5.4.6s-1.9-3.6-2.4-5c-1.3-4.5-2.5-9-3.9-13.4-.7-2-1.6-4-2.4-5.9s-1.3-4-1.8-6.1c-1-4.2-2.5-8-4.7-11.7-4.4-7.4-9.8-14.4-15.4-20.9-1.4-1.6-3-3.2-4.2-5s-1.6-3.7-1.8-5.8c-.2-3.6-.4-7.8,2.6-10.3,5.8-4.8,14.2-.5,19.5,2.8.7.5,1.5.9,2.2,1.4,1.6,1,3.1-1.6,1.5-2.6-5.7-3.6-12.2-7.6-19.2-6.5-3.6.6-7.1,2.6-8.6,6-.9,1.9-1.1,4-1.1,6s0,4.4.5,6.5c1,4.5,4.8,7.8,7.7,11.2,3.1,3.7,6,7.5,8.8,11.5,2.6,3.7,5.3,7.5,7.1,11.7s2.4,8.9,4.1,13.2c.9,2.1,1.8,4.2,2.5,6.4.8,2.4,1.4,4.8,2.1,7.2s1.4,4.7,2.1,7.1c.6,1.9,1.2,3.9,3.1,4.9,3.6,1.9,8.5-.3,11.8-2,4-2,8-4.2,11.5-6.9s6.5-6,8.9-9.8,5.1-7.6,6.2-11.9.1-8.5-2.5-12c-1.2-1.6-2.5-3.2-3.4-5.1-.7-1.6-1.1-3.4-1.4-5.1-.6-3.4-1-6.8-2.4-10-1.5-3.5-4.3-5.8-7.8-7-3.7-1.4-7.8-1.6-11.3-3.5-4.3-2.2-8.2-5.1-12.3-7.8-2.1-1.4-4.2-2.7-6.3-4.1-1.6-1-3.1,1.5-1.5,2.6h0Z"/>
    </g>
    <g>
      <path data-url="1" class="cls-8" d="M2419.5,227.8c1.2-.5,2.5-1,3.8-1.4.4-.1.8-.3,1.1-.4,1.2-.4,2.4-.9,3.4-1.6,1.9-1.3,3.1-3.3,4.6-4.9.8-.8,1.8-1.6,2.3-2.6.4-.8.6-1.7.7-2.5.2-1.3.5-2.7.7-4,0-.4.1-.8,0-1.2-.1-.3-.3-.6-.5-.9-.6-1.1-.5-2.5-.9-3.8-.3-.8-.8-1.5-1.4-2.2-.7-.9-1.4-1.8-2.1-2.6-.4-.6-.9-1.1-1.4-1.5-.7-.5-1.5-.7-2.4-.8-1.6-.3-3.3-.5-4.9-.6-1.2-.1-2.4-.2-3.5,0-1,.2-2,.6-2.8,1.3-.8.6-1.4,1.4-2,2.3-.9,1.1-1.7,2.2-2.6,3.3-.6.8-1.1,1.5-1.6,2.3-.6,1.2-.8,2.6-1.5,3.8-.3.6-.8,1.2-1.1,1.9-.8,1.8-.4,3.9-.4,5.8s-.2,2.7.1,4c.4,1.6,1.6,2.8,2.9,3.8s2.8,1.6,4.2,2.4c.9.5,1.9,1.1,2.9,1.1s2-.6,2.8-1.2"/>
      <path class="cls-3" d="M2419.9,229.2c3.2-1.2,6.9-2.1,9.6-4.4,1.2-1,2.2-2.4,3.2-3.6s2.5-2.3,3.4-3.8,1-3.4,1.3-5.1c.1-.9.4-1.7.4-2.6,0-1-.3-1.6-.7-2.4-.7-1.4-.5-3.1-1.3-4.5-.9-1.7-2.4-3.2-3.6-4.7-2.4-2.9-6.5-2.8-10-3.1-3.6-.3-6.4.8-8.7,3.7-1.1,1.4-2.2,2.9-3.3,4.3s-1.7,3-2.3,4.7c-.6,1.6-1.7,2.9-2.1,4.6-.4,1.8,0,3.7-.1,5.5,0,2-.1,3.9.9,5.7.9,1.6,2.4,2.7,4,3.6s3.4,2.1,5.2,2.7,3.6,0,5.1-1.1,0-3.7-1.5-2.6c-1.2.9-2.1,1.2-3.5.5-1.3-.7-2.6-1.3-3.8-2.1-1.1-.6-2.2-1.4-2.9-2.6-.8-1.3-.6-2.7-.5-4.1s-.2-2.9,0-4.3c.2-1.5,1.1-2.6,1.7-3.9.5-1.2.8-2.6,1.5-3.8.8-1.2,1.7-2.4,2.6-3.5s1.7-2.6,2.9-3.4,2.5-1,3.9-.9,2.9.2,4.3.4c1.5.2,3.1.4,4.2,1.6,1,1.1,1.9,2.3,2.8,3.5,1,1.3,1,2.5,1.4,4,.1.6.5,1.1.7,1.7s0,1.1,0,1.8c-.3,1.5-.4,3.2-.9,4.6s-1.9,2.3-2.8,3.3-1.8,2.3-2.9,3.3c-1.1,1.1-2.5,1.7-3.9,2.3-1.6.6-3.3,1.3-4.9,1.9-1.8.7-1,3.6.8,2.9h0Z"/>
    </g>
    <g>
      <path data-url="1" class="cls-8" d="M2337.8,230.7c.2,2.4-1.8,4.7-1.3,7.1.1.6.4,1.3.3,1.9,0,.4-.3.7-.5,1-.6,1.2-.4,2.7,0,4s1.2,2.5,1.5,3.9c.2.7.3,1.5.6,2.2.4.7,1.1,1.2,1.9,1.5.9.4,1.9.8,2.8,1.1,1.6.6,3.3,1.1,5,1.3s3.5,0,5-.8c.9-.5,1.6-1.2,2.5-1.7.9-.5,2-.8,3-1.2,3.1-1.1,6.3-2.9,7.5-6,.5-1.2.6-2.5.7-3.7.2-2.9,0-5.7-.7-8.5-.4-1.8-1-3.7-2.4-5-2.1-1.9-5.4-1.8-8.2-2.4-.3,0-.7-.2-.9-.4-.2-.1-.3-.3-.5-.5-.8-.7-2-.6-3-.3s-2,.7-3,.7c-.7,0-1.4-.3-2.1-.4-1.8-.2-3.6.6-5,1.9s-2.3,2.8-3.2,4.4"/>
      <path class="cls-3" d="M2336.3,230.7c0,1.8-.9,3.3-1.2,5.1-.1.8-.2,1.5,0,2.3,0,.4.4.9.3,1.3s-.4.8-.6,1.2c-.7,1.8-.3,3.7.4,5.4.3.8.7,1.5,1,2.3.3.9.4,1.8.7,2.6.7,1.7,2.1,2.5,3.7,3.2,1.8.7,3.7,1.4,5.6,1.8,1.9.4,3.9.6,5.9,0s3.1-1.8,4.8-2.7c1.6-.8,3.3-1.1,4.9-1.9,1.4-.7,2.8-1.6,3.9-2.8,2.6-2.8,2.9-6.5,2.8-10.2s-.5-7.8-2.7-10.7-5.7-3.1-9-3.6c-.4,0-.9-.1-1.3-.3-.4-.2-.6-.6-1-.8-.8-.4-1.7-.5-2.6-.4-1,.1-2,.6-3,.8s-2.1-.3-3.2-.3c-4.4-.2-7.1,3.7-9.1,7.1-1,1.7,1.6,3.2,2.6,1.5,1.5-2.5,3.5-6,6.9-5.5,1.5.2,2.7.4,4.2,0,.7-.2,1.4-.6,2.1-.5.8,0,1.1.6,1.8,1,2.4,1.2,5.6.4,7.9,1.9s2.9,5.4,3.1,8.1c.3,3,.6,6.8-1.2,9.3-1.7,2.3-4.5,3.3-7.1,4.2-1.4.5-2.6,1.2-3.8,2.1-1.5,1-3.2,1.3-5.1,1.1-1.6-.2-3.1-.7-4.5-1.2-1.3-.4-3.4-.9-3.9-2.2-.3-.7-.3-1.6-.6-2.3-.3-.8-.6-1.5-.9-2.3-.4-.8-.7-1.7-.7-2.6s.6-1.5.9-2.4c.2-.8,0-1.6-.2-2.3s-.1-1.4.1-2.2c.5-1.6,1.1-3.2,1.1-4.9,0-1.9-3-1.9-3,0h0Z"/>
    </g>
    <g>
      <path data-url="1" class="cls-8" d="M1870.5,211.4c6.3-7.6,21-7.9,29.8-9.2,5.1-.4,8.3-3.9,9.8-8.8,1.2-3.4,1.9-7.1,3.6-10.3,5.7-11.6,21.2-17.6,33.1-12.5,6.9,2.9,12,8.8,18.1,12.9,6.1,4.5,14,5.1,20.6,1.3,4.2-2.2,8-5.4,11.8-8.4,10.9-8.4,24-15.6,37.4-12.8,5.8,1.1,11.5,4.1,17.4,4.3,5.9.2,11.5-3.3,17.6-3.9,23.2-3.2,18.6,22.1,53.8,21.5,16.3.4,31.5-6.5,47.2-9.5,13.6-1.7,52.9-2.2,64.9,10.1,3.5,4.5,3.6,12,7.3,17,1,1.5,2.3,3.1,3.9,3.8,1.5.7,3,.3,4.5-.3l3-1c5.6-4.2,7-11.4,11.1-17.2,4.1-5.7,11.2-6.3,17-2.4,4.5,2.7,8.3,6.8,12.4,10.1,11.3,9.1,27,6.9,40.8,6.2,9.8-.5,20.3-.1,29.1-5.1,3.8-2.2,6.6-5.6,9.6-8.7,2.5-2.9,6.1-4.3,9.3-6.3,3-1.9,4.8-5.4,7.8-7.5,7.8-6.1,17.3,1.3,25.9.6,8.9-.9,5-8.5,21-9.4l15.7-19.4c10.1.6,14.7,12,22.7,17.9,4.1,3.1,9.1,5.4,11.5,10.1,7.3,14.7,6.8,32.2,9.5,48.1,1.3,8.5,10.6,11.9,16.8,16.7,5.6,3.5,7.7,6.9,5.6,13.2-3.7,12.5-7.7,20.9-19.7,26.6-10.2,6.1-20.6,31.8-5.6,38.2,12.4,3.2,29.4-17.1,29.8,9.7.4,24.3,9.9,56.7,39,43.8,10.2-4.2,18.9-12,28.9-16.4,6.1-3,11,.6,12.7,6.9,7.6,35.1-25.9,38.1-48.3,47.9-10.4,5-7.5,9-12.7,16.5-9.2,11.6-31.2,7.5-39.9,20.6-5.9,8.4-7.2,13.4-12.1,22.3l-5,8c-16.8,16.9-29.5,34.9-11.3,42.5,7.9,3.3,16.4-.5,21.4-6.5,3.2-3.5,5.5-8,9.5-10.4,9-5.1,23.1.6,27.6-11.6,2-4.9,2.4-11.4,7.6-14.1,3-1.6,6.6-1.6,9.8-3,2.6-1,4.9-2.6,7.4-3.8,7.4-3.8,16.1.7,19.6,7.9,3.7,7.7,4.9,20.2,1.4,28-2.9,6.2-9.7,8.9-15.9,11.2-9.2,3.4-18.8,6-28.5,6-3.7-.1-1.6,1.3-3.7,4.9l-4,8c.4,18.7,5,34.7,11.4,52.2,3.2,8-2.1,12.6-7.5,17.7-6.6,6-14.3,11.4-23.1,13.3-16.6,3-36.9-2.8-50,9.7-11.5,10.5-11.2,30-25.6,37.4-8.7,4.6-10.7,10.4-15.5,18.7-2.7,4.2-6.1,8.1-10.2,10.9-4.6,3.1-9.9,4.8-16.2,5.5-4,.4-8.1,1-11.4,3.5-3.1,2.2-6.2,4.9-9.7,6.1-13.9,4.3-30.1-1.3-44.8-2.8-6.6-.7-13.2-2-19.9-2-20.2-.2-38.5,9.8-36.9,32.6l-1.4,2.8c-6.3,1.7-15,4.2-20.7,7.5-10,5.7-8.8,11.8-18.1,23.5-1.5,1.9-3.2,3.8-4.9,5.3-16.3,12.4-40.3,1-52.9,22.9-1.8,2.6-3.8,6.2-6.8,7-1.6.4-3.3-.2-5.1-1.2-23.4-20.4-54.9-1.8-82.5-2.8-46.6-3.7-21.4-43.8-50.9-46.2-36.8-4.2-59.2,1.5-95.3-5.5-2.9-.7-20.9-5.9-23.1-7.9-10.9-10.1-2.1-33.3-18.9-43.1l-1-2c-3.5-10.6-4.9-21.8-9.6-31.8-1.3-2.9-3.2-5.4-5.6-7.5-15-13.4-34.5-21.4-54.2-24.8-4-.7-8.1-1.4-12-2.5-11.2-2.8-17.2-9.8-21.6-20.2-3.4-7.5-6.9-16-14.9-19.3-12.5-5.1-26.6-5.2-39.5-9.3-2.9-.9-5.9-2-8.9-2.5-6.3-1.4-12.7.3-17.9,3.9-10.7,6.8-21.4,13.3-32.1,20l-4.1,3.1c-4.1,2.2-8.8,1.9-13.2,1.2-7.1-1.1-14.3-1.8-21.4-3.1-3.3-.6-6.9-1.7-8.6-4.7-5.3-8.8-8.4-28-6.7-38.7.5-3.3,3.8-4.6,6.8-4.6,9.1-.4,18.7,3.6,27.6.7,4-1.3,8.9-3.8,12.9-4.7,8.3-3.1,21,5.8,28-.7,10-10.4-3.7-34.1-4.4-48.5-.2-5.9,6-8.6,10.8-10.9,5.3-2.6,12.5-4.5,13.6-11.2,1.3-6.4-.8-14.1,2.2-19.6,2.1-4,6.3-5.9,10.9-5.5,6.9.3,16.4,5.4,21.9,1.6,3.9-2.8,4.9-8.5,6.4-12.8,3.8-11.7,8.4-23.8,9.4-36,1-10.5-1.1-23.4,8.7-30.4,2.4-1.7,5.3-2.9,8.1-4.2,6.8-3.1,13.1-7.1,16.8-13.6,4.7-8.5,4.1-19.9,1.9-29.4-2.9-11.4-6.9-21.2,4.2-30.2,6.3-5.4,16.9-10.1,16.5-19.6-.6-4-3.2-7.6-2.6-11.8.5-5.2,2.9-10.7,8-12.7,3.6-1.5,7.7-1.6,11.5-2.6,12-3.3,15.5-17.1,21.8-26.5l12.5-17.8h0Z"/>
      <path class="cls-3" d="M1871.6,212.4c4.9-5.4,12.7-6.7,19.6-7.6,5.2-.7,11.8-.3,16-3.9,5.3-4.5,5.1-12.5,8.4-18.2,3.8-6.8,11.2-11.2,18.8-12.2,9.3-1.2,16.2,3.5,23.1,9.2,5.2,4.3,10.5,8.6,17.4,9.1,7.5.5,13.7-3.8,19.4-8.2,7.3-5.6,14.6-11.2,23.3-14.1,9.2-3.1,17-1.4,26,1.3,3.5,1.1,7,1.9,10.7,1.5,4-.4,7.7-2,11.5-3,5.2-1.4,11-1.6,15.9,1,3.3,1.8,5.9,4.5,8.6,7.1,7,6.7,14.6,11.1,24.3,12.3,17.5,2.2,33.5-3.8,50.2-7.8,11.1-2.7,23-2.6,34.4-1.9,10.6.7,26.1,1.6,34.2,9.4,5.1,4.9,4.4,13.5,9,18.9,3.3,3.9,7.9,4.1,12.3,1.7,5.6-3.1,7.5-10.8,10.6-15.9,7.1-11.5,17.4-3.4,24.7,2.9,5.6,4.9,11.2,8.3,18.6,9.6s14.5.9,21.7.4c7.9-.5,16-.3,23.8-1.7s13.5-4.9,18.9-10.5c3.3-3.4,6.6-5.5,10.5-8,3.4-2.1,5.4-5.6,8.7-7.9,7.3-5.2,15.7.9,23.6.9,3.8,0,6.5-1.4,9.2-4,1.5-1.5,2.9-2.9,4.9-3.8,2.8-1.3,6.9-.5,9.3-2.1,2.1-1.3,4-4.9,5.6-6.8,2.8-3.5,5.7-7,8.5-10.5,1-1.2,1.2-1.7,2.3-1.8,2.9-.2,7.3,4.2,9.1,6.1,4.5,4.6,8.2,9.5,13.6,13.2,3.3,2.3,6.6,4.4,8.7,8,2.4,4.2,3.7,9.3,4.7,14,2,9.1,2.5,18.3,3.7,27.5.9,6.4,1.8,11.5,6.9,15.9,4.7,4,11.4,6.3,15.3,11,4.5,5.3-1.3,16.7-4.3,21.9-1.6,2.8-3.6,5.3-6.1,7.5-2.7,2.3-6,3.6-8.9,5.6-7.4,5.3-12.2,16.1-12.5,25-.3,8.5,4.9,16.4,14.1,15.3,6.8-.8,19.6-9.8,22.4.5,1.6,5.9.8,12.6,1.6,18.7.7,5.6,1.9,11.2,3.8,16.5,3.1,8.5,8.6,17.2,17.8,19.8,13,3.6,25.9-5.7,36.2-12.3,6.8-4.3,18.6-12.8,22.1-.5,1.7,6.1,1.6,13.6-.9,19.5-4.3,10.1-15.1,15-24.8,18.6-5.1,1.9-10.3,3.6-15.4,5.5s-10.4,3.7-13.7,7.9c-3.2,4-3.5,9.5-7.3,13.1-4.8,4.6-11.8,6-18,7.7-5.6,1.5-11.5,3.1-16.2,6.8s-7.9,9.8-10.6,15.2-4.9,10.3-8,15.2c-3.5,5.6-8.2,9.9-12.4,14.9-6,7.2-16,20.2-8.4,29.5,9.3,11.3,24.4,5.4,32-4.1,2.4-3,4.4-6.4,7.8-8.2,3-1.6,6.5-1.9,9.8-2.2,4.7-.5,9.8-.8,13.7-3.8,4.9-3.9,4.8-10.3,7.5-15.4,2.6-5,7.6-4.9,12.3-6.5,4-1.4,7.6-4.5,11.8-5.2,18.9-3.1,23.1,31.8,10.8,40.6-6.9,4.9-16.7,7.5-24.9,9.2-4.7,1-9.6.6-14.3,1.5-1.6.3-2,.8-2.8,2.1-.8,1.5-1.1,3.4-1.9,5-.9,2-2.3,3.9-3,6-.8,2.3-.3,5-.1,7.4.3,4.2.8,8.3,1.5,12.4,1.5,8.7,3.9,17.2,6.7,25.5,1.3,3.8,3.8,8.3,3.9,12.4.1,4.7-3.8,8.2-6.9,11.2-6.4,6.1-14,11.7-22.7,13.7-7.3,1.7-15,1.1-22.4,1.3-13.2.3-25.8,3-33.7,14.6-3.6,5.2-5.7,11.2-8.3,16.9-3.2,6.9-7.1,11.5-13.6,15.5-5.3,3.2-8.7,7.7-11.6,13-4.4,7.9-9.2,14.9-17.9,18.5-7.3,3-15.7,1.8-22.4,6.2-3.9,2.6-7,5.5-11.8,6.6s-9.9,1-14.9.6c-24.1-2.2-62.6-16.9-80.3,7.9-3.3,4.7-4.9,10.2-5.2,15.9,0,1.3.3,2.8,0,4.1-.5,1.8-1,1.5-2.3,2-3.8,1.5-7.8,2.2-11.6,3.7-5.6,2.2-11.1,4.9-14.9,9.8-4.2,5.5-6.6,12-10.9,17.4-9.3,11.7-22.8,10.7-36.1,13.5-5.4,1.1-10.6,3-14.9,6.5-2.1,1.7-4,3.8-5.5,6-1,1.5-1.9,3.1-3,4.6-.6.8-1.3,2.2-2.2,2.8-2.7,1.8-4.7,1.3-7.1-.3-5.9-3.9-11.2-7-18.3-8.3s-14.2-.8-21.2.2c-14.8,2-30,7.4-45,5.7-10.6-1.2-20.7-5.1-25.6-15.2-3.2-6.5-3.8-13.9-7-20.5s-8.7-9.5-15.7-10.3c-16.8-2-33.8-1.7-50.7-1.7-15.7,0-32.2-.3-47.4-4.5-4.9-1.4-9.9-2.9-14.7-4.6-5.5-2-8.1-4.9-9.7-10.6-2.9-10.4-1.6-22.4-9.4-30.8-1.6-1.7-4.1-2.8-5.2-4.8-2.1-3.6-2.7-9-3.7-13-2-7.9-3.8-16.8-8.7-23.5-4.2-5.7-10.8-10.1-16.8-13.7-6.8-4.2-14.2-7.6-21.8-10.2-8.2-2.8-16.5-4.3-24.9-6-7.6-1.4-15-3.4-20.4-9.3-9-9.7-9.6-26-22.9-31.8-8.1-3.5-17.1-4.5-25.7-6.1s-16.9-5.3-25.5-6.2-14.5,3.4-21.1,7.5c-8,5-16,10-24.1,15-2.2,1.4-4.2,3-6.3,4.4-4.3,2.8-9,2.3-13.9,1.6-4.5-.6-8.9-1.2-13.4-1.8-3.9-.6-9.3-.6-12.8-3-5.3-3.7-6.7-13.8-7.8-19.7-.9-5-4.1-20.1,1.8-23,3.9-1.9,10.4,0,14.5.5s8.3,1.1,12.5.5c7.2-1,13.4-6.1,20.7-6.2,9.9,0,23.9,7.6,27.9-6.4,3.3-11.5-3.3-24.7-5.9-35.6-.7-3-2.1-7.1-1.1-10.2,1.3-4,6.3-5.9,9.8-7.5,4.8-2.2,10.9-4.1,13.4-9.3,3.4-7.1-1.2-16.4,3.6-22.9,5.3-7.4,15.4-2.1,22.5-1.1,5.7.8,10.2-.6,13-5.9,3.6-6.8,5.4-15.2,7.7-22.5,2.6-8.2,4.7-16.5,5.2-25,.5-7.2-.4-15.2,3.1-21.8,4-7.5,13.3-9.1,19.9-13.4,5.4-3.5,9.7-8.1,11.9-14.2,2.6-7,2.4-14.8,1.2-22s-4.5-14.1-3.9-21.4c1.1-14.6,21.1-16,23.6-29.7.6-3-.3-5.5-1.3-8.4-1.6-4.8-1.4-9.8,1.6-14,4.6-6.6,14.8-4.5,21.2-8.7,8.9-5.8,11.9-17,17.7-25.3,3.9-5.7,8-11.4,12-17.1,1.1-1.6-1.5-3.1-2.6-1.5-4.1,5.8-8.3,11.6-12.3,17.5-3.2,4.7-5.4,9.9-8.3,14.7-4.6,7.7-9.9,10.9-18.6,12.5-6.3,1.2-11.2,3.7-13.5,10.1-1,2.8-1.5,5.9-1.1,8.8.8,4.8,3.8,8.6,1.4,13.6-2.9,5.9-9.7,9.1-14.6,13.1s-7.9,8.8-8.2,15c-.2,6.6,2.4,12.9,3.7,19.3,1.8,8.9,2.1,19.3-3,27.2s-13.4,10.2-21,14.4c-5.5,3-8.9,7.7-10.4,13.8s-1,13-1.6,19.5c-.9,10.1-4.1,19.8-7.3,29.4-2.5,7.4-3.9,20.2-14.1,19.2-6.7-.7-13.7-4.6-20.5-2.3-5.6,1.9-8,7.1-8.4,12.7-.3,4.2.4,8.7-.5,12.8-1,4.5-4.5,6.5-8.4,8.3-5.1,2.4-12.4,4.4-15.1,9.8-2.2,4.4-.2,10.6.9,15.1,2.2,8.4,13.8,36.1-1.3,38.6-6.5,1.1-12.9-2.6-19.5-2.2-8.1.5-14.8,6.2-23,6.4-7.7.2-16.5-3.6-24-1.3-5.3,1.6-5.5,6.7-5.6,11.4-.1,6.8.8,13.6,2.4,20.2,1.2,5,2.8,12.1,6.8,15.7,5,4.5,14.2,4.2,20.5,5.1,7.1.9,16.3,3.8,23-.2,5.7-3.4,11.1-7.5,16.8-11,4-2.5,8-5,12-7.5,4.2-2.7,8.4-5.9,13.2-7.6,9.4-3.4,19.1,2.1,28.3,4s18.7,2.8,27.7,5.9c15.8,5.4,15.3,23.8,26.6,33.9,4.9,4.5,11,6.5,17.4,7.8,8.5,1.8,16.9,3,25.2,5.7,16.8,5.4,37.4,15,43.6,32.7,3,8.5,3.9,17.8,7.3,26.2.6,1.4,1.2,2.2,2.2,3.2,3,2.8,5.6,4.6,7.4,8.5,4.6,10.1,1.8,23.2,9,32.2,2.4,3,5.9,4,9.4,5.2,4.8,1.7,9.7,3.2,14.6,4.5,15.3,3.9,31.8,4.2,47.6,4.2,16.9,0,34.3-.9,51.1,1.9,8.6,1.4,12,7.4,14.2,15.2,2,7,3.7,14.3,8.6,19.9,6.7,7.8,17.9,10.7,27.9,10.9,15.7.3,30.9-5.1,46.5-6.5,7.6-.7,15.5-.5,22.7,2.3,4.2,1.6,7.2,4.3,10.9,6.6,2.1,1.3,4.5,2.1,6.9,1.2,5.6-2,7.9-9.9,11.9-13.8,5-4.8,11.6-6.8,18.3-7.9,12.2-2,24.8-2.2,33.4-12.3,4.6-5.4,7.4-11.7,11.3-17.5,4.5-6.9,12.4-9.7,19.8-12.1,4.4-1.4,9.6-1.2,10.7-6.6.7-3.5,0-7.1.9-10.7s2.6-6.6,4.9-9.3c9.9-11.5,26.7-12,40.5-10.2,9.6,1.2,19.1,2.8,28.7,4.3,7.8,1.2,16.1,2.2,23.9,0,3.7-1,6.6-3,9.7-5.2,4.3-3.2,8.2-4.2,13.5-4.8,7-.9,13.6-3.2,19.1-7.8,6-5.1,8.9-11.9,13.1-18.4s10.5-8.2,15.5-13.2c9.3-9.2,10.3-23.8,19.6-32.9,12-11.7,30.2-7.6,45.2-9.2,7.3-.8,13.9-3.5,19.9-7.6,5.5-3.7,11.6-8.5,15.2-14.2,4-6.5.5-12.7-1.7-19.1-2.9-8.3-5.3-16.8-6.9-25.5-.9-5-1.4-10-1.7-15.1-.2-3,.4-4.2,1.7-6.8.8-1.5,1.6-3,2.3-4.6.4-.8.5-2.3,1-2.9.9-1.2,3.9-.7,5.7-.8,8.8-.7,17.4-3.2,25.7-6.3,6.1-2.3,12.5-5.3,15.5-11.4,5.1-10.3,2.7-28.6-6.7-35.9-4.3-3.3-9.9-4.6-15-2.7-4.1,1.5-7.5,4.1-11.8,5.3-3.3.9-6.7,1.3-9.2,3.9-4.9,4.8-3.7,12.9-8.6,17.5-4.4,4.1-11.7,3.3-17.2,4.2-6.1,1-9.7,3.9-13.5,8.7-6.2,7.9-14.5,14.9-24.9,9.6-18.2-9.3,7.5-31.4,13.8-39.5,6.8-8.7,9.9-19.8,16.1-28.9,8-11.9,22.8-10.3,34.3-16.6,5-2.7,7.7-6.6,9.8-11.8,2.7-6.6,7.2-9.1,13.8-11.6,17.2-6.5,42.3-11.6,45.1-33.6,1.1-8.8-1.2-26.6-14.2-22.5-14.9,4.7-26.3,20.6-43.1,19.8-12.4-.6-18.5-13.2-21.4-23.6-1.6-6-2.4-12.1-2.8-18.3-.2-5.1.3-11.4-2.9-15.8-4.6-6.4-13.6-1.2-19.3.5-5.3,1.6-10.8,1.9-13.8-3.8-2.7-5.1-1.3-11.8.7-16.9,2-5.2,5.3-11,10.2-13.9,5.3-3.2,9.9-6,13.5-11.3,3.4-5.1,5.9-11.6,7.3-17.6,1.2-5.2-.7-9.1-4.9-12.3-5.3-3.9-12.9-7-16.3-12.8-2.3-3.9-2.4-9.4-2.9-13.8-.5-4.5-1-9.1-1.6-13.6-1-7.8-2.5-15.6-5.7-22.9s-9.2-9.5-14.8-14.3c-4.7-4.1-7.9-9.6-13-13.3-2.5-1.8-7.4-4.8-10.2-2.7s-5.3,6.5-7.6,9.3c-2.1,2.6-4.6,7.4-7.5,9.2-1.2.8-4,.5-5.6.9-2.3.6-4.4,1.5-6.3,2.9-3.9,3-5.4,6.1-11.1,5.7-6.8-.5-13.5-4.6-20.4-2.2-2.9,1-5.2,3.1-7.2,5.3-3.4,3.6-7.1,5.3-11,8.1-2.9,2.2-5.1,5.2-7.8,7.6-4,3.6-8.7,5.6-13.9,6.6-8.5,1.7-17.5,1.4-26.1,1.9s-17.1.8-25.1-2.2-13.2-10.5-20.5-14.7c-5.1-2.9-11.3-3.2-16,.7-5.7,4.8-6.4,13.1-11.7,18.1-3.1,2.8-8.1,3.1-10.8-.7-2.5-3.5-3.2-7.8-4.6-11.8-1.9-5.1-5-8-9.8-10.3-10.4-5-22.6-6.1-34-6.6s-22.9-.1-34.1,2.8c-17.1,4.4-35.1,10.9-52.9,5.8-9.5-2.8-14.7-9.8-22.1-15.5-8.4-6.4-17.5-4.6-27-1.8-5,1.5-9.2,1.5-14.3,0-4-1.2-7.9-2.7-12-3.3-7.3-1.1-14.6.6-21.2,3.6-8.1,3.7-14.7,9.4-21.9,14.6-3.3,2.4-6.9,4.8-11,5.5-6.1,1.1-11.2-1.5-15.9-5.1-5.9-4.5-11.2-10-18.4-12.1-5.8-1.7-12.2-1.1-17.8,1.1-5.2,2.1-9.8,5.6-12.9,10.2-4,5.9-3.7,16.8-10.6,20.2-5.3,2.6-12.9,1.9-18.7,3.1s-11.3,3.1-15.3,7.5c-1.3,1.4.8,3.6,2.1,2.1h0Z"/>
    </g>
  </g>
  <g id="_6" data-name="6">
    <path data-url="1" class="cls-8" d="M81.2,1411.6c5.2-9,10.4-18,15.6-27,3-5.3,6.9-11.1,12.9-11.9,10.3-1.3,18.3,13.3,28.3,10.6,5.6-1.5,9.8-8.2,15.5-6.9,2.7.6,4.5,3,6.7,4.7,9.7,7.5,23.6,1.4,34.1-4.8,6.9,7.6,5.6,19.9,11.4,28.3,7.6,10.8,27,9.4,32.9-2.5,3-6,5.8-15.4,12.3-13.5,1.8.5,3.2,1.9,4.4,3.3,8.9,9.5,17.9,19.1,23.3,30.9,1.4,3,2.5,6.2,4.3,9,2.7,4.2,6.6,7.3,10,10.9,6.3,6.5,10.9,14.3,16.3,21.6,12.2,16.5,28.3,29.8,46.1,40.2,4.7,2.7,11.4,5,14.9.8,1.8-2.1,2.2-5.6,4-7.7,2.2-2.4,5.8-2.2,8.9-3.1,11.7-3.5,14.9-19.3,10.8-30.8-4.1-11.5-13-20.6-18.5-31.4-1.1-2.1-2.1-4.6-1.3-6.9.6-1.6,2-2.8,3.3-3.8,13.1-9.7,31.4-12.1,46.5-6.1,2.3.9,4.6,2,6.5,3.7,3.3,2.8,5,7,7.4,10.6,6.2,9.5,16.5,15.4,26.4,20.9-7.6,6.8-16,15.9-13.5,25.8,2.4,9.6,13.4,13.7,22.9,16.3,6.9,1.9,14,3.9,21.1,3.4s14.5-3.8,18-10.1c1.9-3.5,2.4-7.6,4.3-11.1s5.9-6.5,9.6-5.2c2.1.8,3.5,2.7,4.8,4.6,12.3,17.8,25.2,38.1,21.8,59.5-1.4,8.8-5.4,18.8-.2,26,3,4.2,8.3,6.1,11.7,9.9,3.5,3.9,4.6,9.5,5.4,14.7,1.5,10.5,1.8,21.7-2.8,31.3s-15.6,16.8-25.8,14.1c-12-3.2-17.3-17.6-17.4-30.1s3-25.2-.2-37.2c-5.2-19.5-25-30.8-43-39.8-7.5-3.7-14.9-7.5-22.4-11.2-9.1-4.5-19.5-9.1-29.1-5.9-8.3,2.8-13.8,10.7-17,18.8-7.2,18.2-5.7,39.8,4.1,56.8,3.4,5.8,7.8,12.7,4.6,18.7-2.5,4.7-8.5,6.1-12.3,9.8-9,8.6-2.5,23.7,5.4,33.3,3.3,4,6.9,9.8,3.6,13.8-8.7.2-12.9,11.2-20.8,14.8-8.5,3.9-19-2.7-22.2-11.5-3.2-8.8-.9-18.7,2.6-27.4,3.5-8.7,8.2-17.1,10-26.3.6-3.3.9-6.8-.5-9.8-2.5-5.8-9.4-8.2-13.7-12.8-8.3-8.8-5.4-23.6-11.5-34-6.7-11.5-22.1-15-30.5-25.4-5.1-6.3-8.8-15.9-16.9-16.2-8.2-.3-12.8,10.2-11.2,18.2,1.6,8,6.9,14.9,9.2,22.7,3.4,11.6,0,24-2.1,35.9s-2.5,25.6,5.4,34.7c2.8,3.2,6.7,6.5,6,10.7-.3,1.7-1.4,3.1-2.5,4.4-6.1,7.1-14.7,12.6-24.1,13.2s-19.4-4.2-23.2-12.8c-2.5-5.6-2.3-12.1-5.1-17.5-7.7-14.4-29.8-10.9-43.4-19.9-3.8-2.5-6.8-5.9-10.7-8.1-9.8-5.6-22.8-2-31.1,5.7s-12.7,18.6-16.1,29.3c-1.6,5-3.1,10.3-6.2,14.5-8.4,11.3-25.8,11.9-38.6,6-2-.9-3.9-1.9-5.3-3.6-2.4-2.8-2.7-6.7-3.2-10.3-1.8-15.6-6.1-30.9-12.9-45.2-4.2-8.8-9.4-17.4-11.2-27-2.4-12.3.9-25,4.2-37.1.6-2.2,1.2-4.5,2.7-6.2,5.1-6.3,15.4-1.9,21.4,3.5,6.1,5.4,13.6,12.2,21.2,9.1,9.2-3.8,7.3-17.8.9-25.4s-15.9-13.1-18.9-22.5c-.7-2.2-1-4.7-2.2-6.7-1.8-3.1-5.3-4.8-8.4-6.7-18.2-10.8-31.8-34.8-27.6-55.6"/>
    <path class="cls-1" d="M82.4,1412.3c3.2-5.5,6.3-11,9.5-16.5,2.8-4.9,5.5-10.1,8.7-14.8,2.6-3.7,6.3-7.4,11.2-6.9,3.7.3,7.1,2.7,10.1,4.8,6.1,4.2,12.5,8.5,19.8,4.3,3.3-1.9,7.1-6.4,11.3-5.4,2.4.6,4.1,2.8,6,4.3,1.7,1.3,3.6,2.4,5.7,3,10.3,3.2,21.6-2.6,30.2-7.6l-1.8-.2c5.1,5.9,5.5,14.3,8,21.4,2.1,5.8,5.6,10.6,11.4,13,5.4,2.2,11.7,2.2,17.1,0,5.8-2.3,9.1-6.4,11.6-12,1.3-2.8,2.5-6.1,4.7-8.4,3.2-3.3,6.3-.6,8.8,2.1,6.2,6.6,12.4,13.3,17.3,20.8,2.4,3.7,4.4,7.5,6.1,11.5s3.6,7.7,6.6,10.9,6.4,6.2,9.4,9.6,5.7,7.4,8.4,11.2c10,14.3,21.4,26.9,35.5,37.3,3.4,2.5,6.9,4.9,10.5,7.2,3.2,2,6.4,4.2,10,5.6,3,1.2,6.5,2,9.6.8s4.4-4,5.6-7c.8-2,1.8-3.6,4-4.3,1.8-.6,3.6-.7,5.4-1.2,2.9-.8,5.5-2.3,7.5-4.4,4.2-4.3,6.1-10.5,6.4-16.4.7-16.3-11.9-28.3-19.3-41.6-1-1.9-2.4-4-2.5-6.2-.1-2.9,2.6-4.5,4.7-5.9,3.4-2.3,7.1-4.1,11-5.3,7.8-2.6,16.4-3.2,24.5-1.6,4.2.8,8.6,2.1,12.2,4.4,3.8,2.4,5.8,6.5,8.1,10.2,4.2,6.9,10.4,12.1,17.1,16.5,3.5,2.2,7,4.3,10.6,6.3l-.3-2.4c-7.5,6.7-16.6,16.2-13.8,27.3,2.4,9.4,12.3,13.8,20.8,16.4,10.9,3.4,23.3,6.9,34.3,2.1,4.6-2,8.4-5.4,10.5-10.1s3.1-14.2,9.8-14.3c3.3,0,5.3,3.9,6.9,6.3,1.8,2.6,3.5,5.2,5.2,7.9,3.4,5.3,6.6,10.8,9.3,16.5s4.7,11.7,5.6,17.9.5,12.4-.9,18.6c-1.1,5.2-2.5,10.6-1.7,15.9s3.8,8.7,7.9,11.6c2.3,1.6,4.8,3.1,6.6,5.2,2,2.3,3.1,5.1,3.9,8,1.5,5.9,2,12.2,2,18.3,0,11.8-4,24.4-15.4,29.8-10.1,4.8-20-.2-24.8-9.7-5.2-10.4-3.8-21.9-3-33,.9-11.8.3-23.4-6.3-33.6-5.5-8.5-13.6-14.9-22.1-20.2-9.9-6.2-20.6-11.1-31-16.3-10.7-5.3-23-13.1-35.5-10.6-10.6,2.1-17.2,11.8-20.8,21.3-4,10.6-5.1,22.1-3.6,33.3.8,5.7,2.3,11.3,4.6,16.6s6.2,10.5,8.1,16.2c1,2.9,1.4,6.1-.3,8.8-1.4,2.2-3.8,3.6-5.9,4.9-4,2.4-7.7,5-9.5,9.5-3.6,9.1,1.6,19.8,6.9,27.2,2.8,3.8,9.1,9.8,5.6,14.8l1.3-.7c-6.6.3-10.7,5.6-14.9,9.9-2.4,2.5-5.1,5-8.7,5.8s-7.3-.2-10.4-2.2c-7.8-4.8-9.9-14.1-8.7-22.7,1.4-9.5,6-18,9.7-26.8,3-7.2,7-17.2,2.8-24.7-3.8-6.7-12.2-8.7-15.9-15.5s-3.7-14.8-5.5-22-5.7-12.7-11.5-17.2-12.6-7.6-18.2-12.4-8.2-11.4-13.1-16.5c-4.2-4.3-10.7-6.1-15.8-2.1-4.9,3.7-6.8,10.7-6,16.6,1.2,8.9,7.4,16.2,9.7,24.8,2.6,9.8.4,20.1-1.5,29.8-1.5,8.1-2.9,16.3-1.8,24.6.5,3.8,1.5,7.5,3.3,10.9s4.5,6,6.9,9c1.4,1.7,2.7,3.8,2,6.1-.7,2.1-2.5,3.8-4,5.3-3.1,3.1-6.6,5.7-10.5,7.6-7.5,3.7-16.3,4.1-23.7,0-3.4-1.8-6.3-4.5-8.1-7.9-2.2-4.1-2.5-8.9-3.7-13.3-1.8-6.6-5.9-11.6-12.1-14.6-5.9-2.8-12.4-3.9-18.7-5.5-3.4-.8-6.8-1.7-10-3.1-3.7-1.5-6.8-3.8-9.9-6.4s-6.4-5.1-10.3-6.3c-3.5-1.1-7.2-1.3-10.9-.8-7.6,1-14.6,5-19.8,10.5-5.8,6.2-9.5,13.9-12.4,21.8s-4.4,17.7-11.2,23.5c-5.6,4.8-13.4,6.2-20.6,5.6-3.7-.3-7.3-1.2-10.8-2.5-4.7-1.8-8.2-4-9.2-9.2-1-4.6-1.2-9.3-2-13.9s-1.9-9.3-3.2-13.9c-2.6-9.1-6.1-17.8-10.3-26.3s-9-17.5-9.8-27.4c-.8-10.2,1.7-20.2,4.4-30,1.1-3.9,2-8.7,6.6-9.8,3.8-.9,7.8.8,11,2.7,6.8,4.1,11.7,11.5,19.9,13.2,6.1,1.3,12-2,13.9-8s0-12.5-3.1-17.5c-3.9-6.3-10.4-10.5-15.3-16-2.7-3-4.7-6.3-5.8-10.3s-2.3-7-5.6-9.5c-3.1-2.3-6.7-4-9.9-6.3s-6-5-8.5-7.9c-5.3-6-9.5-13.1-12-20.7-2.3-7.1-3.2-14.7-1.8-22.2.4-1.9-2.5-2.7-2.9-.8-2.4,12.5,1,25.4,7.5,36.2,3.3,5.4,7.3,10.4,12.1,14.7,2.3,2.1,4.9,4,7.5,5.7,2.8,1.8,6.2,3.2,8.3,5.8s2.3,6.6,3.7,9.7c1.3,2.9,3.1,5.4,5.2,7.8,4.2,4.8,9.6,8.5,13.6,13.5,3.3,4.2,5.4,10.4,4.4,15.8-1.4,7-8.3,8.8-14.2,5.8s-10.3-8.8-16.3-12.1c-4.7-2.5-11-4.3-15.7-1-2.4,1.7-3.7,4.4-4.5,7.2-1.2,4-2.2,8.1-3.2,12.2-1.8,7.9-3,16-2,24.1s4,14.7,7.4,21.6c3.7,7.4,7.3,14.8,10,22.6s4.7,15.6,6.1,23.7c1.1,6.4.4,15.3,6.1,19.8,4.7,3.7,11.4,5.4,17.2,6.1,5.9.7,12,.1,17.4-2.2s9.9-6.5,12.6-11.9c3.3-6.6,4.8-14,7.6-20.9,5.4-13.2,15.7-26.6,31.4-26.7,3.4,0,6.8.7,9.7,2.3,3.3,1.8,6,4.5,9,6.8,4.7,3.6,10.2,5.6,15.9,7.1,10,2.6,23.7,3.6,29.1,13.8,3.5,6.5,2.6,14.5,7,20.7,3.5,4.9,8.9,8.2,14.7,9.6,12.8,3,26.6-4,34.2-14.3,4.5-6,0-10.8-4-15.4-4.7-5.3-6.5-12.2-6.7-19.2-.5-15.5,6.6-30.5,4.4-46.1-1-7.5-4.9-13.8-7.9-20.7-2.7-6.1-4.1-12.9-.4-18.9,3.4-5.6,9.8-5.9,14.3-1.4,4.2,4.2,6.6,9.9,10.7,14.2,8.3,8.8,21.8,12.2,28.4,22.7s3,25.6,12.3,35.2c4.3,4.5,11.9,7,13.6,13.5,1.1,4.1-.2,8.6-1.4,12.6s-2.8,7.7-4.5,11.5c-5.5,12.4-13.1,28.7-4.9,41.8,3,4.8,8,8.6,13.7,9.6s10.5-1.3,14.5-5.1c3.8-3.5,7.2-9,12.5-10.3,1.1-.3,2.2,0,3-.8,1-.9,1.5-2.8,1.6-4.1.2-3.1-1.3-6.1-3-8.6-1.8-2.7-4.1-5.2-5.8-8-1.9-3-3.5-6.1-4.5-9.4-1.9-6-2-12.8,3.1-17.3,4.5-3.9,11-5.4,12.9-11.8,1.9-6.7-2.8-13.3-5.9-18.8-7.3-13.2-9.7-28.9-6.8-43.7,2.7-13.6,10.5-30.7,26.8-30,8.3.4,16.1,4.6,23.4,8.2,7.5,3.7,15.1,7.4,22.5,11.3,11.5,5.9,23.2,12.6,31.5,22.7,4.3,5.3,7.3,11.5,8.5,18.2,1.4,8.4.2,17.1-.4,25.5-.8,11.9.3,25.7,9.6,34.4,9.5,8.9,23.3,5.9,31.6-3.1,9.9-10.8,9.5-26.8,7.5-40.4-1-6.7-3.1-12.7-8.6-16.9-2.7-2.1-5.9-3.8-8.2-6.5-2.3-2.9-2.9-6.5-2.7-10.2.4-7.3,3.2-14.3,3.3-21.7s-1.5-14.8-4.1-21.8-6.3-13.7-10.3-20.2c-2.1-3.4-4.4-6.8-6.6-10.1-1.8-2.6-3.5-5.7-6.4-7.1-6-2.8-11.2,3.2-13.2,8.2-1.4,3.6-2.1,7.5-4.5,10.6-2.3,2.8-5.5,4.8-8.9,5.9-7.9,2.6-16.2.9-23.9-1.2-6.3-1.7-12.9-3.4-18.3-7.2s-8.4-9.6-6.6-16.1c1.9-7,7.7-12.5,12.9-17.2.7-.6.5-1.9-.3-2.4-7.4-4.1-14.9-8.3-20.9-14.4-3.1-3.1-5.4-6.6-7.6-10.3-1.9-3.2-4.1-6.3-7.4-8.3-6.6-4.1-15.1-5.7-22.8-5.7-7.8,0-15.6,1.8-22.6,5.2-3.4,1.6-7.2,3.7-9.7,6.6s-2.1,6.2-.6,9.4c3.5,7.8,9.2,14.5,13.7,21.7,4,6.5,7.2,13.5,6.9,21.3-.2,6.2-2.5,13.2-8,16.7-3,1.9-6.5,1.8-9.7,3s-4.5,3.8-5.7,6.8c-.8,1.9-1.7,3.8-3.8,4.4-1.8.6-3.8.2-5.5-.3-3.9-1.2-7.4-3.6-10.9-5.8-14.8-9.3-28.3-21-38.9-34.9-5.4-7-9.9-14.7-15.7-21.2-3-3.3-6.4-6.2-9.3-9.6s-4.6-7.5-6.4-11.6c-3.6-7.9-8.9-15-14.5-21.6-3-3.4-6-6.8-9.1-10-2.1-2.2-4.5-4.3-7.8-3.9-5.9.6-8.4,8.3-10.5,12.8-2.7,5.8-7.4,9.4-13.7,10.4-5.9.9-12.5-.7-16.6-5.3-4.9-5.7-5.3-14-7.6-20.8-1.1-3.2-2.6-6.2-4.8-8.7-.4-.5-1.3-.6-1.8-.2-8.1,4.8-19.4,10.8-29,6.9-4.2-1.7-6.9-6.5-11.6-7.1-4.3-.5-7.6,2.6-10.9,4.8-3.7,2.5-7.2,3.2-11.3,1.3-3.5-1.6-6.5-4.2-9.7-6.2-3-1.9-6.5-3.7-10.2-3.6-4.2,0-7.8,2.4-10.5,5.6-3.9,4.5-6.5,10.1-9.5,15.2l-10.9,19c-1,1.7,1.6,3.2,2.6,1.5h0Z"/>
  </g>
  <g id="_5" data-name="5">
    <path data-url="1" class="cls-8" d="M1276.5,1537.5c-13.5-6.5-26.4-17.6-27.7-33.4-1.4-16.7-4.9-32.2-9.6-44.5-3-8-11.2-19.3-16-29-3.4-6.9-3.7-14.5-9-20-13.5-14-26.3-27.1-44-37-11.1-6.2-21.4-14.1-32.2-20.9-13.5-8.6-28.3-15.1-39.8-26.1-14.9-14.2-28.1-31.8-43-46-7-6.7-17.2-11.9-26-16-9-4.2-14.2-4.4-24-6-20.7-3.3-45-1-58-24-4.9-8.7-15.6-16.6-24-22-27.1-17.2-64.6-2.6-91.1-20.7-1.8-1.2-3.6-2.7-4.2-4.8-.9-3.2,1.2-6.3,3.5-8.7,8.7-9,20.9-13.6,32.8-17.3,42.1-13.3,88.5-21,120.4-51.5,8.9-8.5,16.3-18.6,25.9-26.4s8.7-13.5,20.6-10.6c.5-2.7,14.4-12.6,13-15,8.4-4.2.8-20.1,11-21,5.5-.5,6-9.5,11-12s13.6,6.6,17,6.6c6.2,0,13.1-.4,18,3.4,4.3,3.4,11.5-3.3,16.6-1.6,4.7,1.6,7.4-10.3,11.4-7.4,10.3,7.5,13,19,23,31,9,10.8,30,5.5,38,17,2,2.8,7.8,11.7,11,13,2.7,1.1,16.9-7.8,16,0-1.4,12.1,18-2,27.4,4.3,5.6,3.8,11.9-6.4,18.8-7,19.5-1.5,36.2,16.9,43.9,32.8,4.9,10.1,10.8,22.7,22,22.9,11.8.1,21.3-14.9,32.6-11.4,5.3,1.7,8.5,6.9,13.2,9.8,9.9,5.9,22.7-.2,33.9,2,14,2.8,21.9,17.2,32.6,26.8,5.4,4.8,12.7,8.7,19.7,6.8,4.3-1.1,7.8-4.3,11.4-7,9.9-7.6,21.7-12.7,34-14.9,7.5-1.3,16.3-2.2,20.4-8.7,2.2-3.4,2.5-7.9,5.2-10.9,6.1-6.8,17.4-.8,26.4-2.5,10-1.9,16.3-13.3,26.4-14.4,3.9-.4,7.7.8,11.5,1.8,29.1,7.3,61.9-2.9,81.8-25.4,1.7-1.9,3.4-4,5.9-4.6,2-.5,4.1.1,6.1.8,13.7,4.9,25.7,13.9,39.5,18.3,16.4,5.2,34.2,3.6,51.3,1.2,6.4-.9,13-1.9,19.3-.3,8.6,2.3,15.1,9.1,23.2,12.8,10.8,4.9,23.8,3.9,34.1,9.8,6.7,3.8,11.6,10.2,18.1,14.3s16.1,5.6,21.1-.3c3.1-3.6,4.1-9.6,9.2-10.3,2.7-.4,5.3,1,6.8,3.3,3.6,5.4,2.1,11.6,3,17.5,2.3,15.2,20,23.9,23.5,38.9,4.9,21.1-20.3,47-8.6,65.2l6.7,29.6c1,4.5,1.4,9.1,1.1,13.7l-1.6,28.1,8.7,28.5c1.5,5,2,10.2,1.5,15.4l-3.2,29.2c-8.6,10.5-1.3,26.2,12,28.7,6.7,1.2,16.2.7,17.1,7.6.2,1.1,0,2.2-.2,3.2-9.7,37.5-55.5,60.5-91.4,46.3-11-4.4-22.3-11.7-33.7-8.4-15.8,4.6-20.9,26.8-36.6,31.6-9.7,2.9-20.2-1.9-30.2-.5-9.4,1.3-17.1,7.7-25.1,12.6s-18.5,8.4-26.7,3.7c-2.7-1.5-4.8-3.8-7.2-5.8-11.7-9.9-29-12.6-43.1-6.6-3.3,1.4-6.7,3.3-10.3,3-4.5-.3-8-3.9-11.1-7.2-5.9-6.4-12.3-12.9-20.6-15.3s-19,1.3-21.2,9.7c-.9,3.6-.2,7.4-.1,11.1.5,20.5-23.2,37.5-42.4,30.6-7.5-2.7-21.1-3.7-20.9-11.8,0-5.8-9.9-7-22.7.2-4.4,2.5-2.9,11.1-7.4,13.3-2.8,1.4-9.2-1-12.3-1.1-14.7-.6-29.5-1.1-44.2-1.7-5.3-.2-10.7-.4-15.5-2.8-3.2-1.6-5.9-4-9-5.8-8.8-5.1-20.5-2.6-31.4,1.8-8.1,3.3-17.1-1.7-18.8-10.2-.3-1.6-.8-3.1-1.6-4.4-3.4-5.9-11.1-10.5-17-7.1-7.5,4.4-8.6,19.4-17.3,18.3-1.4-2.8-22.1,9-24,11-18.5,19.8-30.3,2.7-54.7-9.1h0Z"/>
    <path class="cls-4" d="M1277.3,1536.2c-12-5.9-24-15.3-26.6-29.2-1.4-7.3-1.6-14.9-3-22.2s-3.3-15-5.8-22.3c-4.4-12.8-13.8-23-18.6-35.5-2.1-5.4-3.1-11.1-6.6-15.8-3.8-5.1-8.9-9.5-13.5-13.9-10.4-10.1-21.5-18.7-34-26-13.8-8-26.4-17.8-40.2-25.7-13.6-7.8-25.8-15.7-36.7-27.1s-20.2-23-30.9-33.9c-9.6-9.8-20.6-16.6-33.2-22-10.7-4.6-22.9-5.6-34.4-6.8-11.7-1.3-24.1-2.5-34.1-9.4-5.8-4-8.9-9.6-12.8-15.2-3.5-5-8.1-9.1-12.8-12.8-9.9-7.7-20.2-13.1-32.7-15.2s-25.8-1.7-38.6-3c-6.6-.7-13.3-1.9-19.5-4.2-3-1.2-6.1-2.6-8.8-4.4-2.5-1.7-5.6-3.4-4.9-7.2.5-3,3.7-5.6,5.8-7.5,11.3-9.8,26.7-13.7,40.7-17.8,29.1-8.5,59.3-15.4,85.8-30.7,13.4-7.7,24.3-17.7,34.7-29.1,5.7-6.2,11.8-11.7,17.9-17.5,2-1.9,3.6-4,5.6-5.9,3.3-3.1,6.7-2.9,10.9-1.9.8.2,1.6-.2,1.8-1.1.8-2.5,4.5-4.9,6.4-6.6,2.3-2.1,4.7-4.2,6.3-6.8.3-.5.2-1.5.4-1.9-.7.9,1.3-.4,1.9-1.1,1.8-2.3,2.3-5.2,2.6-8.1.5-3.9,0-8.7,4.2-10.4,3.4-1.4,5-1.6,7.1-5,.9-1.4,1.5-3.1,2.5-4.5,2.5-3.3,4.2-2.8,7.4-1.3s6.1,3.7,9.5,4.7c3.9,1.2,8.3.2,12.3.9,4.6.8,7.8,4.5,12.5,3.8,2-.3,3.9-1.1,5.8-1.7,2.3-.7,4.2-.4,6.5-.6,2.7-.2,4-1.4,5.7-3.4.9-1.1,1.9-3.3,3.1-3.9,2.4-1.2,4.8,2.5,6.3,4.1,4.3,4.7,7.1,10.5,10.5,15.9,5,8.1,9.8,14.5,19.2,17.2,8.3,2.3,19.2,2.1,25.2,9.1,3.5,4,7.3,13.8,13.2,14.6,2.2.3,4.9-1.1,6.9-1.8,1.3-.4,3.2-1.4,4.6-1.3,2.9.1,2.3,1.5,2.8,3.9,1,5.1,6.5,4.3,10.4,3.6,3.7-.7,7.4-1.8,11.1-1.9s6.7,2.7,10.3,2.5c3.1-.1,5.9-2.4,8.3-4.1,5.4-3.7,10.1-4.5,16.5-3,11,2.7,20.1,11,26.6,19.9,5.7,7.7,8.7,16.9,14.1,24.8,4.4,6.2,10.6,11.3,18.7,10,8.6-1.3,14.6-8.7,22.7-11.1,6.6-1.9,10.8,2.2,15.4,6.2,3.4,3,7,5.1,11.6,5.8,11.8,1.9,23.3-3.8,34.5,2.6,14.4,8.2,26.9,37.6,47.2,30.2,4.5-1.7,8-5.1,11.8-7.8,5.8-4.2,12.1-7.5,18.7-10,9.4-3.5,21.3-2.8,29.9-8.3,3.1-2,5-4.8,6.3-8.1,1.3-3.2,2.1-6.8,5.2-8.7,2.9-1.8,6.8-1.4,9.9-1.1,4.6.5,9.3,1.4,13.9.5,4.2-.8,7.8-3.3,11.2-5.8,3.6-2.7,7-5.9,11.3-7.6,6.5-2.5,13.2.7,19.6,1.8,9.7,1.8,19.7,1.7,29.5,0s20-5.4,28.9-10.6c4-2.3,7.8-5,11.4-8,4.7-3.9,10.2-12.9,17-12.3,5.8.6,12.7,5.3,17.8,8,5.6,2.9,11.1,5.9,16.8,8.4,10.7,4.6,22.1,6.2,33.7,6.1,6.2,0,12.5-.7,18.7-1.4,7-.9,14.2-2.6,21.3-1.8,12.2,1.3,20.7,12,32.2,15.4,12.7,3.8,24.8,3.7,35.3,12.7,6.9,5.9,13.4,12.8,23.1,13.1,3.5,0,7.2-.8,9.9-3.2,3.1-2.7,4.1-8.4,7.7-10.4,7.8-4.3,9.4,7,9.6,11.4.1,2.4,0,4.9.4,7.3.7,4.1,2.3,7.8,4.6,11.2,5.2,8,12.9,14.1,17.1,22.7,4.6,9.6,1.6,20-1.8,29.4-3,8.4-6.9,16.7-7.9,25.6-.8,6.6,1.6,10.9,3.3,16.8s2.7,11.8,4,17.7c1.3,5.8,3,11.8,3.4,17.8.7,11.2-2.5,22.6-1.6,33.7.3,3.5,2.1,7.2,3.1,10.6,1.8,5.8,3.6,11.5,5.3,17.3,3.7,12.4.9,25.3-.5,37.9-.2,2.1,0,4.7-.7,6.7-.9,2.7-2.9,4.9-3.5,8-1.3,7.1,1.9,14.3,7.5,18.7,2.9,2.3,6.1,3.7,9.7,4.3,4.3.8,10.8.2,13.9,3.7,3.5,3.9-1,12.6-3,16.5-2.2,4.5-5,8.7-8.2,12.5-12.7,15.1-32,24.7-51.6,25.6-10.8.5-20.8-2-30.7-6.3-9.3-4.1-19.6-9.4-30-6-17.5,5.7-21.4,31.1-41.1,32.3-11.3.7-21.6-3.8-32.6.7s-20.9,15.6-34,16.2c-7.7.4-11.8-4.3-17.4-8.7-3.6-2.8-7.5-4.9-11.8-6.5-9-3.3-19.2-3.6-28.3-.7-7.4,2.4-12.9,6.8-20.1.4-4.3-3.9-7.9-8.5-12.4-12.2-6.9-5.5-15.5-9.1-24.3-6.2-8.6,2.8-11.5,9.7-11.1,18.2.5,11.2-3.2,20.8-12.4,27.7s-19,7.8-29.6,4.6c-4-1.2-8.2-1.9-12-3.5-2-.8-4.5-1.9-5.6-4-.7-1.5-.3-3.2-1-4.6-2.7-6-12.2-3.8-16.8-2.2-3.4,1.2-7.7,2.6-9.8,5.6-3.2,4.4-1.4,12.4-9.3,11.3-12-1.7-24.1-2-36.2-2.4-6.5-.2-13-.3-19.4-.8-8-.6-12.4-3.8-18.9-7.7-9-5.5-20-3.6-29.4-.3-6,2.1-11.7,4.1-17-.9-3.9-3.6-3.6-9.1-6.6-13.2-4.2-5.9-12.7-10-19.2-5.1-4.9,3.8-7.6,17.2-14.4,17.4-1.2,0-2.3-.7-3.8-.4-2.8.6-5.5,2-8,3.2-5.1,2.5-10.6,5.1-14.7,9-8,7.5-15.5,9.9-25.7,5-9.2-4.4-17.4-10.5-26.6-15-1.7-.8-3.2,1.7-1.5,2.6,9.3,4.6,17.7,10.9,27.2,15.3,6.2,2.9,12.7,4.2,19.1,1.3,6.4-2.8,10.9-8.7,17-12.1,5-2.8,10.6-6.4,16.2-6.2,6.7.2,9.3-6.1,12.2-11.1,3.1-5.6,7.3-10.7,14.5-7,6.2,3.2,6.3,8.6,9.1,14,3.3,6.5,10.8,9.7,17.8,7.9,6.3-1.7,11.8-4.5,18.4-4.9,7.8-.5,12.9,2.5,19.1,6.5,10,6.4,23.4,4.9,34.8,5.4,6.6.3,13.3.5,19.9.8,5.9.2,11.6,1.4,17.4,1.8,2.7.2,5-.3,6.8-2.6,3.3-4.4,1.9-9.1,7.1-12.4,3.5-2.2,12.1-5.5,16.3-3.3,2.8,1.4,2.2,5.7,4.3,8.1,4.6,5.3,14.3,6.3,20.7,8.1,7.9,2.3,15.9,1.5,23.3-2,7.8-3.7,14.4-10.1,17.8-18.1,1.5-3.4,2.3-7,2.5-10.7.2-7-1.9-14.4,5.1-18.9,12.3-7.8,24.8,2.8,33,11.5,2.9,3.1,5.8,6.6,9.8,8.2,4.6,1.8,8.7.2,13-1.6,11.8-4.9,24.9-4.9,36.2,1.2,9.2,4.9,14.3,13.9,25.7,12.9,10.8-.9,19-7.9,28-13.2,6.2-3.7,12.5-5.8,19.8-5.3,6,.4,12,2,18,1.6,19.8-1.2,23.6-23.4,39.2-31.2,12.7-6.4,25.9,3.3,37.7,7.6,8.4,3.1,17.4,4.2,26.3,3.6,17.3-1.2,34.1-8.6,46.8-20.5,6.3-5.9,11.6-13,15.2-20.9,2.5-5.4,6.8-14.2,1-18.9-7.1-5.8-17.6-1.8-24.7-8.7-3.5-3.4-5.7-8.5-5.2-13.5.4-3.7,2.8-6.1,3.7-9.4,1.4-5.3,1.3-11.4,1.9-16.9.5-4.9,1.3-9.8,1.5-14.7.3-12.5-5.7-25.7-9.3-37.5-2.5-8.2-.2-19.5.3-28.9.7-12-2.5-23.2-5.1-34.8-1-4.4-1.7-8.9-3.4-13-3.9-9.2-1.4-18,1.8-27.1,6-16.7,13.4-32.8,1.6-48.7-5.7-7.7-14.1-14.4-16.8-23.9-2.2-7.5,1.4-20.9-8.4-24.3s-10.9,10.7-18,13.2c-12.3,4.3-21.6-9.1-30.2-15.2-9.3-6.6-20.7-6.7-31.3-9.6-11.1-3.1-19.1-12.7-30.4-15.2-11.9-2.7-25.3,1.7-37.3,2.5-14.2.9-28-.7-41.1-6.6-10.8-4.9-21.1-12.7-32.7-15.5-3.7-.9-6.6,0-9.3,2.5-4.1,3.8-7.5,8.1-11.9,11.6-17.9,14.3-42.1,20.7-64.7,16.9-9.9-1.7-17.8-5.3-27,.5-3.7,2.4-6.9,5.6-10.7,7.9-5.2,3.2-10.1,3.4-16,2.8-8.1-.9-16.1-1.8-20.2,6.6-1.6,3.3-2.1,7-4.8,9.7-1.9,1.9-4.5,3-7.1,3.8-5.4,1.7-11.1,2-16.5,3.4-11.1,2.8-21.1,8.1-30.2,15.1-6.3,4.8-12.5,7.8-20.4,4.1-5.6-2.7-10-7.3-14.1-11.8-6.2-6.8-12.3-14.6-20.9-18.4-10-4.5-20.2-.6-30.6-1.3-7.3-.5-11.1-4.8-16.4-9.1-2.8-2.3-6.1-3.9-9.8-3.8-8.2.2-14.5,7-21.7,10.2-12.4,5.6-20.1-5.1-25.1-15-4.4-8.7-8.8-17-15.6-24.1s-14.6-12.6-23.9-14.4c-3.6-.7-7.6-1.1-11.2,0-4,1.3-6.8,4.8-10.6,6.4-3.6,1.5-6.8-1.3-10.5-1.6-3.4-.3-6.9.4-10.3,1.1-2.5.5-7.8,2.6-9.9.6-1.8-1.7.3-5-2.1-6.8-4.4-3.4-10.3,2.7-14.8,2.4-3.8-.2-7.3-6.9-9.2-9.7s-3.9-5.5-6.9-7.4c-7.2-4.4-16.1-4.3-23.9-6.8-11.8-3.9-16.3-16.6-22.7-26.2-2.5-3.8-8.8-14-14.3-10.4-2.8,1.9-3.6,6.4-7.3,7-.9.2-2.3-.3-3.3-.3-2.6.2-5,1.4-7.4,2.1-4.8,1.3-8.9-2.6-13.7-3.3s-9.8.3-14.5-2c-4.1-2-10.5-7.4-15.1-3.9-2.8,2.2-3.7,5.8-5.8,8.6-2.3,3-6.2,2.1-8.6,5.1-4.2,5.3,0,14.6-6.3,18.5-.6.3-.9,1.1-.7,1.7.4,1.6-6.4,6.8-7.6,7.9-1.9,1.8-4.5,3.7-5.4,6.3l1.8-1.1c-4.2-.9-8.3-1.5-12,1.1-4.2,3-7.7,7.7-11.6,11.1-11.5,10.1-20.5,22.7-32.6,32.2-23.6,18.6-53.3,27.2-81.8,35.3-13.6,3.8-27.4,7.3-40.6,12.4-6.5,2.6-12.8,5.7-18.3,10-3.5,2.8-8.6,7.1-8.6,12.2.1,10.4,19.9,15,27.5,16.4,13.3,2.5,26.9,1.9,40.3,3.3,15.4,1.6,28.2,7.2,40.1,17.1,5.7,4.7,9.6,10,13.7,16.1,3.1,4.5,7,8.4,11.6,11.3,9.3,6,20.6,7.5,31.4,8.7,14.1,1.6,28,2.8,40.9,9,6,2.9,12,6.1,17.4,10,7.2,5.3,13.2,12.3,19.1,18.8,10.4,11.4,20.1,23.8,31.8,34,11.2,9.7,24.8,15.9,37.3,23.8,7.2,4.6,14.1,9.6,21.3,14.2s14.2,8.3,21,12.9c7.2,5,13.8,10.8,20.2,16.8s14.9,12.9,18,21.7c2.5,6.9,4.8,13.2,8.6,19.6,4,6.8,8.6,13.4,11.5,20.7,3.2,8.2,5.4,16.9,7,25.6s1.3,17.3,3.8,25.4c4,13.1,15.4,22,27.2,27.8,1.7.8,3.2-1.7,1.5-2.6h0Z"/>
  </g>
  <g id="_4" data-name="4">
    <path data-url="1" class="cls-8" d="M1947.6,1388.1c0,0,0,.2,0,.3.5,4.7,3.6,8.2,9.8,5.7,15.6-6.3,28.9-19.1,45.7-20.4,8.3-.6,17.2,1.5,24.4-2.6,2.6-1.5,4.8-3.6,6.9-5.8,8.3-8.4,12.6-17.4,20.9-25.8-1.1,1.1.7-.7,2.1-1.5,0,0,.2,0,.3,0,10.3-1.8,20.7-3.5,31-5.3,7.9-1.3,15.9-2.7,23.5-5.4,1.5-.5,3.1-1.2,4.2-2.3,3.3-3.1,2.3-8.5.9-12.8-1.5-4.7-3.2-9.2-5.1-13.8-1.5-3.6-3.2-7.2-6.1-9.9-6.6-6.1-16.9-5.1-25.6-7.2-6.5-1.6-12.8-5.2-19.4-3.9-5.9,1.1-10.8,6-16.8,6-5.1,0-9.4-3.5-14.3-4.8-9.5-2.6-19.5,3.2-29.3,2-6.6-.8-12.4-4.6-17.2-9.1-2.6-2.4-4.9-5-8-6.7-7-4.1-15.9-2.6-23.6-.3-2.2.6-4.4,1.3-6.6,1.8-3.9.8-9-1.7-9,8.3,0,0,0,0,0,.1l2,11.5s0,0,0,.1c0,2.9.6,5.4.9,8.2h0c0,0,.9,26.4.9,26.4,0,.8.1,1.7.2,2.5,0,.6,0,1.4-.2,2.2-.6,1.9-.7,3.8-.2,5.7l5.2,19.2c3,10.4,5,22.9,4.2,31.8,0,0,0,.1,0,.2l-1.7,5.6h0Z"/>
    <path class="cls-7" d="M1946.1,1388.1c-.3,3,1.8,6.5,4.5,7.7,3.8,1.7,7.8-.4,11.2-2,8-3.8,15.3-8.8,23.1-12.8,3.8-2,7.8-3.6,12-4.7,4.4-1.1,8.9-1.2,13.4-1.1s9.3.3,13.8-1,8.1-4.4,11.3-7.7c7.8-7.9,13.1-17.8,20.9-25.8,1.4-1.4-.7-3.5-2.1-2.1-.5.5-.9,1-.7,1.8.3,1.2,1.7,1.3,2.5.7.4-.3.8-.7,1.2-1,.9-.7,1.7-.7,2.8-.9,2.5-.4,5.1-.9,7.6-1.3,5-.8,10-1.7,15-2.6,9.5-1.6,19.1-2.9,28.3-6,3.8-1.3,7.6-2.8,8.7-7.1,1-3.6,0-7.4-1.1-10.8-1.5-4.6-3.2-9.1-5.1-13.5-1.6-3.9-3.5-7.8-6.7-10.6-5.9-5.2-14-5.4-21.3-6.5-4.3-.6-8.3-2-12.4-3.3s-8.5-2.3-12.8-1.4c-3.9.8-7.2,3.1-10.8,4.7-1.7.7-3.6,1.3-5.4,1.2-2.1,0-4.2-.8-6.1-1.6-3.8-1.7-7.4-3.5-11.7-3.8-4.3-.3-8.6.6-12.7,1.4s-8.6,1.8-12.9,1.2-7.9-2.4-11.3-4.7c-3.6-2.5-6.5-5.8-9.8-8.6s-7.1-4.4-11.3-4.9-8.3,0-12.3.9c-2.1.5-4.2,1.1-6.3,1.7-1.8.5-3.8,1.2-5.5,1.4-1.9.2-4,0-5.8.9-2.4,1.2-3.2,3.9-3.4,6.3-.2,2,0,3.7.4,5.7l1.2,6.9c0,.6.2,1.2.3,1.8,0,.2,0-.6,0,0,0,.5,0,1.1,0,1.6,0,1.2.3,2.4.4,3.6.2,1.5.4,2.9.5,4.4.3,8.1.6,16.1.9,24.2,0,.4,0,.7,0,1.1,0,1,.3,2,.2,3,0,1.1-.5,2.2-.7,3.4-.2,1.9.2,3.7.7,5.6,1.2,4.3,2.4,8.7,3.6,13,1.3,4.7,2.6,9.4,3.6,14.2.8,4.2,1.5,8.4,1.8,12.7.1,1.9.2,3.9.2,5.8,0,1.1,0,2.3-.3,3.4-.5,1.7-1,3.4-1.6,5.1-.6,1.8,2.3,2.6,2.9.8.5-1.7,1.1-3.4,1.6-5.2.3-1.1.3-2.2.4-3.2,0-1.9,0-3.8,0-5.8-.5-8.2-2.1-16.3-4.3-24.1-1.8-6.4-3.6-12.8-5.2-19.2-.3-1.1-.3-2.2-.2-3.4.2-1.1.6-2.1.6-3.2,0-1.2-.2-2.4-.2-3.6,0-1.1,0-2.2-.1-3.4-.2-4.6-.3-9.1-.5-13.7-.1-3,0-6.1-.3-9.1-.1-1.6-.5-3.1-.7-4.6s-.1-3-.4-4.4c-.3-1.8-.6-3.6-.9-5.4-.3-1.9-.7-3.8-1-5.7,0-.2,0-.5,0,0,0-1,0-2,.2-3s.5-2.2,1.3-2.8c1.1-.9,2.9-.7,4.5-.8,3.7-.2,7.3-1.8,10.9-2.7,4-1,8.2-1.8,12.4-1.4s7.9,2,11.1,4.7,6,5.8,9.4,8.2,7,4.2,10.9,5c8.5,1.8,16.5-2,24.9-2.3,2.1,0,4.2,0,6.2.6s3.8,1.4,5.6,2.3c3.6,1.7,7.3,3.1,11.4,2.4,3.8-.6,7.1-2.8,10.6-4.4,3.9-1.8,7.8-2,12-.9s8.2,2.8,12.4,3.7c3.8.8,7.6,1.1,11.4,1.7,3.6.6,7.2,1.4,10.2,3.4,3.4,2.2,5.4,5.8,7.1,9.5,1.9,4.3,3.6,8.7,5,13.2,1.1,3.3,2.6,7.2,1.5,10.8-.5,1.8-1.8,2.9-3.5,3.7-2.1.9-4.3,1.6-6.5,2.2-4.6,1.3-9.2,2.2-13.9,3-9.6,1.7-19.2,3.3-28.8,4.9-2.2.4-4.7.6-6.9,1.2-1.3.4-2.4,1.5-3.3,2.3l2.5.7h0c-.1.5-.3,1-.4,1.5.1-.1.2-.2.3-.3l-2.1-2.1c-6.5,6.7-11.3,14.7-17.3,21.8-2.9,3.4-6.2,7.2-10.2,9.5s-8.3,2.4-12.6,2.4-8.7-.3-13.1.2c-4,.5-7.9,1.6-11.6,3.2-7.7,3.2-14.7,7.7-21.9,11.8-2,1.2-4.1,2.3-6.2,3.3s-4.2,2.1-6.4,2.6c-1.5.3-3.1.2-4.2-.9s-1.8-2.8-1.6-4.2c.2-1.9-2.8-1.9-3,0h0Z"/>
  </g>
  <g id="_3" data-name="3">
    <path data-url="1" class="cls-8" d="M775.8,1208.1c-2.3.5-4.5,1.2-6.7,2.3-15.8,8.1-29.9,19.5-41.1,33.2-4.5,5.6-8.7,11.7-10,18.8-1.9,9.9,1.8,19.8,4.1,29.6,4.7,20.4,3.2,41.7,6.8,62.3,3.6,20.6,14.5,42.1,34.2,49.1,9.7,3.4,22.5,4.4,26.3,13.9,2.4,5.9,0,12.6-.8,18.9-2.4,19.2,13.6,38.8,33,40.2,9.9.8,19.7-2.6,29.6-1.8,13.1,1.1,26.8,9.2,38.4,3,4.9-2.6,8.5-7.5,13.7-9.1,7.8-2.4,15.5,3.1,21.8,8.2,10.3,8.3,20.6,16.7,30.9,25.1,12.1,9.8,25.5,22.8,23,38.2-.8,4.6-2.9,9.1-1.8,13.6.8,3.2,3,5.7,5.4,8,15.5,14.6,38.7,20.6,59.4,15.4,7.7-1.9,15.3-5.3,23.2-4.5,10.6,1.1,23.1,9.1,30.2,1.1,2-2.3,2.8-5.3,4.7-7.7,3.9-4.9,11-5.3,17.2-6.3,32.9-4.9,57.7-33,89.5-42.6,4.7-1.4,9-3.6,13.3-6,5.7-3.2,15.3,1.5,27.3-5.5.2,0-1-6-1-6-1-4-3-15-4.8-23.3v-.6c-.1-2.8-.7-5.5-1.7-8l-2.7-6.9c-.5-1.3-1.1-2.6-1.8-3.8-1.1-1.9-2-3.8-2.8-5.8-2-5.3-5.2-10.2-8.6-15-1.4-1.9-2.5-4.1-3.3-6.3l-3.5-10c-1.9-5.4-5-10.3-9.1-14.3l-20.5-18.9c-1.5-1.3-3.1-2.5-4.8-3.5l-19.2-10.8c-2.1-1.2-4.1-2.5-6.1-3.9l-47-32.3c-4.2-2.7-8.2-5.9-11.4-9.7-5.8-6.8-10.1-8.9-14.6-14.9-12.3-16.3-39.2-37.6-49-41-5-1.7-17.5-11.9-24.8-10.1-2.1.5-4.2.8-6.4.5l-32.8-4.4c-3.4-.6-14.2-8.1-17-10-7-4.6-4.9-4.2-9.5-11.3-8.8-13.7-22.2-21-37-26.4-2.1-.8-4.2-1.2-6.4-1.4l-51.1-4.8c-7-1-25.2-10.9-24-14-7,17-31.7,21-37,22l-13.4-2.5h0Z"/>
    <path class="cls-6" d="M775.4,1206.7c-7.4,1.6-14.2,6.2-20.4,10.3s-12.1,8.9-17.5,14.2c-10.6,10.2-22.3,23.1-21.5,38.9.4,8.5,3.4,16.6,5.2,24.8,1.8,8.8,2.5,17.7,3.1,26.7,1,15.9,1.5,32.1,6.8,47.2,4.2,12,11.1,23.6,21.7,31,5.2,3.7,11.1,5.6,17.2,7.2,5.5,1.5,12.1,3,16,7.6,5.5,6.5,1.6,15.4,1,22.8-.5,6.2.8,12.4,3.4,18,5.2,11.4,16.1,20.5,28.6,22.4,8.3,1.3,16.5-.8,24.8-1.4s15.8,1.5,23.8,3.4c6.8,1.7,14.2,3,20.9.2s10.9-10,18.3-10.3c8.7-.3,16.4,7.5,22.6,12.6,7,5.7,14.1,11.4,21.1,17.1,10.8,8.8,25.6,19.4,27.2,34.5.8,7.4-4.3,14.8-1.4,22,2.5,6,9,10.6,14.2,13.9,11.8,7.6,26.1,11.4,40.1,10.5,7.8-.5,14.9-2.8,22.3-4.8,4.2-1.1,8.4-1.9,12.7-1.3,3.4.5,6.8,1.5,10.1,2.5,5.5,1.6,12.2,3.5,17.6.5,2.8-1.6,4.3-4.2,5.8-6.9,1.8-3.5,4.1-5.9,7.9-7.1,6.5-2.2,13.7-2.2,20.3-4.2s12.8-4.6,18.8-7.8c12.7-6.6,24.4-14.8,36.9-21.9,6.4-3.6,12.9-6.9,19.8-9.4,3.5-1.3,7.1-2.2,10.5-3.8,3.1-1.4,6.2-3.8,9.6-4.5,2.6-.5,5.3-.3,8-.4,3.3,0,6.7-.4,9.9-1.3,2-.6,7.3-1.9,8-4.1.4-1.5-.4-3.8-.7-5.2-1-5.1-2.1-10.2-3.1-15.3-.7-3.3-1.7-6.8-2-10.2-.3-2.9-.8-5.7-1.9-8.5-1.7-4.5-3.6-8.7-5.8-13-1.8-3.7-3.2-7.5-5.3-11.1s-4.8-6.7-6.7-10.4-3-7.8-4.3-11.7c-1.9-5.4-4.5-10.4-8.4-14.6-4.8-5.2-10.4-9.7-15.5-14.5-4.5-4.2-8.8-8.1-14.2-11.2-6.6-3.7-13.4-7.1-19.8-11.2-11.9-7.6-23.4-16-35-24.1-4.9-3.3-9.7-6.7-14.6-10s-8.9-6.9-12.8-11.2c-4.6-5-9.9-9-14.1-14.4-7.9-10.2-17.8-19-27.8-26.9-4.4-3.5-8.9-6.8-13.8-9.8-3.3-2-6.8-3.2-10.2-5.1-5-2.8-9.7-6-15.1-7.9-2.2-.8-4.6-1.3-6.9-.9s-4.4.8-6.8.6c-7.4-.8-14.7-2-22.1-3-3.2-.4-6.3-.8-9.5-1.3s-6.1-2.6-8.8-4.3c-4.1-2.6-8.7-5.2-12.3-8.4-1.3-1.2-2-2.6-2.8-4.1-1.5-2.8-3.2-5.5-5.2-8-8.4-10.8-20.5-17.6-33.1-22.4-6.1-2.3-12.5-2.6-19-3.2-8.8-.8-17.5-1.7-26.3-2.5-4.9-.5-10.2-.6-14.9-1.5s-9.3-3.3-13.4-5.6c-2.1-1.2-4.1-2.4-6-3.8-.5-.4-2.9-2.2-2.8-2.6.4-1.6-2-2.8-2.7-1.2-4.9,11.5-17.3,16.9-28.7,19.8-1.9.5-3.8.9-5.7,1.2-.4,0-2.2.2-.9.3-.6,0-1.2-.2-1.8-.3-3.9-.7-7.8-1.4-11.6-2.1-1.9-.3-2.7,2.5-.8,2.9l9.5,1.7c2.6.5,4.4.8,7,.3,8.5-1.7,17.2-4.3,24.5-9.3,4.8-3.3,8.8-7.6,11.1-12.9l-2.7-1.2c-.8,3,3.5,5.5,5.4,6.9,4.2,2.9,8.9,5.3,13.7,7.2s9.6,2.2,14.7,2.6c14.2,1.3,28.4,2.5,42.5,4,6.2.7,12.2,3.5,17.7,6.2,6.2,3.1,12.2,6.9,17.2,11.8,4.5,4.4,7.6,9.6,10.8,14.9,2,3.4,5.6,5.3,8.7,7.4,4.2,2.8,8.4,5.9,13,7.9,1.9.9,3.8,1,5.9,1.3,8.1,1.1,16.2,2.2,24.2,3.3,2.3.3,4.8.8,7.2.8s5.8-1.2,8.9-.5c2.9.7,5.5,2,8.1,3.4,4.2,2.3,8.1,4.9,12.5,6.7,4,1.6,7.6,4.1,11.1,6.6,10.6,7.3,20.5,15.9,29.3,25.3,4.2,4.5,7.7,9.7,12.2,14,2.5,2.3,5.1,4.5,7.4,7,2.6,2.8,5,5.6,8,8.1,4.4,3.7,9.5,6.8,14.2,10l21.4,14.7c5.4,3.7,10.8,7.4,16.3,11.2,5,3.4,10.3,6.4,15.6,9.3,5.6,3.2,11.8,5.9,16.5,10.4,5.7,5.2,11.4,10.5,17.1,15.8,2.8,2.6,5.5,5.2,7.6,8.5,2.6,4.1,4,8.6,5.6,13,.5,1.4,1,2.8,1.5,4.2,1.3,3.5,3.3,6.4,5.4,9.5,2.4,3.5,4.6,7.2,6.2,11.1,1.5,3.6,3.5,6.8,4.9,10.4,1.5,3.8,3.4,7.9,4,12,1,6.6,2.3,13.2,3.7,19.8.5,2.3,1,4.7,1.5,7,.3,1.3,1.2,3.8.9,5.1-.1.5,0-.2,0,0,.5-.5-1.1.2-1,.2-1.2.4-2.3,1.1-3.5,1.5-1.8.6-3.7,1.1-5.6,1.3-3,.4-5.9.3-8.9.3-2.2,0-4.5.2-6.6,1.1-3.8,1.6-7.2,3.9-11,5.3-6.5,2.4-13,4.5-19.3,7.6-12.7,6.3-24.4,14.5-36.6,21.6s-24.7,12.7-38.7,14.7c-6,.8-12.6,1.9-16.3,7.3-2,3-2.9,6.8-6.3,8.7-2.9,1.6-6.4,1.2-9.6.6-6.7-1.3-13.1-4.3-20-4.2-8,0-15.4,3.6-23.1,5.2-14.2,3-29.4.6-42.2-6.1-6.1-3.2-13.4-7.8-17.1-13.8-2.5-4.1-1.2-8.3-.1-12.6.8-3.4,1.3-6.7.9-10.2-1.6-13.6-12.9-23.9-22.9-32.1-7-5.7-14-11.3-20.9-17-6.4-5.2-12.7-11.3-20-15.1-6.3-3.3-13-3.6-19,.6-2.7,1.9-5.1,4.3-7.9,6-3.3,2-7.1,2.8-11,2.7-7.7-.2-15.1-3.2-22.6-4.6-8.2-1.5-16.1-.2-24.3.7-7.6.8-15,.6-21.9-2.9-5.8-2.9-10.8-7.5-14.4-13s-5.8-12.1-5.8-18.7c0-7.3,3.7-14.9,1.3-22.2-3.8-11.6-18.3-12.4-28-16-12.8-4.7-21.6-16-26.9-28.1-6.4-14.6-7.6-30.5-8.6-46.1-.5-8.4-1-16.8-2.2-25.1s-3.8-16.8-5.5-25.2-1.1-17,3.6-24.8c4-6.8,9.5-12.8,15.1-18.2,5.3-5.2,11-9.9,17.2-14.1,6.1-4.2,13-9,20.4-10.6,1.9-.4,1.1-3.3-.8-2.9h0Z"/>
  </g>
  <g id="_2" data-name="2">
    <path data-url="1" class="cls-8" d="M1254.2,1086.6c-4.8,2.1-10,4-16,3-7.7-1.3-17,4-18,1-3.5-10.6-9.3-8.9-17-6-8.1,3.1-9.1-13.2-21-18-5-2-21.9-2.3-28-11-4-5.6-6.5-11.9-12-16-.9-.7-3-4.8-3-6,0-2,3.5-3.2,4.5-7.3.7-3-.9-6-2.4-8.6-5.4-9.8-9.7-20.2-12.8-30.9-.9-3.3-1.8-6.6-3.5-9.6-1.9-3.4-4.8-6.2-6.9-9.5-2.9-4.6-10.8-8.8-11.9-14.1-1.3-5.7,3.9-12.5,2.8-18.2-.8-4.2-2.6-8.2-2.8-12.6-.4-9.4,4.1-18.6,8.5-26.6,6.2-11.5,12.3-25.8,5.2-36.7-1.9-2.9-4.7-5.5-4.9-8.9-.6-6.8,8.2-9.9,12.3-15.4,7.5-10.2-3.3-24.1-2.6-36.7.7-12.8,12.7-21.5,23.5-28.4,1.9-1.2,3.9-2.4,6.1-2.3,2.6,0,4.8,1.9,6.9,3.5,13.5,9.8,34,8.5,46.2-3,1.9-1.8,3.7-4,4.4-6.5.7-2.6.1-5.3-.4-7.9-2.6-12.5-5.2-25.1-7.8-37.6-1.8-8.7-2.6-19.9,5-24.4,5.4-3.2,12.3-1.2,18.4.7,19.5,6,39.8,9.3,60.2,9.7,2.6,0,5.2,0,7.5,1.3,5.6,3.2,4.8,11.2,3.6,17.5-3.3,16.5-5.1,34.2,1.3,49.7,3.3,8,8.7,15.1,10.8,23.4,3.3,13-1.8,26.4-5.3,39.3s-5.1,28.2,3.6,38.4c6.4,7.5,17.5,11,21.3,20.2,2.2,5.4,1.3,11.6.3,17.4-1.8,10.7-3.6,21.4-5.4,32.1-.8,4.6-1.6,9.2-1.3,13.9.2,5.3,1.8,10.6,1.9,15.9s-1.6,11.2-6.1,14.1c-7.7,4.8-19.7-1.1-26,5.5-2.3,2.4-3.1,5.8-5.2,8.3-4.6,5.4-13.1,4.6-19.4,7.7-6.8,3.3-10.7,11-11.4,18.5s1.1,15.1,2.9,22.4c2.9,11.8,7.2,13.8.2,24.8l-6,14h0Z"/>
    <path class="cls-5" d="M1253.4,1085.3c-2.3,1-4.7,2-7.2,2.5-2.9.7-5.7.5-8.6.2-4.2-.5-8.4.7-12.6,1.6-.9.2-2.7.9-3.6.4,0,0-.7-1.9-.9-2.4-.4-.9-.9-1.8-1.5-2.7-1.7-2.4-4.2-3.9-7.3-4-3.3,0-6.3,1.4-9.3,2.4-2.3.7-3.8-.8-5.1-2.5-4-5.2-6.6-11.3-12.7-14.6-2.4-1.3-5.1-1.8-7.8-2.3-3.4-.7-6.9-1.3-10.3-2.3s-7-2.4-9.7-5c-3.2-3.1-5.1-7.6-7.6-11.3-1.2-1.8-2.6-3.6-4.2-5.1-1.5-1.4-2.6-2.3-3.5-4.2-.6-1.1-1.3-2.2-.4-3.2,1.1-1.4,2.4-2.5,3.2-4.1,2.3-4.8-.4-9.2-2.7-13.3-2.6-4.9-5-10-7.1-15.2s-3.8-10.4-5.3-15.7c-.7-2.3-1.4-4.6-2.4-6.8-1.2-2.4-2.8-4.5-4.5-6.6-1.4-1.8-2.7-3.8-4.1-5.6-1.3-1.7-3-3.1-4.5-4.5-3-2.7-6.6-5.6-6.3-10s2.8-8.5,3.1-12.9c.4-5.2-2.6-10.1-2.9-15.2-.6-11.2,5.9-20.9,10.7-30.5,4.1-8.3,7.9-18.2,5.4-27.6-.6-2.1-1.4-4.2-2.6-6-1.3-2-3.1-3.8-4.1-6-1.9-4.2,1.1-7.3,4.1-9.9s6.3-4.8,8.2-8.3,2.2-7.6,1.7-11.5c-1.2-8.8-6.2-17.4-4.8-26.4,1.4-9.1,9-15.8,16.1-20.9,1.8-1.3,3.6-2.5,5.4-3.7,2.3-1.5,4.8-3.4,7.7-2.5,2.1.7,3.9,2.4,5.7,3.6s3.8,2.3,5.9,3.2c7.8,3.3,16.7,3.8,24.8,1.8,4.1-1,8.1-2.7,11.6-5.1s7.2-5.4,8.9-9.4c2.1-4.9,0-10.7-1-15.6-1.2-5.9-2.4-11.8-3.7-17.6-1.2-5.5-2.4-11.1-3.4-16.7-.7-4.1-1.2-8.5-.3-12.7s3.3-7.9,7.7-9c5.1-1.3,10.6.7,15.4,2.2,11,3.4,22.2,5.8,33.5,7.5,5.7.8,11.4,1.4,17.1,1.7,2.8.2,5.6.3,8.4.4,2.7,0,5.6,0,7.9,1.4,3.5,2.3,3.5,7.4,3.1,11.1-.5,5-1.8,10-2.5,15-1.5,10.6-1.9,21.4.6,31.9,1.2,5.1,3.3,9.9,5.7,14.5,2.5,4.7,5.2,9.3,6.9,14.3,3.8,11.2.7,22.9-2.5,33.9-2.7,9.4-5.5,18.9-4.9,28.8.5,9,4.1,16.8,11.1,22.5,6.2,5,15,9,17.3,17.4,1.5,5.5.2,11.4-.7,16.9-1,6-2,12-3,18-1,5.8-2.1,11.7-2.9,17.5s-.3,11.4.6,17.2c.8,5.1,1.5,10.6-.8,15.4-2,4.3-5.9,6.1-10.5,6.4-7.9.5-16.9-1.5-21.6,6.6-1.2,2-2,4.2-3.6,6s-3.7,2.7-5.8,3.3c-4.1,1.3-8.4,1.7-12.4,3.5-8.2,3.7-12.3,12.9-12.8,21.5-.6,10.3,2.7,20.8,5.9,30.4,1.1,3.2,1.5,6,.3,9.2-.9,2.6-2.6,4.8-3.6,7.3-1.7,4-3.4,8.1-5.2,12.1-.8,1.8,1.8,3.3,2.6,1.5,1.8-4.2,3.6-8.4,5.4-12.7,1.2-2.8,3-5.2,3.9-8.1,1-3.1.7-6.2-.3-9.3-3.1-10.1-6.9-20.5-6-31.2.4-4.9,2.1-9.8,5.2-13.6s7.1-5.2,11.6-6.3c4.2-1,8.6-1.7,12-4.5,3.6-2.9,4.2-8.3,8-10.9,3.5-2.4,8.3-1.9,12.4-1.8s8.1,0,11.6-2.1c9.2-5.2,7.3-17.2,6-25.9-1-6.5-.4-12.7.7-19.2,1-6,2-12,3-18s2.2-12,3-18c.7-5.1.9-10.4-1.3-15.2-3.6-7.9-12.1-11.5-18.3-16.9-16.9-14.8-5.8-38.9-1.6-56.7,1.2-5.4,2.1-11,1.8-16.5s-1.9-10.6-4.3-15.5-5-9.2-7.2-14c-2.4-5.3-3.7-11.1-4.3-16.8-1.1-11.3.6-22.4,2.7-33.5,1.4-7.4,1.8-18.1-7.7-19.8-2.4-.4-4.8-.4-7.2-.4-3.1,0-6.1-.2-9.2-.5-6.2-.5-12.4-1.2-18.6-2.2-5.8-.9-11.5-2.1-17.2-3.5s-11.3-3.3-17-4.8c-4.5-1.2-9.5-1.9-13.9.2-3.6,1.7-6,4.9-7.2,8.6-2.7,8.8.4,18.7,2.2,27.3,1.3,6.1,2.6,12.3,3.8,18.4.6,2.8,1.2,5.6,1.8,8.4.6,3,1.6,6.2.6,9.3-1.5,4.4-6.4,7.8-10.3,10s-8,3.5-12.3,4.1c-8.9,1.2-18.2-.8-25.5-6-1.9-1.4-3.8-2.9-6.1-3.5s-4.6.2-6.7,1.3c-4,2.2-7.8,4.9-11.4,7.7-6.9,5.3-13.3,12.3-14.4,21.3-1.2,9.4,3.9,18,4.9,27.2.5,4.5-.4,8.7-3.7,12-2.7,2.8-6.2,4.8-8.6,7.8s-3.2,6.8-1.4,10.5c1,2,2.5,3.7,3.8,5.5,1.4,2.1,2.4,4.4,2.9,6.9,2,10.2-3.5,20.7-8.2,29.4-5,9.3-10.1,19.9-7.8,30.7.5,2.6,1.4,5.1,2,7.6s.3,4.7-.4,7.2c-1.2,4.1-3.3,8.6-2,12.9,1.1,3.8,4.5,6.5,7.3,9.1,3.6,3.2,6.2,7,9.1,10.8,3.5,4.5,4.8,9.6,6.4,15s3.7,10.8,5.9,16.1,4.9,10,7.4,15c1.3,2.6,1.9,5.3.2,7.9-.9,1.3-2.4,2.3-3.1,3.8-1.2,2.5.9,6.1,2.5,8,1.3,1.6,3.1,2.8,4.4,4.3,1.7,2.1,3.1,4.4,4.5,6.7,2.1,3.5,4.1,6.9,7.5,9.3,3.1,2.2,6.8,3.5,10.4,4.5,6,1.6,13.3,1.5,18.3,5.5,2.7,2.1,4.6,5,6.4,7.8,1.5,2.3,2.9,4.9,5,6.7,5.1,4.3,10.3-1.9,16-.8,1.5.3,2.6,1.2,3.5,2.4,1.2,1.6,1.5,3.7,2.6,5.4,1.6,2.3,5.6,1,7.7.5s4.5-1.1,6.8-1.3,4.5.2,6.8.4c5.1.3,9.9-1.4,14.5-3.4,1.8-.8.2-3.4-1.5-2.6h0Z"/>
  </g>
  <g id="_1" data-name="1">
    <path data-url="1" class="cls-8" d="M1072.8,538.1c1.8-3,4.7-5.1,8.2-6,2.3-.5,4.4-1.7,5.3-3.8.6-1.4.5-2.9.5-4.4-.1-3.1-.2-6.3-.4-9.4,0-2.2-.2-4.5-1.5-6.2-1.2-1.5-3-2.3-4.8-3.1-4.3-2-8.3-4.4-12.1-7.2-2.4-1.8-4.7-3.8-5.9-6.5-1.9-4,4.4-8.7,5.2-13l7.8-17.2c1.2-2.5,1.8-5.2,2.3-8,1.6-8.2,2.7-16.4,3.5-24.7.6-6.9,1-14.1,4.4-20.1l10.7-9.8c.7-.6,1.2-1.4,1.6-2.1,1.1-1.9,5.4-3.9,7.6-5.2,2.8-1.6,7.6-3.6,10.7-4.5,8.1-2.3,16.5-4.4,23.4-9.4,4.9-3.6,8.8-8.5,11.1-14.1.5-1.2.9-2.4,1.8-3.3,1.4-1.4,3.6-1.6,5.4-2.3,4-1.6,6.4-5.9,10.3-7.7,2.8-1.4,6.2-1.2,9.3-1.4,5.1-.2,10.1-.1,15.1.5,1.8.2,3.5.2,5.3,0,4.7-.9,4.2-3.4,1.8-9.6l2.5-12.3c.3-1.9.9-3.7,2-5.2,2.7-3.5,7.8-3.9,11.6-6.1,3.8-2.2,6.4-6.5,6.6-10.9s-2.1-8.9-5.8-11.3l-7.8-10.3c-1.8-2.5-3.5-5-4.4-7.9-1.3-4-.8-8.4-1.7-12.5-1.3-5.8-5.2-10.7-8.9-15.3l-1.1-17.3c-3.4-14.8-10.1-2.9-10-18l-1.8-7.4c.5-11.7,6-22.6,9.2-33.9,3-10.5,4.5-22.4,12.6-29.7,4.8-4.4,11.4-6.4,17.9-7s13,0,19.5.2c16.5.6,33-1.4,48.8-5.9,4.5-1.3,9.1-2.8,12.9-5.6s6.8-6.9,7.2-11.6l-4-18.3c-4.8-4.9-7.7-11.8-14.1-14.2-5.3-1.9-11.7-1.8-14.4-8.4-.9-2.2-1.1-4.5-.6-6.8,1.1-6.1,5.5-10.6,10.1-14.5,2.6-2.2,5.4-4.3,8.7-4.7l15.8-13.5c.7-1.1,1.4-2.2,1.8-3.5,1.8-5.1-.3-10.7-3.2-15.3l-8.9-4.6c-.6-1.3-.6-2.8-1.3-4-1.3-2.3-4.5-2.5-7.1-2.4-9,.6-17.7,3.2-26.3,5.8-5.2,1.5-10.4,3.2-14.7,6.5-4.9,3.9-7.8,9.8-9.3,15.8-1.3,5.4-2,11.6-6.5,14.9-2.1,1.5-4.6,2.1-7.1,2.6-14.2,3.1-29.2,5.6-40.5,14.7-4.4,3.5-8.2,8-13.3,10.3-4.7,2-10,2-15.1,1.6-9.4-.7-18.8-2.4-27.8-5.2-9.1-2.8-18.9-6.5-27.8-3.1-7.5,2.9-12.9,10.5-20.8,11.7-4.6.7-9.8-.8-13.7,1.7l-4.2,3.1c-5.8,5-14.2,5.2-21.5,7.4-7,2.2-13.2,6.3-20,9.1-3.2,1.3-6.7,2.4-10.2,2.2-3.6-.2-7.1-1.6-10.6-2.6-7.7-2.1-16.1-1.7-23.6,1.1-3.4,1.2-6.7,2.9-10.2,3.1-3.7.2-7.3-1.3-10.9-2.1-9.4-2.2-20.2.4-26.2,8-1.6,2-2.8,4.3-4.5,6.1-3.8,3.9-9.5,5.2-14.8,6.2-6.9,1.4-14.3,2.7-20.9.3-2.2-.8-4.3-2-5.5-4-.7-1.1-1.1-2.4-1.8-3.6-1.8-2.9-5.5-4.1-8.9-3.9s-6.5,1.6-9.7,3l-4,1.5c-4,1.4-8,2.8-12,4.3-4.4,1.6-9.2,3.5-11.4,7.6-1.9,3.6-1.3,8.3-3.8,11.5-4.7,5.9-14.7,1.6-21.2,5.3-5.3,3-6.5,9.9-10,15-4,5.8-11.2,8.8-18.1,10.2s-14.2,1.5-21.1,3.1c-6.2,1.4-12.4,4.1-18.7,2.8-5.5-1.1-10-5-14.7-8.1-6.4-4.2-13.8-7.1-21.4-8.4-.9-.1-1.8-.3-2.5-.8-1.5-1-1.7-3.1-1.8-4.9-1.2-14.2-11-27.3-24.3-32.4-4.8-1.9-10.2-2.8-14.2-6-1.2-.9-2.2-2-3.5-2.7-1.7-.8-3.7-.8-5.6-.8-3.5,0-7.3.1-10.2,2.3s-3.6,7.1-.6,9l4.5,7c0,3.6-3.1,6.4-6.3,7.9-4.3,2-9.2,2.6-14,3.2-6.5.8-13,1.6-19.6,1.6-9.9,0-19.8-2.1-29.5-.6-1.9.3-4.3.6-5.5-.9-.6-.7-.8-1.7-1.1-2.6-.7-1.7-2.2-3.1-4-3.7l-3.1-1.8c-2.2-2.1-5.1-4.7-7.8-3.3,0,0-.1,0-.2.1-3.6,3.2-2,7-3,10.5-.6,2.3-2.2,4.2-3.2,6.3-1.2,2.3-1.7,4.9-3.3,6.9-2.6,3.1-7.1,3.8-10.5,6.1-6.3,4.2-7.9,13.4-14.2,17.6-3.7,2.5-8.5,2.9-13,2.9-.9,0-1.8,0-2.5-.4-.9-.5-1.5-1.4-2-2.2-1.5-2.5-3.1-5.3-2.8-8.2.4-3.9,3.9-6.8,7.3-8.7,4.7-2.7,10.1-5,10.5-11.7.2-2.9-.8-5.8-2.5-8.2-3.1-4.4-7.6-6.9-12.1-9.5-3.5-2,2-8.6-1.4-10.6l-6.9-1.2c-3.3-1.8-7.4-.5-10.8,1.1-11.7,5.3-22.2,13-31,22.4-.7.7-1.2,1.6-1.6,2.5-1.5,4.5,2.6,7.1,6.2,8.8,8.3,4,17,9.2,19.9,17.9,1.2,3.7,1.3,7.8,2.4,11.5,1.4,4.4,4.3,8.2,8.2,10.6,2.3,1.5,5.1,2.5,6.8,4.7,1.7,2.1,2.1,4.9,1.9,7.6-.7,8.8-7.1,16-9.4,24.5-1.6,5.7-1.3,11.7-2.8,17.4s-5.8,11.4-11.7,11.6c-3,.1-6.3-1.2-9,.1-1.5.7-2.5,2.1-3.2,3.5-3.6,7-1.3,15.5-.2,23.3s-.2,17.5-7.3,20.8c-5.3,2.5-11.7.3-17.4,1.5-4.1.9-7.6,3.4-11.5,4.9-4.4,1.7-9.3,2-14,2.2-5.8.2-12.5-.2-15.9-4.9-2.2-3-2.4-7-1.8-10.6s1.8-7.2,2.1-10.9-.4-7.7-3.1-10.2-7.7-2.5-9.7.6l-13.3,16.8c-3,5-6.9,9.5-7.9,15.5-.4,2.1-.2,4.4.6,6.4,3.4,8.4,14.3,7.2,21.3,11.9,3.2,2.2,5.5,5.6,9,7.2,1.8.9,3.7,1.2,5.6,1.7,5.6,1.3,10.9,3.5,16.2,5.7,8,3.3,16,6.6,24,9.9,1.9.8,3.8,1.5,5.4,2.7,1.9,1.4,3.4,3.2,4.9,5.1,3.1,4,6.3,8,9.4,11.9,2.2,2.8,4.4,5.6,5.5,9,1.4,4.3.7,9,0,13.5-1.1,7.2-2.4,15-7.5,20.2-3,3-6.9,4.8-10.8,6.6-5.5,2.5-10.9,5-16.4,7.4-1.5.7-3.1,1.4-4.2,2.8-1.1,1.4-1.4,3.1-1.7,4.9-1.1,6.4-2.3,12.9-3.4,19.3-1.8,10.1-4.4,21.4-13.1,26.8-4.3,2.6-9.5,3.4-13.7,6.1-4.3,2.7-7.3,7.5-8,12.5-.2,1.6.4,3.3,1.6,4.4l1,1c.9.9,1.5,2.1,1.6,3.4.8,12.2-6.9,25.4-17.6,31.3-.5.3-1,.5-1.6.8-4.9,2.5-7.4,8.3-5.6,13.5,2.1,6.1,7.7,6.2,11.8,9,4.4,3.1,6,9,6.1,14.5,0,3.2-.3,6.7,1.1,9.5,1.5,3,4.6,4.8,6.2,7.8,1.3,2.6,1.2,5.7,2,8.5.9,3.2,2.9,6,4.2,9.1,2.8,6,3.1,12.8,4,19.4s2.6,13.4,7.4,18c4.7,4.6,12,6.5,15.5,12.1,1.6,2.5,2.2,5.5,2.7,8.4.9,5.4,1.6,10.9,2,16.3.5,7.8.7,16.3,5.5,22.5l9.7,36.1c.3,4.9.5,10.5,4.3,13.5,3.1,2.4,7.3,2.3,11.2,2.9,18.1,3,27.7,23.6,44.4,31.1,18.2,8.2,40.5-1,59.1,6.4,6.5,2.6,12.1,7,17.5,11.3,2.8,2.2,5.6,4.4,7.7,7.3,3.9,5.2,5.3,12.2,10,16.8,2.2,2.2,5,3.7,7.3,5.7,8.3,7.2,9.5,19.5,10.2,30.5l6.9,6.7c4.3,1.3,9,.6,13.5-.1s9.2-1.4,13.5.2c3.6,1.3,6.5,4,9.8,6,5.4,3.1,12,4,18,2.6,2.5-.6,5-1.6,7.5-1.8,3.6-.4,7.5.8,9.9,3.5,3.8,4.3,2.8,11.2-.3,16s-8,8.1-12.3,11.8c-7,6-13.1,14.1-13.5,23.4-.5,10.9,6.8,21.6,4.1,32.2-1.8,7.1-7.7,12.5-10.9,19.1l-2.4,26.9c3.5,16.5,5,28.2,5.1,45.1,0,3.2,0,6.5,1,9.6.9,2.6,2.7,4.9,4,7.3,4.1,7.8,3.8,17.4,8.7,24.7,2.5,3.7,6.3,6.6,8.3,10.6,1.5,2.9,1.9,6.1,2.6,9.2,3.2,13.6,12.8,26.4,26.3,30.1,4.4,1.2,9.5,1.8,11.9,5.7.9,1.4,1.2,3.1,2,4.5,2.6,4.8,8.9,5.8,14.3,6.3,3.8.3,7.6.7,11.4,1,1.1,0,2.3.2,3.3.7,1,.5,1.8,1.3,2.5,2.2,8.2,9.2,2.5,26.1,17.5,32.1l17-2c9.4-2.9,3.6-1.1,13-4,3.4-1.1,6.9-2.2,9.5-4.7,3.1-3.1,4.1-7.6,5.9-11.5,4.2-9.3,13.4-16.7,22.7-20.8s20-8,33-13c8.2-3.2,21.6-3.9,28-7,11.4-5.5,22.1-7.1,34.2-10.8,15.8-4.8,36.6-19.8,46.2-33.3,8.5-12.1,18.3-21.4,29.5-28.3,2.6-1.6,8.3-2.2,11.1-3.6,4-2,17-6,16-18-.6-7.4,2.5-7.9,2-12-.3-2.7,7.1-3.7,9-7,8-14,8-12.8,19-4,5,4,43.6,9.9,48,0,4-9,13.3,8.1,17,2,3-5-5.1-12.8-7-22-4.3-20.9-12-30.8-13.7-32.7-.2-.2-.3-.4-.4-.7-.3-.8,1.1-5-5.9-9.7-3-2-3.4-4.1-5.3-5.9l-8.4-7.9c-2.9-2.7-7.2-3.3-10.7-1.5-8.9,4.7-15.7,4.3-24.6,9-4.6,2.4-9.3,4.9-14.2,6.4-5.6,1.7-11.5,2.1-17.3,2.4-14.4.6-28.9.2-43.2-1.4-4.2-.5-8.7-1.2-11.7-4.2-4.8-5-3-13.6-6.8-19.4-3.3-5.2-10-6.9-15.8-9-10.2-3.8-19.5-10.8-24.7-20.4-7.4-13.7-5.7-31-13.3-44.6-2.3-4.1-5.4-7.7-7.7-11.8-5-8.8-6.4-19.9-13.8-26.9-1.7-1.6-3.7-3-5-4.9-2-2.9-2.4-6.6-2.5-10.1l4.2-37.7c5-5.1,12.2-7.3,19.3-8.2s14.3-.6,21.3-1.5c2.2-.3,4.5-.7,6.4-2,2.1-1.4,3.5-3.7,5.2-5.5,4.5-4.5,11.2-5.9,17.5-7,4.3-.8,8.6-1.5,12.9-1.7,6.2-.3,13.3,0,16.4-6.7.5-1.1.8-2.2.9-3.4.7-6.7-2.7-12.5-3.6-18.8-1.1-7.4,1.7-15.3,7.2-20.4,1.5-1.4,3.2-2.6,4.4-4.3,1.3-1.8,1.8-4,2.3-6.2.9-4,1.6-8,2.2-12.1.3-2.4.7-4.9,1.6-7.2.9-2,2.2-3.7,3.6-5.3l.9-10.4c5.7-3.9,11.7-8.1,14.6-14.4,1.4-3,2.1-6.6,4.5-8.9,1.2-1.2,2.7-1.9,4-2.9,6.2-4.5,8.1-12.8,8.9-20.4.7-6.7.9-13.4.5-20.1-.1-2.4.5-4.9,1.7-7l26.6-45.5h0Z"/>
    <path class="cls-2" d="M1074.1,538.9c3.3-4.9,9.2-4.1,12.6-8.3,3-3.8,1.4-10.5,1.2-14.8-.2-3.8-.3-7.2-3.4-9.8-5-4.1-11.8-5.8-16.9-10.1-3.1-2.6-4.6-6-2.7-9.9.9-1.9,2.4-3.5,3.3-5.5.9-2.2,1.8-4.4,2.8-6.6,2.5-5.5,5.7-11.1,7.1-17,3.3-13.2,2.6-27,5.7-40.2,1-4.2,2.3-6.9,5.4-9.7,2.3-2.2,4.8-4.3,7.1-6.5,2.8-2.7,4.8-5.1,8.4-7.1,4.9-2.8,9.9-4.6,15.4-6.1,10.2-2.9,20.2-6.6,26.9-15.2,3.5-4.4,4.3-10,9.6-12.5,4.8-2.2,8.5-7.3,13.4-8.8,6-1.8,13.9-.9,20.1-.4,3.3.3,7.8,1.2,10.7-1,1.9-1.5,2-3.5,1.5-5.7-.3-1.5-1.3-3-1.5-4.4s.8-3.7,1-5c.4-2.2.8-4.6,1.4-6.7,2.5-8.5,8.9-7.1,14.6-11.5,6.5-5,7.4-14.7,2.1-20.9-3.3-4-6.8-7.8-9.9-12.1-3.8-5.2-5.1-9.5-5.7-15.8-.6-5.9-2.5-10.7-6-15.5-1.8-2.5-3.5-3.6-3.7-6.7l-.7-10.4c-.3-4.7-.8-10.4-5.2-13.3-3.3-2.2-4.7-2.1-5.1-6.9-.2-3-1.2-5.6-1.6-8.6-.8-5.3,1.4-11.4,3-16.5,2.1-6.5,4.7-12.9,6.5-19.5,3.4-12.5,5.6-26.6,19.4-31.8,12.8-4.8,27.7-1.3,41-1.9s26.3-2.6,38.8-6.5c7.9-2.5,18.9-7.8,19.1-17.7,0-4.6-2-9.8-2.9-14.3-1.4-6.6-5.6-11.9-10.7-16.5-2.8-2.6-6-3.6-9.6-4.7-3.3-.9-6.7-1.8-8.6-5-2.6-4.3-1.1-9.5,1.3-13.5,1.5-2.4,3.7-4.5,5.8-6.4,1.8-1.6,3.7-3.2,5.9-4.3,1.2-.5,2.9-.8,3.9-1.4,1.4-.8,2.6-2.2,3.9-3.3,4-3.4,8.9-6.6,12.3-10.6,4.7-5.5,3.3-17-2.3-21.2-2.1-1.6-5.7-2-7.5-3.8s-1.3-4.8-4.5-6.3c-3.7-1.8-8.8-.5-12.6.1-6.7,1.1-13.2,3-19.6,5-10.4,3.2-18.9,7.5-23.2,18-2,4.8-2.2,10.2-4.4,14.9-3.4,7.3-12.7,7.4-19.7,9-11,2.5-22.2,5.7-31.1,12.8-4.8,3.8-8.8,8.9-14.8,10.8-6.7,2.2-14.6.9-21.4,0-12.6-1.8-24.7-7.8-37.3-8.7-11.6-.8-17,7.2-26.6,11.6-5.4,2.5-11.2.3-16.6,2.3-2.5,1-4.6,3-6.8,4.5-4.6,3.2-9.8,4.2-15.2,5.4-5.9,1.3-11.1,3.5-16.5,6.2-6.5,3.3-12.9,7.1-20.4,6-6.7-.9-12.5-3.7-19.5-3.6-6.2.1-11.5,2.1-17.2,4-7.5,2.6-12.7-.4-20-1.2-8.9-.9-18.2,2.1-24,9.2-2.3,2.8-3.8,5.9-6.9,8-2.4,1.6-5.3,2.4-8.1,3.1-7.3,1.8-16.4,3.9-23.7,1.1-5.4-2.1-5.8-8.5-11.2-10.6-4.6-1.8-9.3-.3-13.6,1.4-8.3,3.3-18.1,5.2-25.5,10.1-3.2,2.2-4.9,4.8-5.9,8.5-1,3.7-.9,7.5-5.3,9.6-3,1.4-6.7.9-9.8,1.1-10,.6-12.7,6.4-17,14.5-6.7,12.6-21.3,12.6-33.7,14.4-6.8.9-13.6,4.1-20.4,4.2-7.6.1-13-4.9-19-8.8-4.8-3.1-10.2-5.4-15.7-6.9-4.8-1.3-6.8-1.3-8.5-7.1-.7-2.3-.8-4.7-1.6-7-2.8-8.5-8.4-16-15.8-21-4.2-2.9-8.7-4.3-13.4-6-3.8-1.3-6.5-2.9-9.7-5.2-1.5-1.1-2.6-1.8-4.5-2.3-6.2-1.4-17.5-.2-18.1,8.1-.5,7.2,11.8,10.8,2.4,17.1-5.8,3.9-14.6,3.9-21.3,4.6-7.1.8-14,.9-21.1.4-6.4-.5-12.8-1.1-19.3-.5-3.9.4-5.4,0-8-3.1-1.5-1.7-2.2-2.4-4.2-3.6-4.1-2.4-10.2-9.3-14.3-3.1-.9,1.4-1.2,2.9-1.4,4.5-.5,3.7-.9,5.9-2.6,9.4-1.1,2.2-1.9,4.8-3.2,6.8-2.4,3.8-5.9,4.2-9.5,6.2s-6.1,5.2-8.3,8.8c-4.2,6.9-8,11.6-16.7,12.3-4.3.3-7.4-1.9-8.4-6.1-1.3-5.3,2.4-8.1,6.2-10.4,3.5-2.2,7.6-3.9,9.7-7.6,4.4-7.6-1.1-15.8-7.3-20.3-2.4-1.8-6.5-3.2-6.9-6.2-.2-1.5.9-3.2.8-4.7-.1-2.1-1-3.2-2.9-4-7.6-3.1-14.9-1.7-22,1.9-9.9,5-20.6,12.2-27.6,20.9-5.5,6.8.4,11.3,6.5,14.4,5,2.6,10.1,5.4,13.8,9.7,4.9,5.6,4.2,12.3,6.6,18.8,1.4,3.8,3.8,7.2,7,9.6,1.8,1.4,4.2,2.1,5.9,3.6,4.2,3.8,4.1,8.5,2.5,13.5-1.7,5.4-5,10.2-7.1,15.5-2.4,6.1-2.2,12.5-3.5,18.8-1.6,7.8-6,13-14.5,12.4-4.1-.3-7.1.3-9.4,4-5.8,9.5,0,21.1-.5,31.2-.4,7.9-4.3,13.8-12.7,14.1-5.5.2-10.3-.5-15.5,1.8-7.1,3.1-12.9,5.3-20.8,5.5s-16.5-1.2-16.4-11.3c0-7.9,6.7-20.5-2.6-26-5-3-9-.1-12.1,3.8-3.7,4.7-7.6,9.2-11.1,14.1-4.6,6.3-10.7,14.6-8.5,22.8,2.2,8.1,10.8,9.1,17.5,11.6,5.1,1.8,7.9,5.9,12.3,8.7s10.6,3.3,15.6,5.2c6.4,2.3,12.6,5.1,18.9,7.7,7,2.9,15.9,4.9,21,10.8,3.9,4.5,7.5,9.3,11.1,14,5.8,7.4,6.4,13.6,4.9,22.8-.9,5.8-2,11.8-5.9,16.5-4.4,5.3-11.5,7.6-17.6,10.4-4.5,2-11.5,3.7-14.7,7.6-2.9,3.5-2.8,9.8-3.6,14.1-2,11.1-2.6,26-11.3,34.3-7.7,7.3-19.2,6-24,16.9-1.8,4.1-1.8,6.7.3,10.5,3.1,5.6,2.5,10.7.2,16.6s-6.5,11.5-11.8,15.3c-3.7,2.6-7.7,3.9-9.9,8.2-3.7,7.2.2,14,6.9,17.1,5.7,2.7,9,6.1,9.9,12.5.7,5.1-.6,10.2,2.4,14.8,1.4,2.1,3.4,3.6,4.7,5.8,1.6,2.8,1.6,5.7,2.4,8.7,1.7,6.2,5.6,11.2,6.8,17.6,1.9,10.1,1.4,21.8,9.3,29.6,3.1,3,7.1,4.8,10.6,7.3,7.1,5.1,7.6,13.5,8.5,21.5.6,5.5.7,11.1,1.4,16.6s2.7,8.7,4.7,13.4c1.8,4.1,2.4,9.1,3.6,13.4l5.1,19.2c1.4,5.3.6,11.7,4.3,16.2,2.2,2.7,5.3,3.6,8.6,4.1,6,1,11,1.9,16.2,5.3,8.6,5.6,15,13.8,22.9,20.2s16,9.1,25.7,9.8c12.5.9,25.4-1.8,37.7,1.1s27.4,13.5,33.2,25c2.2,4.4,4,9,7.7,12.4,4.7,4.3,9.5,6.9,12.3,12.9,2.6,5.6,3.3,12,3.8,18.1.3,3.4.1,4,2.4,6.3,1.6,1.5,3.4,4.1,5.4,5.2,3.8,2.1,9.6.8,13.7.2,7.9-1.2,13.1-.8,19.9,3.7,4.5,3,9.1,5.2,14.6,5.5s9.9-2,15.1-2.3c14.6-1,11.4,14.4,4.7,21.2-7.6,7.7-16.6,13-20.8,23.5-4.6,11.6,1.6,21.6,2.7,33,.6,6.6-2,11.9-5.7,17.2-2,2.9-4.8,6.1-5.7,9.6-1.2,5.3-1,11.3-1.5,16.7-.2,2.8-.7,5.6-.8,8.4,0,3.2.8,6.3,1.4,9.5,2.5,13,3.2,25.9,3.5,39.1.1,5,1.1,8.7,3.6,13,3.4,6,4.5,12.1,6.4,18.6,1.3,4.6,3.3,8.5,6.5,12.2,2,2.3,4.3,4.5,5.7,7.2,1.8,3.5,2,7.7,3.2,11.4,2.7,9,8,17.4,15.6,23.1,3.6,2.7,7.6,4.5,11.9,5.7,2.5.7,5.4,1.1,7.7,2.4,3.4,2,3.4,5.4,5.5,8.2,6,7.9,18,4.4,26.1,6.7,10.3,2.8,8.9,16.8,12.4,24.7,2.2,4.9,6.8,10.2,12.4,10.1,11.2-.2,25.2-3.1,35.1-8.2,4-2.1,6.2-5.2,8-9.3,2.7-6.4,5.4-11.8,10.6-16.6,8.9-8.2,20.9-12,32-16.3,5.7-2.2,11.4-4.7,17.2-6.4,5.2-1.6,10.7-2.3,16-3.4,4.1-.8,7.7-2.1,11.5-3.7,6.9-3,14.2-4.9,21.5-6.8,20.9-5.4,40.2-16,54.2-32.7,7.9-9.4,14.7-19.1,24.6-26.7,4.6-3.5,8.7-5.9,14.3-7.4,3.2-.8,6.3-2.2,9.2-3.7,5.7-2.9,11.1-7.2,11.9-14,.3-2.7-.3-5.3.3-8,.3-1.4,1.1-2.6,1.4-3.9.2-.8,0-2.6.3-3.1,1.1-1.9,4.6-2.6,6.2-3.8,2.9-2.1,4.1-5.5,6.1-8.4,3.6-5.4,6-3.4,10.5.2s8.4,4.8,13.9,5.9c7.1,1.4,14.4,2.2,21.7,2,5-.1,11.9-.3,15.8-4,2.4-2.2,2.8-5.1,6.7-2.8,2.3,1.3,4.3,3.6,6.8,4.4,4.6,1.3,6.6-3.2,5.8-7.2s-3.6-7.7-5.3-11.5c-2.8-6-3.5-12.8-5.6-19.1-2.3-6.9-5.6-12.8-9.4-19-.9-1.5-1.1-2.4-1.6-4.1-1.2-4.5-4.5-5.9-7.6-9-4.1-4.1-7.6-8.7-12.2-12.5-8-6.5-17,.5-25.4,2.9-5.2,1.5-9.9,3.5-14.7,6-7.6,3.9-14.9,6.1-23.5,6.8-13.5,1-27.3.6-40.8-.5-7.6-.6-17.2-.4-19.9-9.2-1.4-4.5-1.2-9.4-3.6-13.7-4.8-8.6-17.1-9.6-24.9-14.2-11.7-6.8-18-17.3-20.8-30.2-2.5-11.3-3.6-22.9-10-32.9-3.3-5.1-6.7-9.7-9-15.3-2.1-5.1-3.7-10.5-6.5-15.2-2.6-4.3-7.1-7-9.6-11.3-1.9-3.2-2.2-6.6-1.9-10.1.5-5.7,1.3-11.5,1.9-17.2.6-5.3.1-12.4,1.9-17.5,1.2-3.2,6.5-5.1,9.8-6.2,7.2-2.4,14.9-2.3,22.4-2.8,4.6-.3,10.3-.2,14.3-2.8,1.8-1.1,2.9-2.8,4.3-4.3,2.7-2.9,5.7-4.8,9.5-6.1,6-2,12.7-2.9,19-3.5,4.4-.4,9,0,13.2-1.6,8.6-3.2,8.5-12.5,6.5-20-1.7-6.3-3.6-12.1-1.5-18.6,1.2-3.7,3.2-6.8,6-9.6s4.1-3.5,5.4-6c2.3-4.4,2.7-10.3,3.5-15.1.4-2.5.5-5.1,1.3-7.5,1-2.9,3.5-4.8,4.3-7.5.7-2.5,0-5.4.7-7.9.6-2.3,0-1.2,1.8-2.7,2.4-1.8,4.8-3.5,7-5.6,3.2-3,5.2-6.4,6.9-10.5,1.7-4.2,3.4-5.9,6.8-8.6,1.6-1.2,3-2.6,4.2-4.2,6.1-8.4,6.2-20.9,6.2-30.9,0-4.7-.7-9,1.6-13.4.7-1.4,1.6-2.8,2.4-4.1l9.1-15.6c4.9-8.5,9.9-16.9,14.8-25.3,1-1.7-1.6-3.2-2.6-1.5-5,8.6-10.1,17.2-15.1,25.9l-9.2,15.7c-2.2,3.8-4.1,7-4.2,11.7-.3,11.8,2.2,29.4-7.7,38.3-3.5,3.1-6.4,4.4-8.4,8.8-3.1,7-6.4,11.5-12.6,16.1-2.6,1.9-3.5,2-4,4.9-.4,2.7.2,6.3-.7,8.8-.6,1.6-2.7,3.2-3.5,4.9-1,2.4-1.3,4.8-1.7,7.3-.9,6-1.2,14.3-5.4,19.1-3.3,3.8-6.7,6.2-8.8,11-1.9,4.3-2.5,9-1.8,13.6.9,6.4,5.1,13.2,3.3,19.7-2,7.2-9.6,6.8-15.5,7.2-9.5.6-22.2,1.6-29.9,7.8-1.8,1.5-3.1,3.4-4.7,5-3.6,3.4-7.6,3.5-12.2,3.9-6.3.5-12.7.3-18.9,1.4-5.7,1-16.5,3.6-18.5,9.8-1.5,4.4-1.1,10.3-1.7,14.9l-2.1,18.9c-.5,5-.5,10.4,2.6,14.7,3.5,4.8,8.1,7.7,10.8,13.2,2.4,4.9,3.8,10.1,6.2,15,2.5,5.4,6.4,9.8,9.3,15,3.1,5.6,4.6,11.8,5.8,18,2.2,10.8,3.6,22,10.4,31.2,5.7,7.7,13.8,13.1,22.7,16.5,5.7,2.2,12.5,3.7,15.5,9.6,2.2,4.4,1.8,9.7,3.7,14.2,4,9.5,15.8,9,24.5,9.7,13.5,1,27.3,1.4,40.7.1,5.3-.5,10.6-1.5,15.5-3.6,6.6-2.7,12.6-6.5,19.4-8.5,5.1-1.5,9.9-3.5,15-5.2,6.3-2.1,9,.8,13.1,4.5,1.8,1.7,3.8,3.4,5.4,5.3,3.3,3.9,8.5,7.2,9.9,12.1,1,3.7,3.5,6.4,5.4,9.8,5.3,9.7,6.4,20.3,10.4,30.3,1.6,4,4.8,7.9,5.7,12.1,1.5,7.6-4.2,2.6-6.8.8-4.5-3.1-6.9-3.2-10.3.9-4.2,5.2-12.4,4.8-18.6,4.7-7.4-.2-15-1.1-22.1-3.1-5.7-1.6-9.1-7.2-14.6-8.6s-8.3,5.6-10.7,9.3-6.1,3.8-8.9,6.8c-1.7,1.8-1.4,4.3-2.1,6.6-1.2,3.8-.8,7-1.3,10.9-.7,5.4-4.8,8.8-9.3,11.2-7.2,3.8-14.9,4.6-21.7,9.4-8.8,6.2-16.4,13.8-22.8,22.4-15,19.8-34.1,32.6-58.1,38.9-5.7,1.5-11.4,2.9-16.9,5-5.1,1.9-9.8,4.3-15.2,5.4-4.8,1-9.7,1.7-14.4,2.9-6,1.5-11.8,4.1-17.7,6.3-9.7,3.7-20.3,7-29,12.9-4,2.7-7.6,5.9-10.6,9.7-3.5,4.4-4.9,9.2-7.4,14.2-4,8.1-14.6,9.6-22.7,11.9-5.1,1.5-11.7,2.5-17,2.4-8.5-.2-10.9-11.3-12.4-18-1.3-6.1-3.5-14.6-10.4-16.5-4.8-1.3-10.2-.8-15.1-1.4-3.8-.5-7.3-1.1-10-3.9-2.1-2.2-2.4-5.2-4.5-7.4-2.2-2.4-5.6-3.3-8.7-4.1-6.5-1.7-12.2-4.3-17-9.1-3.6-3.6-6.5-8-8.6-12.7-2.5-5.7-2.6-12.1-5.4-17.6-2.3-4.6-6.8-7.7-9.3-12.2-3.2-5.7-3.7-12.4-5.7-18.4s-6.2-10.5-6.7-16.9-.2-13.2-.7-19.7c-.4-5-1-10.1-1.8-15s-2.5-10.1-2.6-15c-.2-5.8,1.1-12,1.6-17.9.2-2.3,0-5,.7-7.2.9-3.8,4.2-7.2,6.4-10.4,6.2-9.2,5.5-17.6,2.7-28-1.7-6.3-3.2-12.5-1.4-18.9s6.5-12.2,11.5-16.7c7-6.2,16.3-12,16.2-22.6,0-8.3-7.4-13-15.2-11.7-6.6,1.1-11.9,3.3-18.7,1.3-5.9-1.8-10-6.8-15.8-8.5-4.4-1.3-8.9-.5-13.3,0-3.3.5-7.4,1.5-10.7.6-2-.6-2.8-1.5-4.3-3-.9-.9-2.8-2.1-3.3-3.3s-.3-3.2-.4-4.7c-.5-5.1-1.2-10.2-2.9-15.1-1.3-3.7-3.3-7.2-6.1-10-4.5-4.6-9.7-7.1-12.8-13.2-2.2-4.2-3.9-8.6-7.1-12.2-4-4.4-9.3-8.2-14.2-11.6-9.6-6.7-19.8-8.9-31.3-8.9-12.5,0-25.9,2.1-37.8-3.1-9.5-4.2-16.3-12.3-23.8-19.2-6.3-5.8-13.2-10.8-21.9-12.2-2.8-.5-6.1-.3-8.6-1.8-3.5-2-4.4-6.1-4.7-9.8-.2-2-.3-3.7-.8-5.6-2.5-10.9-5-22.8-8.9-33.3-.9-2.5-2.6-4.6-3.5-7.3-2.1-6.2-1.9-12.9-2.5-19.3-.9-9.3-1-20.5-9-26.7-4.5-3.5-10-5.4-13.4-10.2-4-5.6-4.7-12.9-5.5-19.5-.6-5.1-1.4-10.1-3.5-14.8-.9-2-2-3.8-2.9-5.7-1.7-3.7-1.5-7.4-2.9-11.1-2.1-5.3-7.2-7.5-7.5-13.8-.2-4.4,0-8.5-1.6-12.8-1.5-3.7-4-6.4-7.5-8.2-5.8-2.9-12.4-7.2-7.9-14.8,2.6-4.4,9-6.3,12.7-9.9,3.4-3.3,6.2-7.3,8.1-11.6,1.8-3.9,2.9-8.1,3.1-12.3,0-1.8.2-3.9-.5-5.6-1.2-2.8-3.3-4.3-3.4-7.9,0-7.6,9.7-11.4,15.2-13.5,4.2-1.6,7.9-3.6,10.8-7.1,6.3-7.6,7.6-18,9.3-27.4,1-6,.9-17.2,6.3-21,5.1-3.6,12.2-5.5,17.9-8.2,9.6-4.4,15.3-9.9,17.7-20.4,2.2-9.6,3.7-19.6-2.3-28.1-6-8.5-12.6-18.9-22.4-23.1-11.9-5.1-24-10.8-36.4-14.6-3.1-1-6.5-1.4-9.4-2.8s-4.9-3.9-7.3-5.9c-2.9-2.4-6.3-3.6-9.8-4.7-6-1.9-12.9-3.6-13.1-11.4-.1-5.8,4.6-12.3,7.9-16.8s7.2-9.1,10.8-13.7c2.2-2.8,4.6-6.5,9-4,6.9,4,2.2,14.9,1.4,20.6-1.2,9,3.2,15.5,12.3,16.8,4.4.6,9,.3,13.4-.2,6.6-.8,11.2-4.2,17.4-6.1,9.1-2.8,20,2.2,25.6-7.9,5-8.9,1.1-19,.6-28.4-.3-4.9-.1-9.5,4.4-12.3,3.8-2.4,5.7-.6,9.8-1.4,3.1-.6,5.8-2.5,7.7-4.9,2.9-3.6,4.1-7.9,4.7-12.3,1.1-7.6,1.9-14.1,5.4-21.1s9.5-17.4,3.9-24.9c-2.8-3.7-7.8-4.8-11-8.2-4.8-5.2-4.2-11.8-6.3-18.1-3-8.8-11.2-14-19.1-18-3.8-1.9-9-4.6-5.2-10.4,1.5-2.3,4.5-4.5,6.6-6.3,5-4.4,10.4-8.2,16.2-11.5s10.9-5.9,17.7-4.5c1.3.3,3,.2,4.3.8,2.4,1,1.8,1.6,1.3,4.3-.4,2.5-.7,4.3,1.2,6.2,4.9,4.7,12.1,5.9,13.9,13.6,3,12.7-16.1,12-17.5,23.1-.4,3.4,1.5,8.1,3.9,10.6s5.5,2.2,8.9,1.9c10.5-1,13.9-7.1,19.2-15.2,1.7-2.6,3.6-4.8,6.4-6.3,2.5-1.5,5.5-2.1,7.8-4,3.5-2.8,4.8-7.8,6.9-11.7.9-1.7,1.5-3.2,1.8-5.1.1-.9,0-1.9.2-2.7v-.8c3.2-3.8,5.9-4.4,8-1.7,3.3,1.5,5.2,3.6,7.3,6.5s3.8,3.2,7.5,2.9c6.9-.6,13.5-.4,20.4.1,12.2.9,25.2.4,37.3-2.4,5.4-1.3,15.4-5.4,12.7-12.6-.9-2.3-3-4.1-4-6.3-.8-1.6-3.6,0-1.5-4.6,1.1-2.5,5-4.1,7.3-4.3,4.5-.5,7.7.6,11.6,3,9.4,5.7,20.3,7.1,28.1,15.6,3.9,4.2,6.8,9.2,8.5,14.7,1.1,3.5.4,9.2,2.8,12.2s7.8,2.8,11.2,3.8c6.9,2.1,12.6,5.8,18.5,9.8,3.7,2.5,7.4,4.7,11.8,5.2,6.2.8,12.1-1.7,18-3,11-2.5,23.2-1.4,33.2-7.5,3.5-2.1,6.3-5,8.3-8.6,3.4-6.1,5.2-12.7,13.2-13.6,7.3-.8,15.4.6,18.4-7.8.8-2.2.8-4.7,1.6-6.8,1.8-4.5,5.9-6.3,10.1-7.9,4.9-1.9,9.9-3.5,14.8-5.3s10.8-5.5,16.1-2.5c3.1,1.7,3.5,4.8,5.8,7.1,1.4,1.4,3.3,2.3,5.1,3,9,3.3,22.3.9,31-2.8,4.3-1.8,6.7-4.5,9.4-8.2,4.5-6.1,10.4-9.7,18-10.3,6.1-.4,11.1,2.2,17,2.7,6.2.5,11.4-2.9,17.2-4.4,7.5-1.8,14.6-1,21.8,1.1,5.8,1.7,10.7,2.2,16.5.2,4.9-1.7,9.4-4.3,14-6.6,6-2.9,12-4.2,18.4-5.8,8.6-2.1,14.3-9.3,23.2-9.5,4.3,0,7.8-.3,11.6-2.3,4.8-2.6,8.7-6.7,13.7-9.1,12.5-5.8,28.4,3.3,40.9,5.8,9.7,1.9,21.9,4.4,31.3.2,4.5-2,7.9-5.5,11.5-8.7,5.5-4.8,11.8-8.1,18.8-10.5,5.4-1.8,10.9-3.1,16.4-4.2,4.8-1,10.6-1.4,14.6-4.5,3.1-2.4,4.6-6.1,5.5-9.7,1.8-6.6,2.9-13.1,7.6-18.4s11.3-7.1,17.8-9c7.4-2.2,14.9-4.5,22.6-5.2,3.9-.4,6.7.5,8.8,3.7.7,1,.4,1.4,1.1,2.2,1.8,1.9,5.6,2.4,7.7,4,4.4,3.3,5.8,12.7,2.2,17.1-1.6,1.9-4.1,3.5-6,5.1l-6.9,5.9c-2.6,2.2-5.1,2.5-8,4.4-7,4.5-15,12.8-14.2,21.8.8,8.9,7.8,10.5,14.9,12.8s13.9,11,15.5,18.3c1.3,5.8,4.3,12.6,1.2,18.2-3.5,6.3-10.8,8.8-17.3,10.7-7.1,2.1-14.4,3.6-21.8,4.6-13.7,1.9-27.1.7-40.8.9-9.9.1-20.3,2.4-27,10.4s-7.8,19-10.7,28.6c-3.1,10.3-10,22.4-9,33.5.2,2.3,1.3,4.5,1.7,6.8.5,2.9-.2,6.4,1.8,8.9,1.2,1.6,2.7,1.6,4.3,2.6,3.3,2,4,6.1,4.2,9.6.3,4.4-.6,11.1,1.1,15.2.9,2.3,3.6,4.4,4.9,6.5,1.8,2.6,3.2,5.5,3.9,8.6,1.3,5.9.6,11.5,3.8,16.9,2.8,4.8,6.5,9.6,10.1,13.9s7.2,7.4,5.3,13.7c-2.3,7.5-9.8,7.2-15.2,11.1-4.9,3.6-5.2,11.2-6.3,16.7-.6,2.6-.8,3.4,0,5.9.1.4,1,2.3.9,2.9-.5,3.8-4,3.4-6.3,3.2-3.6-.2-7-.6-10.6-.7-4.7,0-10.6-.5-15.1,1.5-4.7,2.1-7.4,6.5-12.4,8.4-4.1,1.6-4.8,3.3-6.8,7.3-3.1,6.2-7.9,11.2-14,14.5-9.7,5.3-20.9,6.4-30.6,11.7-5.7,3.1-9.5,7.8-14.2,12.1-1.7,1.5-3.9,3-5.3,4.8-2.6,3.4-3.5,8.6-4.1,12.7-1.8,13-1.3,27.3-6.1,39.7-2,5.2-4.6,10.2-6.9,15.2-.8,1.7-1.4,3.6-2.2,5.3-1.5,3.1-5,6.1-4.7,9.9.7,8.3,13.5,12.5,19.1,16.2,5.1,3.3,5.5,6.4,5.7,11.6.2,5.6,1.6,8.9-4.4,12.7-3.7,2.3-6.4,2.7-9.1,6.6-1.1,1.6,1.5,3.1,2.6,1.5h0Z"/>
  </g>
</svg>