<?xml version="1.0" encoding="UTF-8"?>
<svg id="_Слой_1" data-name=" Слой 1" xmlns="http://www.w3.org/2000/svg" version="1.1" viewBox="0 0 2601.9 1685.3">
  <defs>
    <style>
      .cls-1 {
        stroke: #1d1d1b;
        stroke-width: 4px;
      }

      .cls-1, .cls-2, .cls-3, .cls-4, .cls-5, .cls-6 {
        stroke-miterlimit: 10;
      }

      .cls-1, .cls-7, .cls-8 {
        fill: #000;
      }

      .cls-9, .cls-10, .cls-11, .cls-12 {
        stroke-width: 0px;
      }

      .cls-9, .cls-13 {
        fill: #9738f2;
      }

      .cls-14, .cls-15, .cls-16, .cls-17, .cls-18, .cls-19, .cls-7, .cls-20, .cls-13, .cls-21, .cls-22, .cls-8 {
        isolation: isolate;
      }

      .cls-14, .cls-19 {
        fill: #5ca098;
      }

      .cls-14, .cls-19, .cls-13, .cls-22 {
        font-family: ArialMT, Arial;
      }

      .cls-14, .cls-7, .cls-20 {
        font-size: 38px;
      }

      .cls-10, .cls-16 {
        fill: #f94212;
      }

      .cls-2 {
        stroke: #5276f7;
        stroke-width: 5px;
      }

      .cls-2, .cls-22 {
        fill: #5276f7;
      }

      .cls-15 {
        font-size: 15px;
      }

      .cls-15, .cls-17 {
        font-family: Chalkduster, Chalkduster;
      }

      .cls-15, .cls-17, .cls-11 {
        fill: #ff0dcc;
      }

      .cls-16 {
        font-family: Luminari-Regular, Luminari;
        font-size: 36px;
      }

      .cls-17, .cls-13 {
        font-size: 24px;
      }

      .cls-3 {
        display: none;
      }

      .cls-3, .cls-4, .cls-18, .cls-20, .cls-5, .cls-6 {
        fill: none;
      }

      .cls-3, .cls-5 {
        stroke: #5ca098;
      }

      .cls-4, .cls-18, .cls-20 {
        stroke: #000;
      }

      .cls-18 {
        stroke-miterlimit: 2.8;
        stroke-width: .7px;
      }

      .cls-18, .cls-19, .cls-8 {
        font-size: 26.6px;
      }

      .cls-18, .cls-7, .cls-20, .cls-8 {
        font-family: Kefa-Bold, Kefa;
        font-weight: 700;
      }

      .cls-12 {
        fill: #47dd84;
      }

      .cls-22 {
        font-size: 13.2px;
      }

      .cls-6 {
        stroke: #9738f2;
      }
    </style>
  </defs>
  <g id="MUD">
    <g id="MUD_TEXT" data-name="MUD TEXT">
      <g>
        <g class="cls-21">
          <g class="cls-21">
            <g class="cls-21">
              <g class="cls-21">
                <g class="cls-21">
                  <text class="cls-14" transform="translate(1984.9 425.3)"><tspan x="0" y="0">THE MUD</tspan></text>
                </g>
              </g>
            </g>
          </g>
        </g>
        <g class="cls-21">
          <g class="cls-21">
            <g class="cls-21">
              <g class="cls-21">
                <g class="cls-21">
                  <text class="cls-19" transform="translate(2170.8 425.3)"><tspan x="0" y="0">S</tspan></text>
                </g>
              </g>
            </g>
          </g>
        </g>
        <g class="cls-21">
          <g class="cls-21">
            <g class="cls-21">
              <g class="cls-21">
                <g class="cls-21">
                  <text class="cls-14" transform="translate(1969.7 470.9)"><tspan x="0" y="0">C</tspan></text>
                </g>
              </g>
            </g>
          </g>
          <g class="cls-21">
            <g class="cls-21">
              <g class="cls-21">
                <g class="cls-21">
                  <text class="cls-14" transform="translate(1996.3 470.9)"><tspan x="0" y="0">O</tspan></text>
                </g>
              </g>
            </g>
          </g>
          <g class="cls-21">
            <g class="cls-21">
              <g class="cls-21">
                <g class="cls-21">
                  <text class="cls-14" transform="translate(2024.8 470.9)"><tspan x="0" y="0">NTIN</tspan></text>
                </g>
              </g>
            </g>
          </g>
          <g class="cls-21">
            <g class="cls-21">
              <g class="cls-21">
                <g class="cls-21">
                  <text class="cls-14" transform="translate(2121.1 470.9)"><tspan x="0" y="0">E</tspan></text>
                </g>
              </g>
            </g>
          </g>
          <g class="cls-21">
            <g class="cls-21">
              <g class="cls-21">
                <g class="cls-21">
                  <text class="cls-14" transform="translate(2144.5 470.9)"><tspan x="0" y="0">NT</tspan></text>
                </g>
              </g>
            </g>
          </g>
        </g>
      </g>
    </g>
    <path class="cls-5" d="M2601.4,363.1c-.7-4.1-2.3-8.3-5.8-10.8-.8-.5-1.6-1-2.5-1.3-1.5-.6-2.5-.3-4,.2-2.8,1-5.5,2.3-8,3.7-10.6,5.9-20,14.4-32.2,16.6-3.9.7-8.1.4-11.8-1.3-3.3-1.6-5.9-4.2-7.9-7.2-4.8-7-6.9-15.6-8.1-23.9-.6-4-.9-8-1-12.1-.1-4.2.3-8.8-1.9-12.6-3.6-6.4-11.8-3-17.1-1-3,1.1-6.2,2.6-9.5,2.8s-6-2-7.5-4.8c-3.5-6.8-.6-16.1,2.9-22.3,1.9-3.3,4.2-6.6,7.4-8.8,1.4-1,2.8-1.6,4.4-2.1,2.4-.8,4.7-2.9,6.4-4.8,3.9-4.2,6.5-9.5,8.4-14.8,1-2.8,1.9-5.7,2.7-8.6.7-2.7,1.2-5.1-.6-7.4-.9-1.1-2.1-1.8-3.3-2.7-1.3-1-2.7-1.9-4.1-2.9-2.9-2-5.9-3.8-8.7-5.9-1.3-1-2.6-1.9-3.8-3-.5-.5-1.5-1.1-1.8-1.7-.4-.7-.4-1.7-.5-2.4-.6-3.3-1.1-6.7-1.4-10-1.6-13.3-2.3-27.1-7.8-39.5-.6-1.4-1.2-2.9-2.3-4.1-1-1.1-2.2-2.1-3.5-3-2.6-1.8-5.4-3.2-7.9-5.2-4.1-3.3-7-7.8-10.5-11.6-3.2-3.4-7.2-6.1-12-6-.2,0-.4,0-.6.1-.3,0-.6,0-1,.2-1.9,1.3-3.4,3-4.3,5.1-1.1,2.6-1.7,5.3-2,8.1-.2,1.5-.3,3.1-.4,4.6,0,.4,0,1.5-.2,1.6-.4.3-1.3.2-1.7.2-3.2.3-6.4.3-9.6.1-.5,0-.8.1-1.1.4-4.1.3-8.2,1.2-11.3,3.9-1,.9-1.8,1.9-2.6,2.9-.4.5-.8.9-1.2,1.3-.1,0-.2.2-.3.3h0c-.3.2-.6.4-.9.5,0,0-.2,0-.3.1-.1,0-.2,0-.4.1-.4.1-.8.2-1.2.3h-2.8c-3.1-.2-6.2-1.1-9.2-2-2.2-.6-4.5-1.8-6.8-1.8s-4.1.4-6,1.2c-3.7,1.6-6.8,4.8-8.7,8.3-1,1.8-3.1,2.1-4.9,2.7-.9.3-1.8.6-2.6,1.1-.9.5-1.6,1.4-2.3,2.1-2.9,2.9-5.4,6.3-8.6,8.9-3.6,2.9-8.3,4.2-12.8,5-5,.9-10.2,1-15.3,1.1-9.6.3-19.3,1.8-28.8.2-4.3-.8-8.8-2.2-12.3-4.9-2.9-2.2-5.4-4.8-8.1-7.2-5.3-4.6-12.2-9.4-19.4-6.1-7.3,3.3-8.3,12.1-12.3,18.1-.9,1.4-2.1,2.6-3.6,3.5h0c-.2.1-.4.3-.6.5-2.1,3.3-5.5-2.1-6.5-3.9-2.3-3.9-2.7-8.1-4.1-12.3-1-3-2.5-5.1-5.1-6.9-2.1-1.5-4.5-2.6-6.9-3.5-6.2-2.3-12.8-3.5-19.3-4.3-7.1-.9-14.3-1.3-21.4-1.3s-11.8.3-17.6,1.2c-4,.6-7.9,2-11.9,3.1-5.1,1.5-10.3,3-15.5,4.1-9.6,2.2-19.7,3-29.5,1.4-5.5-.9-10.6-3.1-15-6.6-6.6-5.3-11.4-13.2-20.5-14.4-6.4-.9-13,1.1-18.9,3.4-2.3.9-3.8,1.4-6.2,1.1-2.6-.3-5.2-1.2-7.7-2-4.7-1.6-9.3-3.2-14.3-3.4-9.9-.3-19.3,4.2-27.3,9.6-4.2,2.8-7.9,6-11.9,9-3.8,2.9-8.1,5.7-13,6.1-8.6.7-14.9-6.4-21-11.4-6-4.9-12.5-8.1-20.4-7.6-7.2.5-14.2,3.7-19.2,8.8-2.5,2.6-4.4,5.6-5.7,9-1.3,3.6-1.6,7.6-3.2,11.1-1.3,2.8-3.2,4-6.1,4.5-2.7.4-5.4.6-8.1.9-6.3.7-12.9,1.4-18.6,4.2-2.3,1.1-4.4,2.7-5.6,4.9,0,.2,0,.3-.2.5,0,0-.2.2-.3.3-4.8,7.1-7.5,15.7-13.6,21.8-1.4,1.4-3.1,2.8-5,3.5s-4.1,1-6.2,1.3c-4,.5-8.2,1-11.4,3.6-1.8,1.4-2.8,3.5-3.7,5.5-.9,2.2-1.6,4.6-1.8,7-.2,2.4,0,4.6,1.1,6.8.9,1.8,2.8,3.9,2.4,6.1-.4,2.3-1.7,4.4-3.1,6.3-1.5,1.8-3.2,3.8-5.2,5-3.6,2.1-7.1,4.4-10.1,7.3-4,3.9-6.5,8.9-6.2,14.5.2,5.4,2.2,10.7,3.4,15.9,1.6,6.8,2.3,14.1.9,21.1-1.5,7.5-6.3,13.1-12.7,16.9-3.3,2-6.9,3.6-10.6,5s-6.9,4.3-9.4,7.5c-4.9,6.4-7,14.9-5.6,22.9.3,1.8.9,3.5,1.6,5.2-.8,8.7-3.5,17-6.3,25.2-1.5,4.3-2.9,8.6-4.2,12.9-.7,2.5-1.2,5.4-3.1,7.4-2.8,2.9-7.4,1.9-10.9,1-4.5-1.1-9-2.8-13.7-2.8-5.5.1-9.9,3.6-11.4,8.9-1.9,6.7,1,14-1.4,20.6-.7,1.9-3.1,3-4.8,3.9-2.3,1.2-4.8,2.2-7.2,3.2-4,1.7-9.6,3.8-11.6,8-.9,1.9-.7,4.1-.4,6.1.3,2.6.9,5.2,1.6,7.8,1.6,5.9,3.5,11.6,5,17.5,1.2,5.1,2.5,10.7,1.1,15.9-.5,2.1-1.6,4-3.2,5.4-.7.6-2.1,1.8-3.1,1.9-.3,0,.2,0-.2,0h-.6c-.5,0-1,0-1.6-.2-.9,0-1.8-.3-2.6-.4-4.5-.8-9.1-2.4-13.7-2.5-5.8,0-11.4,2.8-16.5,5.2-7.5,3.5-16.1.5-23.9-.3-2-.2-3.9-.3-5.9-.2-.9,0-1.8.2-2.7.3-.9.2-2.2.3-3,.8s-1.1,1.9-1.3,2.8c-.2,1-.4,2.1-.5,3.1-.7,5.4-.2,11,.5,16.4.8,5.8,2,11.5,4,17,.8,2.2,1.8,4.4,3.1,6.4.6.8,1.2,1.6,1.9,2.3,1.3,1.3,3.6,1.4,5.3,1.7,4.7.9,9.4,1.5,14.1,2.1s9.3,1.4,14,2c2.6.3,5.5.4,7.8-.8.2,0,.5,0,.7-.2,9.3-5.8,18.6-11.5,27.8-17.3,2.2-1.4,4.4-2.8,6.6-4.2,1.8-1.2,3.9-2,6-2.5,4.3-.9,8.8,0,12.9,1.4,4.5,1.6,9.1,2.9,13.8,3.9,4.7.9,9.5,1.7,14.3,2.5s9.2,1.9,13.7,3.4c2,.7,4.1,1.4,5.8,2.8,1.3,1.1,2.5,2.4,3.6,3.7,4.4,5.9,6.3,13.1,9.9,19.5,1.8,3.2,4,6.3,6.9,8.6,3.2,2.6,7,4.3,11,5.5s8.4,1.9,12.7,2.7,8.8,1.6,13.1,2.8c8.9,2.4,17.5,5.9,25.5,10.4,4,2.3,7.9,4.8,11.5,7.6,1.8,1.4,3.6,2.9,5.2,4.4.8.7,1.7,1.4,2.2,2.2.7,1,1.2,2.2,1.8,3.3,4.1,8.3,5.5,17.7,7.8,26.6.6,2.2,1.2,4.3,1.9,6.4.3.9,1.2,1.2,1.9,1,6.5,3.8,9.6,10.1,11.1,17.4,1.3,6.8,1.4,14.1,4,20.6.6,1.5,1.3,2.9,2.2,4.2.8,1.2,2,3,3.4,3.5,1.2.5,2.8.6,4.2.8,1.5.3,3,.6,4.5.8,2.9.5,5.8,1,8.8,1.3,12,1.6,24,2.5,36.1,3.2s24.3,1,36.4,1.7c6.1.3,12.2.7,18.2,1.3,2.8.2,5.5.6,8.3.8,1.3,0,2.5.2,3.7.4,3.9.8,6.9,3,8.8,6.5s2.8,7.5,3.8,11.3c1.2,4.4,2.4,8.8,4.7,12.8,2.6,4.4,6.4,8,10.9,10.3,15.8,8.1,33.9,3.8,50.3.5,9.4-1.9,19-3.7,28.6-2.7,4.7.5,9.3,1.7,13.5,3.9,2.2,1.1,4.3,2.5,6.2,4.1,1.8,1.6,3.2,3.3,5.7,3.7,4.6.6,7.3-3.8,9.1-7.3,2-3.9,4.8-7.4,8.3-10,6.2-4.5,14-5.5,21.4-6.4,7.5-.9,15.1-1.7,21.9-5.3,1.8-.9,3.1-2.7,4.4-4.1,1.2-1.4,2.4-2.8,3.5-4.3,1.7-2.2,3.3-4.6,4.7-7,2-3.5,3.5-7.3,6.1-10.4,3.4-4,8.3-6.1,13.1-7.8,4.1-1.5,8.3-2.7,12.5-3.8.3,0,.6,0,.8-.2h0c1.4-.3,1.3-2,.5-2.6-.2-5,.5-10.1,2.9-14.6,2.3-4.3,5.9-7.6,10.2-10,9.2-5.1,20.5-5.9,30.8-4.5,1.3.2,2.7.4,4,.7,1.6.3,3.2.4,4.9.5,3.8.3,7.5.9,11.2,1.6,7.7,1.3,15.4,2.9,23.3,3.2,3.6,0,7.2,0,10.8-.8,1.7-.3,3.6-.7,5.1-1.6s2.9-2,4.2-3.1c1.4-1.1,2.6-2.3,4.1-3.3,1.3-1,2.9-2.1,4.6-2.1,3.1,0,6.2-.3,9.3-.8,5.5-1,10.8-3.2,15.2-6.8,4.8-3.8,8.4-9.1,11.2-14.5,1.5-3.1,2.7-6,5.1-8.5,2.4-2.5,5.2-4.1,8.4-5.5,2.7-1.2,5-3.7,6.8-5.9s3.3-5,4.6-7.8c2.7-5.8,4.7-11.9,8.1-17.3,3.4-5.5,8.2-9.7,14.3-11.9,12.2-4.2,25.4-1.4,38-3,7.4-1,14.2-4.8,20.1-9.2,3.1-2.3,5.9-4.9,8.6-7.7,1.4-1.4,2.6-2.8,3.9-4.3,1.2-1.5,2.6-2.8,2.8-4.8s-.4-4-1.1-5.9c-.8-2-1.5-4.1-2.2-6.1-1.4-3.8-2.6-7.6-3.8-11.5-2.3-7.6-4.1-15.3-5-23.1-.5-4.1-.7-8.3-.8-12.5,0-.3,0-.6-.2-.8h0c-.7-2.3,4.1-1.7,5.1-1.6,2.6.2,5.1,0,7.7,0,5-.4,10-1.4,14.9-2.8s9.6-3.1,14.3-5c3.9-1.6,7.8-3.6,10.4-7,2.8-3.6,3.6-8.1,3.7-12.5.1-4.5-.2-9.2-1.3-13.6-1.9-8.2-7.9-16.2-17-16.6-4.4-.2-7.9,2.1-11.4,4.3-1.7,1-3.5,2-5.4,2.4-2.3.5-4.7,0-6.9,1-3.7,1.5-5.6,5.3-6.7,9-1.1,4-1.4,8.7-4.8,11.5-3.1,2.6-7.6,2.8-11.4,3-4.2.2-8.7.3-12.5,2.3-4,2.2-6,6.5-8.7,9.9-2.7,3.3-6,6.4-10,8-3.3,1.3-7.3,1.4-10.6,0-3.7-1.7-5.7-5.2-5.7-9.2s2.1-9,4.3-13c2.4-4.4,5.2-8.6,8.3-12.6,1.2-1.5,2.4-3,3.6-4.5.2-.1.4-.3.6-.6,0,0,0-.2.1-.3,0,0,.1-.2.2-.2.2-.3.4-.6.4-.9,2.4-4.7,3.8-9.9,5.4-14.9,1.7-5.3,3.6-10.7,7.6-14.7,6.5-6.4,16.7-7,24.9-9.6,4.1-1.3,8.1-3,11.2-6,1.5-1.4,2.8-3.2,3.7-5,.5-1,1-2.1,1.2-3.2.1-.6.1-1.2.3-1.8,1.6-5.5,8-8.2,12.8-10,14-5.4,31.4-8.1,40.8-21,5-6.8,6.1-15.9,4.7-24.1l-.4.3v-.2h0ZM2598.1,377.1c-3.4,16.1-22.2,21.3-35.7,25.8-6.2,2-13.1,4-18.1,8.4-2,1.7-3.6,4-4.2,6.6-.2.7-.2,1.4-.3,2.1-.2,1-.8,2-1.3,2.9-1,1.8-2.4,3.3-4,4.5-7.1,5.3-16.8,5.8-24.9,8.7-4.2,1.5-8.2,3.6-11.1,7.1-3.7,4.2-5.6,9.6-7.3,14.8-1.6,5.1-3,10.3-5.6,15-6.2,7.2-12.1,15.2-15.6,24-1.6,4.1-2.6,8.8-1.2,13.1,1.2,3.8,4.1,6.5,7.8,7.9,8.1,3,16.3-1.3,21.7-7.4,1.5-1.6,2.8-3.4,4-5.2,1.3-1.9,2.6-4,4.6-5.3,3.6-2.4,8.2-2.3,12.4-2.4,4.2-.2,8.4-.6,11.8-3,3.8-2.6,5.1-6.7,6.1-10.9.8-3.5,1.9-8.3,5.6-9.8,2.2-.9,4.7-.4,6.9-1,2-.5,3.9-1.5,5.6-2.6,3.6-2.2,7.1-4.7,11.5-3.9,4.1.8,7.6,3.5,9.8,7,2.5,4,3.5,8.8,3.9,13.4s.6,9.2-.8,13.5c-1.4,4.3-4.9,7-8.9,9-4.5,2.2-9.3,3.8-14,5.2s-10,2.7-15.2,3.2c-2.6.3-5.1.3-7.7.3s-4.8-.6-6.9.4c-1.8.9-2.9,2.9-2.3,4.9v.2c.2,8,1.1,16.1,2.7,23.9,1.7,7.9,4.1,15.6,6.8,23.2.7,2,1.5,4.1,2.2,6.1.6,1.6,1.8,4.1,1.1,5.8-.3.7-1,1.4-1.5,2-.6.8-1.2,1.5-1.9,2.2-1.3,1.5-2.6,2.9-4.1,4.3-5.6,5.4-12.1,10.2-19.5,12.9-6.1,2.2-12.9,2-19.3,2s-12.9,0-19.3,1.1c-6.4,1.2-12.2,3.8-16.8,8.4-4.5,4.6-7.3,10.3-9.8,16.2-2.4,5.6-4.6,11.6-8.7,16.2-1,1.1-2.1,2.1-3.3,3-1.4,1-3,1.5-4.5,2.3-2.9,1.6-5.5,3.7-7.6,6.3-2,2.6-3.3,5.8-4.9,8.9-1.5,2.8-3.2,5.5-5.3,7.9-3.6,4.2-8.1,7.5-13.4,9.3-2.8.9-5.7,1.5-8.6,1.8-1.6.2-3.2.2-4.9.2s-3.3.6-4.8,1.5c-3,1.8-5.4,4.4-8.3,6.4s-6.6,2.5-10.1,2.8c-7.8.6-15.5-.7-23.1-2.1-3.8-.7-7.6-1.4-11.4-1.9-3.4-.5-6.9-.6-10.4-1.2-10.5-2-22-1.9-32.1,2.1-9.6,3.8-17.1,11.4-18.8,21.9-.4,2.6-.5,5.1-.4,7.7-10.8,2.8-22.9,6-28.8,16.2-2.4,4.1-4.4,8.3-7.1,12.2-2.1,2.9-4.5,5.9-7.1,8.4-1.4,1.3-3.5,2-5.3,2.6s-3.7,1.1-5.6,1.5c-7.4,1.5-15,1.6-22.3,3.4-7.7,1.9-14.2,6.1-18.6,12.7-1.8,2.7-4.4,10.9-9.1,8.7-1.2-.6-1.9-1.7-2.9-2.5-.9-.8-1.9-1.5-2.9-2.2-1.9-1.3-4-2.5-6.1-3.4-8.5-3.7-17.9-4-26.9-2.9-18.4,2.1-36.8,9.5-55.3,5.1-5.6-1.3-11.1-3.8-15-8.2-3-3.4-4.8-7.6-6.1-11.9-2.2-7.4-3.1-16.8-10.1-21.6-1.8-1.2-3.8-2-5.9-2.4-3.9-.8-8-.9-12-1.2-12.1-1.1-24.2-1.7-36.2-2.2-12.1-.5-24.2-1-36.3-2-6-.5-12.1-1.1-18.1-1.9-2.9-.4-5.8-.8-8.8-1.3-1.5-.3-3-.5-4.5-.8-1.2-.2-2.9-.3-3.9-.8-1.2-.7-2.2-2.5-2.8-3.7-.8-1.4-1.3-2.9-1.8-4.4-1-3.3-1.4-6.8-1.9-10.3-.9-6.9-1.9-14.3-6.1-20.2-2.2-3-5-5.4-8.3-7.2h-.2c-2.7-8.6-4-17.6-7-26.1-.8-2.1-1.6-4.3-2.6-6.3s-1-2-1.6-2.9c-.6-1.1-1.6-1.9-2.5-2.7-3.4-3.1-7.1-6-10.9-8.6-7.8-5.3-16.3-9.4-25.2-12.5-4.4-1.5-8.9-2.8-13.4-3.9-4.5-1-8.8-1.6-13.1-2.4-8.2-1.5-16.3-4.1-21.3-11.3-4.3-6.2-6.3-13.6-10.1-20-1.8-3.1-4.2-5.9-7.1-8-1.8-1.3-4.3-2-6.4-2.7-2.3-.8-4.7-1.4-7.1-2-9.5-2.2-19.3-3-28.7-5.8-4.5-1.3-8.7-3.2-13.4-3.6-4.4-.3-8.9.5-12.6,2.8-2.3,1.4-4.4,2.9-6.7,4.3-2.4,1.5-4.8,3-7.2,4.5-4.7,2.9-9.4,5.9-14.1,8.8-1.7,1.1-3.4,2.1-5.1,3.2-.4,0-.9,0-1.3.4h0c-2.3,2.5-6.4,1.7-9.4,1.2-4.2-.7-8.5-1.2-12.7-1.8s-8.6-1.1-12.8-2c-.9-.2-1.9-.4-2.8-.6-.3,0-.6,0-.9-.2,0,0,.2.2,0,0-.2,0-.3-.3-.4-.4-.6-.6-1-1.1-1.4-1.8-2.5-3.8-3.8-8.4-4.9-12.8-1.3-5.2-2.1-10.5-2.4-15.8-.2-4.1-.5-8.8.9-12.8,5.7-1.5,11.6-.3,17.4.6,3,.5,6.1.9,9.2.8,1.4,0,2.9-.2,4.3-.5,1.7-.3,3.2-1,4.8-1.8,4-1.8,8.3-3.9,12.7-4.5,3.1-.3,5.8.4,8.8,1.1,2.1.5,4.3.9,6.4,1.3,1.3.2,2.7.4,4.1.6.7,0,1.4.3,2.1,0,.6,0,1.2-.5,1.7-.8,3.3-1.8,5.6-4.8,6.6-8.4,1.1-4,.7-8.2,0-12.2-.7-4.5-2-8.9-3.3-13.3s-2.7-8.6-3.6-13c-.4-1.8-.7-3.5-.8-5.4,0-1.4-.3-2.5.5-3.7,1.8-2.8,5.7-4.3,8.6-5.6,3.6-1.6,7.5-2.9,10.9-5,1.3-.8,3-1.9,3.7-3.4,1.1-2.4,1.4-5,1.5-7.6.2-5-1.2-10.8.9-15.6,3.4-7.6,12.1-5,18.3-3.3,6.2,1.7,14.2,3.6,18.1-3.2,1.2-2.2,1.7-4.6,2.4-7,1-3.3,2.1-6.6,3.2-9.9,2.2-6.6,4.6-13.1,6-19.9.7-3.2,1.2-6.5,1.4-9.8,0-.7-.3-1.2-.9-1.4-2.5-7-1.3-14.9,2.4-21.2,2-3.4,4.7-6.3,8.1-8.3,1.7-1,3.8-1.6,5.6-2.4s3.6-1.6,5.3-2.5c6.5-3.5,12-8.5,14.7-15.4s2.6-15.1,1.4-22.4c-.9-5.6-2.9-11-3.9-16.6-.8-4.8-.2-9.3,2.8-13.2,2.2-2.9,5.2-5.1,8.2-7.1,1.9-1.3,4.1-2.3,5.8-3.9s3.4-3.4,4.7-5.3c1.3-1.9,2.3-4,2.8-6.2.4-2.4-.5-4.4-1.7-6.4s-1.2-1.9-1.6-3-.3-2.3-.2-3.4c0-2.4.8-4.8,1.8-7,.9-1.9,1.9-3.6,3.8-4.6,1.7-.9,3.7-1.3,5.6-1.7,3.9-.6,8.4-.7,11.9-2.8,7.4-4.5,11-13.1,15-20.4,1-1.8,2-3.6,3.2-5.3,0-.2.2-.3.2-.4,0,0,.2-.2.3-.4h0c2.7-4.8,10.3-5.9,15.2-6.7,5.6-.9,11.3-.9,16.8-2.1,7.4-1.7,7.8-10.7,9.7-16.5,2.2-7.1,8.4-12.5,15.3-15,7.2-2.6,14.9-2,21.3,2.2s11.8,11.1,19.5,14c8.9,3.5,17.1-1.3,24-6.8,8.1-6.3,16.2-12.7,26.3-15.5,4.9-1.4,10-1.7,15-.6,4.9,1.1,9.4,3.4,14.3,4.4,2.1.4,4.6.8,6.7.2,2.1-.6,4.2-1.7,6.3-2.4,3.2-1,6.5-1.9,9.8-2.1,4.5-.3,8.6.8,12.2,3.5,3.3,2.5,6,5.8,9.1,8.6,3.9,3.5,8.2,6.2,13.2,7.8,3.2,1,6.6,1.5,10,1.8,5.1.3,10.2.5,15.3-.1,10.5-1.2,20.6-4.4,30.8-7.3,5.9-1.7,11.8-2.4,17.9-2.7,13.7-.5,28.1.1,41.4,3.9,4.4,1.2,10.7,3.1,13.4,7.2,2.4,3.8,2.2,8.9,4.1,13,1.3,2.9,3.3,6.1,6,8,2.5,1.8,5.2,1.3,6.9-1.1,6.4-4,7.1-12.1,11.3-17.9,2.1-2.9,5.4-4.7,9-4.2,3.6.4,6.5,2.6,9.2,4.7,2.9,2.3,5.6,5,8.4,7.5,3.2,2.7,6.7,4.7,10.8,5.9,9,2.7,18.6,1.9,27.9,1.3,9.9-.7,20.2,0,29.7-3.4,4.1-1.5,7.3-4,10.3-7.1,1.4-1.5,2.8-3.1,4.2-4.6.7-.7,1.3-1.4,2-2.1.8-.7,1.6-1.1,2.6-1.4,1.9-.6,3.9-1.1,5.5-2.4.8-.7,1.1-1.5,1.6-2.3.6-.9,1.2-1.8,1.9-2.6,2.4-2.8,6.5-5.5,10.4-4.8,1.1.2,2.2.7,3.3,1.1s2.2.7,3.3,1c1.7.5,3.4.9,5.1,1.2,2.3.4,4.7.7,7.1.3,3-.5,4.7-2.3,6.5-4.5,2.3-2.8,4.7-4,8.4-4.7,1.5-.2,3-.3,4.5-.4.3,0,.6,0,.8-.2,2.7,0,5.4,0,8-.2,1.3-.1,2.8-.1,3.7-1.2,1.1-1.1.9-3,1-4.4.4-5,.7-11.2,5.1-14.4h0c5.2-.2,8.8,3.7,11.9,7.3,3.4,4.1,6.6,8.3,11.1,11.2,2.5,1.7,5.3,3,7.6,5.1,2.5,2.3,3.6,5.9,4.7,9,2.2,6.4,3.3,13.1,4.2,19.8.8,6.6,1.4,13.3,2.3,19.9.2,1.6.5,3.3.8,4.9.3,1.6.4,2.9,1.7,4.1,2.3,2.2,4.9,4.2,7.6,6,2.7,1.8,5.6,3.7,8.3,5.6,1.3.9,2.6,1.9,4,2.8,1.2.9,2.1,2.1,1.8,3.7-.4,2.8-1.6,5.7-2.5,8.4-.9,2.8-2,5.5-3.3,8.2-1.3,2.5-2.8,5-4.7,7.1-1.7,1.9-3.8,3.9-6.3,4.7-3.4,1-6.3,3.4-8.6,6.1-5.3,6-8.7,14.3-8.9,22.3-.2,6.6,3.3,15.2,11.1,15.4,6.8.1,12.7-4.5,19.3-5.4,2.6-.4,4.8.4,5.8,2.9,1.6,3.8,1,8.4,1.2,12.5.4,8.4,1.6,16.9,4.4,24.9,2.5,7.2,6.5,14.7,13.5,18.4,8.5,4.6,18.6,1.8,26.7-2.3,5.5-2.8,10.5-6.3,15.6-9.6,2.6-1.7,5.3-3.3,8.1-4.6,1.3-.6,2.6-1.2,4-1.7s2-.8,3.3-.2c3.9,1.7,5.3,6.3,5.9,10.2.6,4.2.4,8.6-.4,12.8v-.4.2h.1Z"/>
    <path class="cls-3" d="M2019.9,490.1v68.3h116.4v-68.3h-116.4ZM2032,500h19.8v2.5h-19.8v-2.5ZM2032,511.4h32.5v2.5h-32.5v-2.5h0ZM2032,522.8h41.6v2.5h-41.6v-2.5h0ZM2032,534.2h25.7v2.5h-25.7v-2.5ZM2031.9,545.6h14.8v2.5h-14.8v-2.5Z"/>
    <path class="cls-3" d="M2019.9,487.6h116.4v-15.6h-116.4v15.6ZM2111.3,478.5h16.7v2.5h-16.7v-2.5ZM2048.2,478.5h3.6v2.5h-3.6v-2.5ZM2038.3,478.5h3.6v2.5h-3.6v-2.5ZM2028.4,478.5h3.6v2.5h-3.6v-2.5Z"/>
  </g>
  <g id="VR">
    <path class="cls-9" d="M82.4,1409.1c3.2-5.5,6.3-11,9.5-16.5,2.8-4.9,5.5-10.1,8.7-14.8,2.6-3.7,6.3-7.4,11.2-6.9,3.7.3,7.1,2.7,10.1,4.8,6.1,4.2,12.5,8.5,19.8,4.3,3.3-1.9,7.1-6.4,11.3-5.4,2.4.6,4.1,2.8,6,4.3,1.7,1.3,3.6,2.4,5.7,3,10.3,3.2,21.6-2.6,30.2-7.6l-1.8-.2c5,5.8,5.4,14,7.9,21.1,2,5.9,5.6,10.9,11.5,13.3,5.3,2.2,11.6,2.2,16.9,0,5.8-2.2,9.2-6.3,11.7-11.8,1.3-2.9,2.6-6.3,4.9-8.7,3.2-3.3,6.3-.6,8.8,2.1,6.1,6.5,12.2,13.1,17.1,20.5,2.5,3.8,4.6,7.7,6.4,11.8s3.6,7.7,6.6,10.9c2.9,3.2,6.2,6,9.1,9.3,3.1,3.5,5.8,7.3,8.4,11.2,5,7.2,10.2,14.3,16.4,20.7,5.8,6,12,11.5,18.7,16.6,3.5,2.6,7.1,5.1,10.8,7.5,3.3,2.1,6.7,4.3,10.3,5.8,2.9,1.2,6.3,1.9,9.3.9s4.5-3.7,5.7-6.6c.9-2.3,2-3.8,4.4-4.7,1.8-.6,3.7-.8,5.5-1.4,2.8-.9,5.4-2.4,7.4-4.6,4.1-4.3,5.9-10.4,6.2-16.2.7-16.4-12.1-28.5-19.5-41.9-1-1.9-2.5-4.2-2.3-6.4.2-2.5,2.9-4.1,4.8-5.4,3.5-2.3,7.3-4.2,11.3-5.5,7.9-2.6,16.4-3.1,24.5-1.4,4,.8,8.3,2.1,11.8,4.3,3.8,2.5,5.8,6.5,8.1,10.2,4.2,6.9,10.4,12.1,17.1,16.5,3.5,2.2,7,4.3,10.6,6.3l-.3-2.4c-7.5,6.7-16.6,16.2-13.8,27.3,2.4,9.4,12.3,13.8,20.8,16.4,10.9,3.4,23.3,6.9,34.3,2.1,4.6-2,8.4-5.4,10.5-10.1,2-4.6,3.1-14.2,9.8-14.3,3.3,0,5.3,3.9,6.9,6.3,1.8,2.6,3.5,5.2,5.2,7.9,3.4,5.3,6.6,10.8,9.3,16.5,2.6,5.7,4.7,11.7,5.6,17.9s.5,12.4-.9,18.6c-1.1,5.2-2.5,10.6-1.7,15.9s3.8,8.7,7.9,11.6c2.3,1.6,4.8,3.1,6.6,5.2,2,2.3,3.1,5.1,3.9,8,1.5,5.9,2,12.2,2,18.3,0,11.8-4,24.4-15.4,29.8-10.1,4.8-20-.2-24.8-9.7-5.2-10.4-3.8-21.9-3-33,.9-11.8.3-23.4-6.3-33.6-5.5-8.5-13.6-14.9-22.1-20.2-9.9-6.2-20.6-11.1-31-16.3-10.7-5.3-23-13.1-35.5-10.6-10.6,2.1-17.2,11.8-20.8,21.3-4,10.6-5.1,22.1-3.6,33.3.8,5.7,2.3,11.3,4.6,16.6,2.3,5.6,6.2,10.5,8.1,16.2,1,2.9,1.4,6.1-.3,8.8-1.4,2.2-3.8,3.6-5.9,4.9-4,2.4-7.7,5-9.5,9.5-3.6,9.1,1.6,19.8,6.9,27.2,2.8,3.8,9.1,9.8,5.6,14.8l1.3-.7c-6.6.3-10.7,5.6-14.9,9.9-2.4,2.5-5.1,5-8.7,5.8s-7.3-.2-10.4-2.2c-7.8-4.8-9.9-14.1-8.7-22.7,1.4-9.5,6-18,9.7-26.8,3-7.2,7-17.2,2.8-24.7-3.8-6.7-12.2-8.7-15.9-15.5-3.7-6.7-3.7-14.8-5.5-22s-5.7-12.7-11.5-17.2-12.6-7.6-18.2-12.4c-5.5-4.7-8.2-11.4-13.1-16.5-4.2-4.3-10.7-6.1-15.8-2.1-4.9,3.7-6.8,10.7-6,16.6,1.2,8.9,7.4,16.2,9.7,24.8,2.6,9.8.4,20.1-1.5,29.8-1.5,8.1-2.9,16.3-1.8,24.6.5,3.8,1.5,7.5,3.3,10.9,1.8,3.5,4.5,6,6.9,9,1.4,1.7,2.7,3.8,2,6.1-.7,2.1-2.5,3.8-4,5.3-3.1,3.1-6.6,5.7-10.5,7.6-7.5,3.7-16.3,4.1-23.7,0-3.4-1.8-6.3-4.5-8.1-7.9-2.2-4.1-2.5-8.9-3.7-13.3-1.8-6.6-5.9-11.6-12.1-14.6-5.9-2.8-12.4-3.9-18.7-5.5-3.4-.8-6.8-1.7-10-3.1-3.7-1.5-6.8-3.8-9.9-6.4-3.1-2.6-6.4-5.1-10.3-6.3-3.5-1.1-7.2-1.3-10.9-.8-7.6,1-14.6,5-19.8,10.5-5.8,6.2-9.5,13.9-12.4,21.8-2.9,8.1-4.4,17.7-11.2,23.5-5.6,4.8-13.4,6.2-20.6,5.6-3.7-.3-7.3-1.2-10.8-2.5-4.7-1.8-8.2-4-9.2-9.2-1-4.6-1.2-9.3-2-13.9-.8-4.7-1.9-9.3-3.2-13.9-2.6-9.1-6.1-17.8-10.3-26.3s-9-17.5-9.8-27.4c-.8-10.2,1.7-20.2,4.4-30,1.1-3.9,2-8.7,6.6-9.8,3.8-.9,7.8.8,11,2.7,6.8,4.1,11.7,11.5,19.9,13.2,6.1,1.3,12-2,13.9-8,1.8-5.8,0-12.5-3.1-17.5-3.9-6.3-10.4-10.5-15.3-16-2.7-3-4.7-6.3-5.8-10.3s-2.3-7-5.6-9.5c-3.1-2.3-6.7-4-9.9-6.3s-6-5-8.5-7.9c-5.3-6-9.5-13.1-12-20.7-2.3-7.1-3.2-14.7-1.8-22.2.4-1.9-2.5-2.7-2.9-.8-2.4,12.5,1,25.4,7.5,36.2,3.3,5.4,7.3,10.4,12.1,14.7,2.3,2.1,4.9,4,7.5,5.7,2.8,1.8,6.2,3.2,8.3,5.8,2.2,2.7,2.3,6.6,3.7,9.7,1.3,2.9,3.1,5.4,5.2,7.8,4.2,4.8,9.6,8.5,13.6,13.5,3.3,4.2,5.4,10.4,4.4,15.8-1.4,7-8.3,8.8-14.2,5.8-6.1-3.1-10.3-8.8-16.3-12.1-4.7-2.5-11-4.3-15.7-1-2.4,1.7-3.7,4.4-4.5,7.2-1.2,4-2.2,8.1-3.2,12.2-1.8,7.9-3,16-2,24.1s4,14.7,7.4,21.6c3.7,7.4,7.3,14.8,10,22.6,2.7,7.7,4.7,15.6,6.1,23.7,1.1,6.4.4,15.3,6.1,19.8,4.7,3.7,11.4,5.4,17.2,6.1s12,0,17.4-2.2c5.5-2.3,9.9-6.5,12.6-11.9,3.3-6.6,4.8-14,7.6-20.9,5.4-13.2,15.7-26.6,31.4-26.7,3.4,0,6.8.7,9.7,2.3,3.3,1.8,6,4.5,9,6.8,4.7,3.6,10.2,5.6,15.9,7.1,10,2.6,23.7,3.6,29.1,13.8,3.5,6.5,2.6,14.5,7,20.7,3.5,4.9,8.9,8.2,14.7,9.6,12.8,3,26.6-4,34.2-14.3,4.5-6,0-10.8-4-15.4-4.7-5.3-6.5-12.2-6.7-19.2-.5-15.5,6.6-30.5,4.4-46.1-1-7.5-4.9-13.8-7.9-20.7-2.7-6.1-4.1-12.9-.4-18.9,3.4-5.6,9.8-5.9,14.3-1.4,4.2,4.2,6.6,9.9,10.7,14.2,8.3,8.8,21.8,12.2,28.4,22.7s3,25.6,12.3,35.2c4.3,4.5,11.9,7,13.6,13.5,1.1,4.1-.2,8.6-1.4,12.6s-2.8,7.7-4.5,11.5c-5.5,12.4-13.1,28.7-4.9,41.8,3,4.8,8,8.6,13.7,9.6s10.5-1.3,14.5-5.1c3.8-3.5,7.2-9,12.5-10.3,1.1-.3,2.2,0,3-.8,1-.9,1.5-2.8,1.6-4.1.2-3.1-1.3-6.1-3-8.6-1.8-2.7-4.1-5.2-5.8-8-1.9-3-3.5-6.1-4.5-9.4-1.9-6-2-12.8,3.1-17.3,4.5-3.9,11-5.4,12.9-11.8,1.9-6.7-2.8-13.3-5.9-18.8-7.3-13.2-9.7-28.9-6.8-43.7,2.7-13.6,10.5-30.7,26.8-30,8.3.4,16.1,4.6,23.4,8.2,7.5,3.7,15.1,7.4,22.5,11.3,11.5,5.9,23.2,12.6,31.5,22.7,4.3,5.3,7.3,11.5,8.5,18.2,1.4,8.4.2,17.1-.4,25.5-.8,11.9.3,25.7,9.6,34.4,9.5,8.9,23.3,5.9,31.6-3.1,9.9-10.8,9.5-26.8,7.5-40.4-1-6.7-3.1-12.7-8.6-16.9-2.7-2.1-5.9-3.8-8.2-6.5-2.3-2.9-2.9-6.5-2.7-10.2.4-7.3,3.2-14.3,3.3-21.7s-1.5-14.8-4.1-21.8-6.3-13.7-10.3-20.2c-2.1-3.4-4.4-6.8-6.6-10.1-1.8-2.6-3.5-5.7-6.4-7.1-6-2.8-11.2,3.2-13.2,8.2-1.4,3.6-2.1,7.5-4.5,10.6-2.3,2.8-5.5,4.8-8.9,5.9-7.9,2.6-16.2.9-23.9-1.2-6.3-1.7-12.9-3.4-18.3-7.2s-8.4-9.6-6.6-16.1c1.9-7,7.7-12.5,12.9-17.2.7-.6.5-1.9-.3-2.4-7.4-4.1-14.9-8.3-20.9-14.4s-5.2-6.4-7.4-10c-2-3.4-4.2-6.5-7.6-8.7-6.5-4.2-15.1-5.7-22.8-5.7s-15.6,1.8-22.6,5.2c-3.3,1.6-6.9,3.6-9.4,6.3s-2.5,6.1-1,9.3c3.4,7.8,9.1,14.5,13.6,21.7,4.1,6.5,7.3,13.5,7.1,21.3-.1,6.2-2.4,13.2-7.8,16.8-3,2-6.5,2-9.8,3.3-3.5,1.3-4.8,3.9-6.1,7.2-3.7,9-14.8,1.2-20-2.1-14.8-9.3-28.3-21-38.9-34.9-5.4-7.1-10-14.9-16-21.6-2.9-3.2-6.2-6-9-9.2-3.1-3.6-4.6-7.8-6.6-12-3.6-7.9-9-15-14.6-21.5-2.9-3.3-5.9-6.5-8.9-9.7-2.1-2.2-4.7-4.4-8-3.9-5.8.8-8.2,8.3-10.3,12.8-2.7,5.8-7.4,9.4-13.7,10.4-5.9.9-12.5-.7-16.6-5.3-4.9-5.7-5.3-14-7.6-20.8-1.1-3.2-2.6-6.2-4.8-8.7-.4-.5-1.3-.6-1.8-.2-8.1,4.8-19.4,10.8-29,6.9-4.2-1.7-6.9-6.5-11.6-7.1-4.3-.5-7.6,2.6-10.9,4.8-3.7,2.5-7.2,3.2-11.3,1.3-3.5-1.6-6.5-4.2-9.7-6.2-3-1.9-6.5-3.7-10.2-3.6-4.2,0-7.8,2.4-10.5,5.6-3.9,4.5-6.5,10.1-9.5,15.2-3.7,6.3-7.3,12.7-10.9,19-1,1.7,1.6,3.2,2.6,1.5h0l-.7.6h0Z"/>
    <g>
      <path class="cls-6" d="M280.1,1488.5c1,2.5,1.6,5.2,1.6,8.1h0c0,.3.1.5.1.7v13.1c0,2.8-.5,5.4-1.3,7.9l4.4-1.9c1.6-.7,3.1-1.4,3.1-3.1v-19.6c0-1.7-1.5-2.4-3.1-3.1l-4.8-2.1h0Z"/>
      <path class="cls-6" d="M191.7,1462.3c-10.8,0-19.7,8-21.6,18.5,4-4.2,9.6-6.8,15.7-6.8h73.8c6.2,0,11.8,2.6,15.7,6.8-1.9-10.5-10.8-18.5-21.6-18.5h-62.1.1Z"/>
      <path class="cls-6" d="M228.3,1481.7c1,0,1.8.8,1.7,1.8,0,1-.9,1.7-1.8,1.6h-11c-2.2,0-2.3-3.2-.2-3.4h11.3ZM185.8,1477.3c-10.4,0-18.7,8.6-18.7,19.2s0,.4-.1.7v13.2c0,12.5,9.8,22.7,22,22.7h18.6c2.5,0,4.6-1,6.1-2.4s2.5-3.1,3.4-4.7,1.7-3,2.6-4c.9-.9,1.6-1.4,2.9-1.4s2.1.5,2.9,1.4c.9.9,1.7,2.4,2.6,4s1.9,3.3,3.4,4.7c1.5,1.4,3.6,2.4,6.1,2.4h18.6c12.1,0,22-10.1,22-22.7v-13.1c0-.2-.1-.5-.1-.8,0-10.7-8.3-19.2-18.7-19.2h-73.8.2Z"/>
      <path class="cls-6" d="M165.5,1518.3c-1-2.5-1.6-5.2-1.6-8.1h0c0-.3-.1-.5-.1-.7v-13.1c0-2.8.5-5.4,1.3-7.9l-4.4,1.9c-1.6.7-3.1,1.4-3.1,3.1v19.6c0,1.7,1.5,2.4,3.1,3.1l4.8,2.1h0Z"/>
    </g>
    <g class="cls-21">
      <g class="cls-21">
        <g class="cls-21">
          <g class="cls-21">
            <g class="cls-21">
              <text class="cls-13" transform="translate(41.7 1348.1)"><tspan x="0" y="0">THE ISLANDS O</tspan></text>
            </g>
          </g>
        </g>
      </g>
      <g class="cls-21">
        <g class="cls-21">
          <g class="cls-21">
            <g class="cls-21">
              <text class="cls-13" transform="translate(235 1348.1)"><tspan x="0" y="0">F</tspan></text>
            </g>
          </g>
        </g>
      </g>
      <g class="cls-21">
        <g class="cls-21">
          <g class="cls-21">
            <g class="cls-21">
              <text class="cls-13" transform="translate(257.7 1348.1)"><tspan x="0" y="0">VR PL</tspan></text>
            </g>
          </g>
        </g>
      </g>
      <g class="cls-21">
        <g class="cls-21">
          <g class="cls-21">
            <g class="cls-21">
              <text class="cls-13" transform="translate(331.2 1348.1)"><tspan x="0" y="0">A</tspan></text>
            </g>
          </g>
        </g>
      </g>
      <g class="cls-21">
        <g class="cls-21">
          <g class="cls-21">
            <g class="cls-21">
              <text class="cls-13" transform="translate(348.1 1348.1)"><tspan x="0" y="0">T</tspan></text>
            </g>
          </g>
        </g>
      </g>
      <g class="cls-21">
        <g class="cls-21">
          <g class="cls-21">
            <g class="cls-21">
              <text class="cls-13" transform="translate(362.8 1348.1)"><tspan x="0" y="0">F</tspan></text>
            </g>
          </g>
        </g>
      </g>
      <g class="cls-21">
        <g class="cls-21">
          <g class="cls-21">
            <g class="cls-21">
              <text class="cls-13" transform="translate(376.8 1348.1)"><tspan x="0" y="0">ORMS</tspan></text>
            </g>
          </g>
        </g>
      </g>
    </g>
  </g>
  <g id="GREEN">
    <rect class="cls-12" x="1958.7" y="1285.1" width="1.8" height="30.9" transform="translate(480.4 3129.1) rotate(-84.6)"/>
    <rect class="cls-12" x="1961.2" y="1286.5" width="18.5" height="1.4" transform="translate(503.5 3127.8) rotate(-84.6)"/>
    <path data-url="backend/1/" class="cls-12" d="M1969.5,1297.3l1.6-17.1c-.4.4-1,.6-1.6.7l-1.6,16.3h1.6Z"/>
    <path data-url="backend/1/"  class="cls-12" d="M1971.9,1278.3h1.5c0-.4.4-.8.7-1.1l-2.7-.3c.3.4.5.9.5,1.4Z"/>
    <path data-url="backend/1/" class="cls-12" d="M1969.7,1276.5c-1,0-1.9.6-2,1.6s.6,1.9,1.6,2,1.9-.6,2-1.6-.6-1.9-1.6-2ZM1969.4,1279.7c-.7,0-1.2-.7-1.2-1.4s.7-1.2,1.4-1.2,1.2.7,1.2,1.4-.7,1.2-1.4,1.2Z"/>
    <path data-url="backend/1/" class="cls-12" d="M1969.6,1277.6c-.4,0-.7.2-.8.6s.2.7.6.8.7-.2.8-.6-.2-.7-.6-.8Z"/>
    <path data-url="backend/1/" class="cls-12" d="M1973.8,1280.5h0l-1.6,17.1h1.5l1.6-16.2c-.6,0-1.2-.5-1.4-.9h0Z"/>
    <path data-url="backend/1/" class="cls-12" d="M1975.9,1277.1c-1,0-1.9.6-2,1.6s.6,1.9,1.6,2,1.9-.6,2-1.6-.6-1.9-1.6-2ZM1975.6,1280.3c-.7,0-1.2-.7-1.2-1.4s.7-1.2,1.4-1.2,1.2.7,1.2,1.4-.7,1.2-1.4,1.2Z"/>
    <path data-url="backend/1/" class="cls-12" d="M1975.8,1278.2c-.4,0-.7.2-.8.6s.2.7.6.8.7-.2.8-.6-.2-.7-.6-.8Z"/>
    <rect class="cls-12" x="1968.8" y="1293.6" width="1.4" height="7.8" transform="translate(492.4 3136.2) rotate(-84.6)"/>
    <rect class="cls-12" x="1968.7" y="1294.6" width="1.4" height="9.6" transform="translate(490.4 3137.8) rotate(-84.6)"/>
    <rect class="cls-12" x="1941.9" y="1284.7" width="18.5" height="1.4" transform="translate(487.8 3106.9) rotate(-84.6)"/>
    <path data-url="backend/1/" class="cls-12" d="M1950.1,1295.5l1.6-17.1c-.4.4-1,.6-1.6.7l-1.6,16.3h1.6Z"/>
    <path data-url="backend/1/" class="cls-12" d="M1952.5,1276.4h1.5c0-.4.4-.8.7-1.1l-2.7-.3c.3.4.5.9.5,1.4Z"/>
    <path data-url="backend/1/" class="cls-12" d="M1950.3,1274.7c-1,0-1.9.6-2,1.6s.6,1.9,1.6,2,1.9-.6,2-1.6-.6-1.9-1.6-2ZM1950,1277.9c-.7,0-1.2-.7-1.2-1.4s.7-1.2,1.4-1.2,1.2.7,1.2,1.4-.7,1.2-1.4,1.2Z"/>
    <path data-url="backend/1/" class="cls-12" d="M1950.2,1275.8c-.4,0-.7.2-.8.6s.2.7.6.8.7-.2.8-.6-.2-.7-.6-.8Z"/>
    <path data-url="backend/1/" class="cls-12" d="M1954.4,1278.6l-1.6,17.1h1.5l1.6-16.2c-.6,0-1.2-.5-1.4-.9h0Z"/>
    <path data-url="backend/1/" class="cls-12" d="M1956.6,1275.3c-1,0-1.9.6-2,1.6s.6,1.9,1.6,2,1.9-.6,2-1.6-.6-1.9-1.6-2ZM1956.3,1278.5c-.7,0-1.2-.7-1.2-1.4s.7-1.2,1.4-1.2,1.2.7,1.2,1.4-.7,1.2-1.4,1.2Z"/>
    <path data-url="backend/1/" class="cls-12" d="M1956.5,1276.4c-.4,0-.7.2-.8.6s.2.7.6.8.7-.2.8-.6-.2-.7-.6-.8Z"/>
    <rect class="cls-12" x="1949.5" y="1291.8" width="1.4" height="7.8" transform="translate(476.7 3115.3) rotate(-84.6)"/>
    <rect class="cls-12" x="1949.3" y="1292.8" width="1.4" height="9.6" transform="translate(474.6 3116.8) rotate(-84.6)"/>
    <rect class="cls-12" x="1961.4" y="1258.5" width="1.3" height="30.9" transform="translate(509.1 3107.4) rotate(-84.6)"/>
    <path data-url="backend/1/" class="cls-12" d="M1963.8,1269l-15.8,3.2,30.7,2.9-14.9-6.1h0ZM1954.7,1271.9l8.9-1.9,8.4,3.5-17.2-1.6h-.1Z"/>
    <polygon class="cls-12" points="1963.6 1270.4 1957.1 1271.7 1969.8 1272.9 1963.6 1270.4"/>
    <path data-url="backend/1/" class="cls-12" d="M1933.6,1371.5h.2-.2Z"/>
    <path data-url="backend/1/" class="cls-12" d="M2111.6,1303.8c-.6-5.1-2.2-10.2-3.7-15-1.4-4.6-2.8-9.5-6.1-13.1-2.9-3.2-6.9-5.1-11-6.4-4.3-1.2-8.8-1.9-13-3.2-4.9-1.5-9.2-4.2-14.1-5.6-2.5-.6-4.9-1-7.4-.7-2.1.3-4.2,1-6.3,1.8-4.2,1.6-8.5,3.6-12.9,2-4.6-1.6-8.3-5-13-6.2s-9.6-.6-14.4-.2c-4.9.5-9.8,1.1-14.5-.5-4.6-1.4-8.6-4.4-12-7.9s-6.2-7.8-10.5-10.3-8.9-3.3-13.7-3.2c-5,0-9.9,1.3-14.9,2.1-2.5.4-5.5.8-8,0-1-.3-1.6-.8-2-1.6-.3-.9-.5-1.8-.8-2.6-.2-1.6-.2-3.2-.2-4.7s-2.9-2.2-3-.3c-1.9.3,1.4,138.4,3.3,143,15.6-2.4,28.5-12,43.5-16.3,3.6-1.1,7.3-1.7,11.1-1.9,4.3,0,8.7.6,13,1s8.5.5,12.5-.9c4.3-1.4,7.8-4.5,11-7.4,7.6-6.8,13.5-15.3,21.3-22h.2c-.3.6,0,0,0,0l-.2-.2c.4-.3.8-.5,1.2-.7,1.1-.7,2.5-.6,3.8-.6,2.8-.2,5.8-.5,8.6-.6,5.8-.5,11.5-.8,17.2-1.3,5.5-.4,10.9-.8,16.4-1.5s5.5-.8,8.2-1.4c2.3-.5,4.7-1,6.7-2.4,3.7-2.6,4-7.4,3.5-11.4h.2v.2h0ZM2105.6,1313.4c-2.2,1.1-4.9,1.5-7.2,1.9-5.3,1-10.8,1.5-16.2,2-11.2.8-22.6,1.7-33.8,2.5-1.2,0-2.2.6-3.2,1.3-.3,0-.7,0-1,.4-.2.2-.4.4-.7.5-.2.2-.2.4-.3.7-6.5,5.7-11.6,12.5-17.7,18.6-3.1,3-6.5,6.3-10.3,8.4s-8.1,2.2-12.4,1.8-8.4-1.1-12.7-1.2c-3.8,0-7.6.4-11.3,1.3-7.4,1.8-14.3,5.1-21.3,8.3-6.4,3-14.8-86.4-22.3-119.5.9.3,1.9.4,2.9.5,2.6.2,5.2-.2,7.9-.7,9.3-1.6,20-4,27.7,2.9,1.8,1.7,3.4,3.6,5,5.5s3.3,3.5,5.1,5.1c3.6,3.1,7.7,5.5,12.4,6.4,4.7,1.1,9.6.4,14.4,0,4.9-.5,9.9-1,14.6.8,4.4,1.6,8,5,12.6,6,4.5,1,8.7-.8,12.8-2.4,2.1-.8,4.2-1.6,6.5-1.8,2.5-.3,5,.4,7.3,1.2,4.7,1.6,9.1,4.1,13.8,5.4,8,2.2,18.1,2.7,22.9,10.6,2.7,4.4,3.9,9.7,5.1,14.7,1.2,4.3,2.8,9.2,2.3,13.8-.2,2.1-1.2,3.9-3.1,4.9h.2Z"/>
  </g>
  <g id="MMORPG">
    <g>
      <g class="cls-21">
        <g class="cls-21">
          <g class="cls-21">
            <g class="cls-21">
              <g class="cls-21">
                <text class="cls-16" transform="translate(618.6 614)"><tspan x="0" y="0">THE</tspan></text>
              </g>
            </g>
          </g>
        </g>
        <g class="cls-21">
          <g class="cls-21">
            <g class="cls-21">
              <g class="cls-21">
                <text class="cls-16" transform="translate(704.5 614)"><tspan x="0" y="0">R</tspan></text>
              </g>
            </g>
          </g>
        </g>
        <g class="cls-21">
          <g class="cls-21">
            <g class="cls-21">
              <g class="cls-21">
                <text class="cls-16" transform="translate(730.5 614)"><tspan x="0" y="0">EALMS</tspan></text>
              </g>
            </g>
          </g>
        </g>
        <g class="cls-21">
          <g class="cls-21">
            <g class="cls-21">
              <g class="cls-21">
                <text class="cls-16" transform="translate(618.6 657.2)"><tspan x="0" y="0">O</tspan></text>
              </g>
            </g>
          </g>
        </g>
        <g class="cls-21">
          <g class="cls-21">
            <g class="cls-21">
              <g class="cls-21">
                <text class="cls-16" transform="translate(646.8 657.2)"><tspan x="0" y="0">F MM</tspan></text>
              </g>
            </g>
          </g>
        </g>
        <g class="cls-21">
          <g class="cls-21">
            <g class="cls-21">
              <g class="cls-21">
                <text class="cls-16" transform="translate(756.1 657.2)"><tspan x="0" y="0">O</tspan></text>
              </g>
            </g>
          </g>
        </g>
        <g class="cls-21">
          <g class="cls-21">
            <g class="cls-21">
              <g class="cls-21">
                <text class="cls-16" transform="translate(783.9 657.2)"><tspan x="0" y="0">RPG</tspan></text>
              </g>
            </g>
          </g>
        </g>
      </g>
      <g class="cls-21">
        <g class="cls-21">
          <g class="cls-21">
            <g class="cls-21">
              <g class="cls-21">
                <text class="cls-16" transform="translate(618.4 614)"><tspan x="0" y="0">THE</tspan></text>
              </g>
            </g>
          </g>
        </g>
        <g class="cls-21">
          <g class="cls-21">
            <g class="cls-21">
              <g class="cls-21">
                <text class="cls-16" transform="translate(704.3 614)"><tspan x="0" y="0">R</tspan></text>
              </g>
            </g>
          </g>
        </g>
        <g class="cls-21">
          <g class="cls-21">
            <g class="cls-21">
              <g class="cls-21">
                <text class="cls-16" transform="translate(730.2 614)"><tspan x="0" y="0">EALMS</tspan></text>
              </g>
            </g>
          </g>
        </g>
        <g class="cls-21">
          <g class="cls-21">
            <g class="cls-21">
              <g class="cls-21">
                <text class="cls-16" transform="translate(618.4 657.2)"><tspan x="0" y="0">O</tspan></text>
              </g>
            </g>
          </g>
        </g>
        <g class="cls-21">
          <g class="cls-21">
            <g class="cls-21">
              <g class="cls-21">
                <text class="cls-16" transform="translate(646.5 657.2)"><tspan x="0" y="0">F MM</tspan></text>
              </g>
            </g>
          </g>
        </g>
        <g class="cls-21">
          <g class="cls-21">
            <g class="cls-21">
              <g class="cls-21">
                <text class="cls-16" transform="translate(755.8 657.2)"><tspan x="0" y="0">O</tspan></text>
              </g>
            </g>
          </g>
        </g>
        <g class="cls-21">
          <g class="cls-21">
            <g class="cls-21">
              <g class="cls-21">
                <text class="cls-16" transform="translate(783.7 657.2)"><tspan x="0" y="0">RPG</tspan></text>
              </g>
            </g>
          </g>
        </g>
      </g>
    </g>
    <g>
      <path class="cls-10" d="M1270.2,134.6c-.9-14.4-5.6-24.6-14.2-30.5-2.6-1.8-5.6-2.8-8-3.5-.6-.2-1.2-.3-1.8-.5-2.1-.6-4.3-1.1-6-2.4-3.8-3.1-3.4-9.1-1.1-13.4,1.7-3,4.3-5.5,6.6-7.5,2.4-2.1,5.1-4.5,8.5-5,.8,0,1.5-.6,1.7-1.3,5-2.6,9.3-6.4,12.1-11,3.6-5.8,3-12.7-1.8-20.6-.2-.4-.6-.7-.9-.9h0l-1.1-.3c-1.7-.3-3.4-.6-4.8-1.3-1.5-.8-1.8-1.8-2.3-3.7v-.4c-1.1-3.6-4.4-5.6-9.1-5.6s-.9,0-1.4,0c-10.1.7-19.7,3.6-30.3,6.9-3.8,1.2-8.6,3-12.6,6.5-3.2,2.8-5.8,6.5-7.7,11.2-1,2.5-1.7,5.2-2.3,7.8-.4,1.5-.7,3-1.1,4.5-1.3,4.4-3.4,6.9-6.9,7.9-2.8.9-5.8,1.5-8.7,2-1.5.3-3.1.6-4.6.9-4.1.9-8.8,2-13.5,3.6-4.9,1.7-8.9,3.5-12.4,5.6-4,2.3-7.4,5.4-10.9,8.5-2.9,2.6-6.5,5.5-11.2,6.4-1.7.4-3.6.5-5.8.5s-4.9-.2-7.4-.4h-1.4c-5.6-.7-10.8-1.7-15.8-2.9-3.9-1-7.7-2.1-11.3-3.2-1.2-.4-2.5-.8-3.8-1.1-3.8-1-8.3-2.1-12.8-2.1s-1.5,0-2.2,0c-4.3.4-8.3,1.9-12.6,4.8-1.2.8-2.4,1.7-3.5,2.5-2.2,1.6-4.2,3.2-6.5,4.3s-3.4,1.3-5.4,1.5h-6.6c-2.4,0-4.6.6-6.6,1.8h0l-.6.4c-3.7,3.1-8.6,4.2-13.4,5.2-1.5.3-3,.6-4.5,1-5.4,1.3-10.4,3.9-15.2,6.3-1.8.9-3.6,1.9-5.5,2.7-3.1,1.4-6.9,2.9-10.6,2.9s-5-.8-7.5-1.6c-1.2-.4-2.4-.7-3.5-1-3.3-.9-6.8-1.3-10.3-1.3s-8.7.7-12.7,2c-1.2.4-2.4.9-3.6,1.4-2.4,1-4.7,1.9-7.1,2.2h-1.1c-2.2,0-4.4-.6-6.6-1.3-1.1-.3-2.2-.6-3.3-.9-2.2-.5-4.5-.7-6.8-.7-4.2,0-8.3.8-12.1,2.5-3.1,1.4-5.7,3.1-7.7,5.1-1.3,1.3-2.3,2.8-3.3,4.2s-1.9,2.8-3.1,3.9c-2.2,2.3-5.4,3.4-8.2,4.2-3.3.9-6.7,1.6-10.2,2.1-1.9.3-4.5.7-7,.7s-2.8-.1-4.1-.4c-2.9-.5-6.5-1.5-8-4.3-.3-.5-.5-.9-.7-1.4-.6-1.1-1.1-2.3-2.2-3.3-1.1-1.1-2.5-1.9-4.2-2.5-1.4-.5-2.9-.8-4.5-.8s-4,.3-6.3,1.1c-1.6.5-3,1.2-4.6,1.9l-.8.4c-.3.1-.5.3-.7.4-.9.3-1.9.7-2.8,1-3.8,1.3-7.8,2.7-11.6,4.3-5.1,2.1-8.3,4.9-9.9,8.7-.5,1.3-.8,2.7-1.1,4.2-.6,2.9-1.1,5.6-3.4,7-2.2,1.3-5.2,1.4-8,1.4h-2.6c-3.6.2-8.2.8-11.6,4.3-2.3,2.3-3.6,5.2-5,8-.5.9-.9,1.9-1.4,2.8-2,3.8-4.9,6.7-8.7,8.7-4.3,2.3-9.3,3.3-13.7,3.9-2.1.3-4.2.5-6.3.8-3.4.4-6.8.8-10.2,1.4-1.8.4-3.5.9-5.3,1.3-3.3.9-6.6,1.9-10,1.9s-.6,0-.9,0c-4.6-.3-8.5-3-12.3-5.6l-.5-.4c-4.8-3.4-9.2-5.8-13.5-7.5-2.4-1-5-1.8-7.6-2.4-1-.3-2-.5-3-.6h-.4c-.2-.1-.4-.1-.6-.2-.9-.1-1.5-.2-1.8-.8-.3-.5-.3-1.1-.4-1.9v-.4c0-1.2-.3-2.4-.4-3.4-.3-2-.8-4.1-1.6-6.5-2.9-8.4-8.5-15.7-15.8-20.8-3.4-2.3-7.2-4.1-12.6-5.8-2.3-.7-4.5-1.4-6.5-2.5-1.1-.6-2-1.4-3.1-2.2-.8-.7-1.7-1.3-2.6-2-2.2-1.4-4.9-1.6-6.6-1.6s-.9,0-1.3,0c-2.4,0-5,0-7.4.8-4,1.2-7.9,4.8-7.4,9.9,0,1.4.6,2.5,1.3,3.5-.3,3.1-3.7,5.4-10.4,7-5.6,1.2-11.5,1.7-17.2,2.2h-.5c-2.6.3-5.5.4-8.5.4s-6.3-.1-9.7-.3c-1.1,0-2.2-.2-3.3-.2-3.1-.2-6.2-.5-9.4-.5s-3.9.1-5.7.3c-2.2.3-3.4.4-4.1.6h-.3c-1.2,0-1.5-.2-1.8-.8-.5-1.4-1-2.8-2.2-4-.8-.9-2-1.7-3.6-2.3-2-1.8-4.4-3.5-7.2-3.5s-5.2,1.8-6.2,4.9c-.5,1.5-.6,3-.7,4.5,0,1.5,0,2.8-.6,4-.3.6-.6,1.3-1,1.9-.3.5-.6,1-.8,1.5-.8,1.4-1.5,2.7-2,4.3-.9,2.4-1.8,4.3-4,5.5-1.1.7-2.3,1.2-3.5,1.7-1,.4-2.1.9-3.1,1.4-4.4,2.4-6.8,6.5-9.2,10.5l-.2.3c-2.8,4.7-5.4,7.9-9.8,9.1-2.2.6-4.7.9-7.9.9s-1.2,0-1.5-.2-.5-.6-.7-1l-.2-.3c-.7-1.2-1.5-2.5-2.1-4-1.7-4.9,2.6-7.8,7.1-10.3,4.8-2.7,9.4-6,10.1-11.8.8-6.5-3.3-12.4-7.5-15.8-2.4-2-5.2-3.6-7.9-5.2l-.7-.4c-1.6-.9-3.3-1.9-5-2.8-1.3-.8-2.7-1.5-4-2.3-.2-.2-.4-.4-.7-.5l-.3-.2h-.2c-.4-.1-.7-.3-1.1-.3s0,0,0,0c-1.1-.4-2.4-.6-3.7-.6-4.7,0-9.4,2.6-13.2,4.7l-.8.4c-5.8,3.2-11.2,6.8-16,10.8-2.5,2-5,4.2-7.2,6.6-.2.2-.5.5-.7.7-1.9,2-4.1,4.2-4.4,7.2-.7,5.8,5.1,8.7,9.3,10.7.6.3,1.2.6,1.7.9,4.7,2.5,9.6,5.4,12.9,9.8,1.7,2.4,2.8,4.8,3.3,7.4.2,1.1.4,2.2.6,3.3.4,2.3.7,4.6,1.6,6.8,1,2.7,2.6,5.2,4.8,7.5,1.9,2,4.4,3.4,6.7,4.7l.9.5c2.7,1.6,3.9,3.6,4,6.5,0,2.6-.6,5.3-1.7,8.1-.9,2.3-2.1,4.7-3.2,6.9-1.6,3.1-3.2,6.3-4.2,9.7-.9,3.1-1.3,6.4-1.6,9.5-.4,3.7-.8,7.3-2.1,10.6-.9,2.4-2.3,4.5-4.1,6-1.5,1.3-3.3,1.9-5.4,1.9s-1,0-1.5,0h-.6c-1-.2-2.1-.3-3.1-.3s-3.6.2-5.6,1.8c-2.2,1.8-3.8,5-4.4,8.6-1,4.9-.2,10,.6,14.9,1,6.6,2,12.9-.9,18.7-1,2-2.5,3.5-4.2,4.4-1.9,1-4,1.1-5.8,1.1h-5.7c-3,0-5.2.3-7.3.9-2,.6-3.9,1.6-5.8,2.5-1.1.6-2.2,1.1-3.3,1.6-2.8,1.2-6,1.9-9.8,2.1-2,.1-4.2.3-6.4.3h-2.6c-3.2-.2-5.5-.9-7.3-2s-3.1-3.3-3.5-6c-.4-3.2.3-6.2,1.1-9.5.8-3.2,1.5-6.5,1.2-9.9-.5-5.4-4-11.1-10.4-11.1s-.2,0-.3,0c-2.1,0-4,.8-5.5,2.1h0c-3.9,1.8-7.2,5-10.1,10-1.2,2-2.3,4.2-3.4,6.2-1.3,2.2-2.8,4.6-4.4,7.1-3,4.8-5.7,10-4.8,16,.7,4.7,3.8,8.4,8.8,10.6,1.9.8,3.8,1.4,5.7,1.9,2.3.7,4.5,1.3,6.5,2.3,1.9,1,3.5,2.5,5.2,4,1.9,1.8,3.9,3.6,6.5,4.7,1.8.8,3.7,1.2,5.6,1.7,1.2.3,2.3.5,3.4.9,2.8.9,5.7,1.9,8.7,3.2,2.7,1.1,5.4,2.2,8.2,3.3,3.2,1.3,6.6,2.7,9.9,4.1,1.5.6,3,1.2,4.5,1.8,1.5.6,3,1.3,4.5,1.9,2.7,1.1,5,2.1,7,4.1s3.1,3.5,4.5,5.4c.4.5.7,1,1.1,1.4,2,2.5,4,5,5.9,7.5l.7.9c1.4,1.9,2.9,3.8,4.1,5.8,1.2,2.2,1.7,4.8,1.7,8.1s-.3,4.2-.7,6.3c-.1.7-.2,1.4-.3,2.1-.5,3-1,5.3-1.6,7.5-1.6,5.5-4.3,9.4-8.3,12-1.9,1.2-3.9,2.1-5.9,3.1l-1.4.6c-3.1,1.5-6.2,2.8-9.1,4.1-.6.3-1.1.5-1.7.8-2.2,1-4.5,2-6.5,3.1-2.7,1.4-4.4,3.5-5.3,6.5-.5,1.9-.8,3.9-1.1,5.8-.2,1.2-.4,2.4-.6,3.5-.6,3-1.1,6.2-1.6,9.2l-.3,2c-1.5,8.5-3.1,18.1-9.5,24.1-2.5,2.3-5.7,3.5-9,4.8-1.5.6-3.1,1.2-4.6,1.9-5.1,2.4-8.9,6.4-10.7,11.4-.8,1.9-1.2,4.1-1.2,6.7-.1.4-.2.8-.1,1.3h0c.9,6.3-.9,13.3-4.9,19.6-1.8,2.9-4.2,5.7-7,8-1.3,1.1-2.7,2.1-4.1,2.8-.6.3-1.2.7-1.8,1-1.2.6-2.4,1.2-3.5,2.1-2.6,1.9-4.2,4.7-4.5,8-.3,3.8,1.1,7.9,3.8,10.8,1.7,1.9,3.9,2.9,6.1,3.8,1.5.7,3,1.3,4.3,2.3,2.3,1.8,3.8,4.6,4.5,8.5.3,1.7.3,3.5.3,5.3s0,4.5.5,6.7c.5,2,1.5,3.8,3.1,5.5.5.5.9,1,1.4,1.5.8.8,1.6,1.6,2.2,2.6,1,1.6,1.3,3.5,1.5,5.4h0c.4,2.5.9,4.6,1.8,6.5.5,1.1,1.1,2.1,1.6,3.1.5.8.9,1.6,1.3,2.5.9,1.8,1.6,3.7,2.1,6,.8,3.2,1.2,6.5,1.6,9.8.6,4.9,1.2,10,3.2,14.8,1.8,4.1,4.1,7.3,6.9,9.6,1.8,1.4,3.8,2.6,5.6,3.8,1.1.7,2.2,1.4,3.3,2.1,3.4,2.3,5.3,4.8,6.2,8.1,1.2,4.4,1.7,9,2.1,13.4v.2c.3,2.3.4,4.7.6,7,.4,5.9.7,12.1,2.9,17.6.5,1.2,1,2.3,1.6,3.3v1.2c-.1,0,.1.5.1.5,4.9,8.8,8.2,18.3,9.7,28.5.3,2,.4,4.1.6,6.1.2,2.5.3,5.1.8,7.7.9,4.9,3.7,8.5,7.8,10.1,2.3.9,4.6,1.2,7,1.4,1.8.2,3.7.5,5.5,1,3.1,1,6.1,2.6,9.3,4.9,4.1,3,7.9,6.6,11.5,10.2,1.8,1.7,3.6,3.5,5.4,5.2,7.5,6.7,14,10.6,21.2,12.3,4.4,1.1,9.2,1.5,15.5,1.5h0c2.7,0,5.5,0,8.2-.2h9.4c6.5,0,14.9.5,22.5,4.4,4.4,2.3,8.4,5.3,12.1,8.3l.9.7c3.6,2.8,7,5.5,9.2,9.3.9,1.5,1.7,3.2,2.4,4.8,1.1,2.3,2.2,4.7,3.7,6.9,1.3,1.9,2.8,3.6,4.7,5.1.8.6,1.6,1.2,2.5,1.9,1.1.8,2.2,1.6,3.2,2.4,6.3,5.6,8,14.8,8.7,22.1v1.6c-.2.3-.4.6-.4,1l-.4,2.9.4-.4c.3,2.6,1.6,5.2,3.8,7.3,2.7,2.5,6.4,3.8,11,4,2.8,0,5.5-.4,8.2-.8,1.5-.2,3.1-.5,4.6-.6h2.6c3.3,0,6.2.7,8.6,2.2,1.1.7,2.1,1.4,3.2,2.1,2.1,1.5,4.3,2.9,6.9,4,3.2,1.3,6.6,1.9,10,1.9s1.4,0,2.1,0c2.5-.2,4.4-.6,6.1-1.1h.3c1.8-.7,3.7-1.3,5.5-1.4h.6c3.2,0,6,1.4,7.4,3.7s1.5,5.5.3,8.7c-1.2,3.5-4,6.4-6.2,8.5-1.3,1.2-2.7,2.3-4,3.4-1.6,1.3-3.3,2.7-4.9,4.2-2.9,2.7-5.3,5.5-7.4,8.7-2.4,3.5-3.9,6.9-4.6,10.3-.8,3.5-.9,7.3-.2,11.6.4,2.8,1.2,5.5,1.9,8.2,1.4,4.9,2.6,9.5,2.1,14.3-.5,5.1-3.3,9.1-6.3,13.2-1.3,1.9-2.7,3.8-3.8,5.8-4.5,8.2-4.6,17.6-4.3,24,0,2.1.2,4,.4,6v.3c0,.7.4,1.3.9,1.7,1.9,8.9,3.1,16.6,3.8,23.9.4,4.8.7,9,.8,12.8v3.8c0,3.3,0,6.8.6,10.2.6,3,2,5.4,3.4,7.7.8,1.4,1.6,2.7,2.2,4.2,1.2,2.7,1.9,5.6,2.5,8.5.2,1,.5,2,.7,3,1,3.8,2.1,7.8,4.4,11.3,1.1,1.6,2.4,3.1,3.7,4.6,1.4,1.6,2.8,3.2,4,4.9,1.5,2.4,2.1,5.2,2.8,8.2.2,1.2.5,2.4.8,3.6,1.1,3.9,2.5,7.3,4.2,10.4,3.7,6.8,9,12.5,15,16.1,2.9,1.8,6.1,3.1,10.2,4.1.4,0,.9.2,1.4.3,2.7.6,5.7,1.4,7.2,3.5.5.7.8,1.6,1.2,2.5.4,1,.7,2,1.3,2.9,1,1.5,2.4,2.8,3.9,3.7,3.1,1.9,6.8,2.5,10.4,2.9,2.1.2,4.2.4,6.3.5,2.5.2,5.1.4,7.7.7,1.6.2,2.6,1.3,3.8,2.6.2.2.4.5.6.7,1.3,1.4,2.5,2.9,4,4.8,2.9,3.8,4.5,8.4,5.9,12.4,1.6,4.7,3,8.8,6.2,9.9v.2h1.7c1.3,0,2.5-.5,3.6-1,8.8-4.1,21.3-15.8,29.3-24.6,5.3-4.2,11.5-9.1,18.6-14.8,29.7-23.7,69.8-56.1,110-88.8,26.5-21.6,158.8-129.6,161.9-135.9.3-.6,0-1.1,0-1.3s-.4-.4-.9-.4c-1.1,0-4.3,1.5-13.8,6.3-10,5-23.8,11.9-33.6,15.4l-.5.2c-1.9.7-4.8,1.8-8.6,2.4-6.1,1.1-12.4,1.2-18.6,1.3h-7.3c-12,0-21.7-.6-30.5-1.9-2.1-.3-4.7-.7-6.7-2-1.6-1-2.8-2.6-3.7-4.9-.7-1.9-1-4-1.3-6-.4-2.5-.9-5-1.9-7.4-1.8-4.1-5.3-7.1-10.8-9.4-1.5-.6-3.1-1.2-4.7-1.8-3-1.1-6.2-2.3-9-3.9-9.4-5-16.1-12.6-19.3-21.8-1.8-5.1-2.8-10.6-3.8-15.9-.9-5-1.9-10.2-3.6-15.2-1.1-3.1-2.1-5.5-3.3-7.6-1.4-2.7-3.2-5.1-4.9-7.4-2.7-4-4.9-8.3-7.1-14-.3-.7-.5-1.3-.8-2-1.5-3.9-3.1-8-5.5-11.6-1.5-2.2-3.2-4-5.4-5.9-2.1-1.9-3.6-3.4-4.4-5.7-.8-2.3-.8-4.8-.9-7.3v-9.7c0-5.8.7-11.5,1.8-17.1.7-3.3,1.4-6,2.2-8.4,7.4-6.7,17.7-7.2,27.7-7.6,3.4,0,6.9-.3,10.1-.7,3.5-.4,7-1.1,9.8-3.8.9-.8,1.6-1.7,2.4-2.6,1.2-1.4,2.4-2.8,3.9-3.8,4.5-3,10.2-3.9,15.7-4.8l1.7-.3c3.6-.6,7.3-1,11-1.2,3,0,6-.2,9-1.3,5.9-2,9.2-7.3,9-14.3,0-3.3-1.1-6.4-2-9.4-1-3.4-2-6.7-1.9-10.2.2-5.7,2.7-11.2,7-15.1.3-.3.6-.6,1-.9,1-.9,2.1-1.8,2.9-2.9,1.1-1.4,1.9-3,2.5-5,1.1-4,1.8-8.2,2.4-12.1,0-.6.2-1.3.3-1.9.4-3.3.9-6.3,2.6-9,1.3-2.1,3-4.1,4.7-6.1.8-1,1.6-2,2.4-3,4.6-3.1,8.6-6.1,11.9-10.1,1.7-2.1,3-4.4,4-7.1l.3-.8c.8-2.1,1.5-4.2,3.1-5.6.7-.6,1.5-1.2,2.4-1.8,1.3-.9,2.7-1.8,3.8-3.1,1.6-1.8,3-3.9,4.1-6.4,2.2-5.1,2.9-10.6,3.4-15.4.7-7.2.7-14.6,0-21.9l.9-3.4-.3.3c1.7-8,2.7-16.2,3.6-25.9.4-5,.8-9.9,1.3-15,0-.9,0-1.4.6-1.8.5-.5,1.3-.9,2-1.2.2,0,.4-.2.7-.4,2.1-1.1,4-2,6-2.6,3.8-1.3,7.9-1.9,12.1-1.9s.2,0,.3,0l-.2.2h2.4c3.7,0,8.9-.4,11.7-4.3,1.7-2.4,1.6-5.1,1.5-7.7l-.3-8.9c0-2.7-.5-5.5-2.2-7.7-1.4-1.8-3.3-2.7-5.2-3.5-.3-.2-.7-.3-1.1-.5-5.4-2.5-9.9-5.3-13.2-8.4-2.2-2-3.4-4-3.7-6.4-.5-2.9,0-5.8.6-8.6v-.3c1.6-2.6,3.8-4.8,6-7l1.1-1.1c3.8-3.9,6.1-7.6,7.4-11.8,1.3-4.4,2-9,2.6-13.5,0-1,.3-2,.4-2.9.8-5.7,1.3-11.5,1.8-16.7.4-4.4.9-9,2.5-13.1.4-.2.7-.5.9-1h0c2.1-4.3,4.8-8.4,7.8-12.2,1.3-1.6,2.9-3.4,4.9-4.7,1.8-1.2,3.7-1.9,6-2.6,1.8-.6,3.6-1.1,5.4-1.6,7-2,14.3-4,20.5-8.4,3.7-2.6,6.9-5.8,9.5-9.6,1.1-1.7,2.2-3.6,3.2-5.8,0-.3.2-.6.4-.9.2-.6.5-1.3.8-1.7.4-.6,1.3-.9,2.1-1.1,2.1-.7,3.9-1.3,5.7-2.5,1.2-.8,2.2-1.8,3.2-2.7.5-.5,1-.9,1.5-1.3,1.8-1.6,3.3-2.4,5-2.7,1.8-.4,3.7-.4,5.5-.4h1.9c2.8,0,5.8,0,8.7.2,1.1,0,2.2.1,3.4.2,1.6.1,3.2.3,4.8.3,3.3,0,5.7-.9,7.3-2.7.7-.8,1.1-1.8,1.4-2.7v-1.4h0v-1.1h0v-.5h0v-.5h0v-.4h0c-1.1-4.6-1.3-9.4-.5-14,.3-1.8.7-3.9,2-5.3,1.1-1.2,2.6-1.9,4.2-2.4l1-.4c3.2-1.2,6.6-2.4,9.1-5.2,2.9-3.3,4.5-7.5,4.2-11.4-.3-4.8-2.8-9.2-6.9-12.1h-.2c-2.6-3.7-5.2-7.4-7.7-11.1-1.2-1.8-2.3-3.5-3.1-5.5-.7-1.7-.8-3.5-1-5.4v-.7c-.3-4-.9-8.4-3.1-12.6-1.8-3.6-4.4-6.7-6.9-9.8-3.3-14.4-4.9-29-4.7-43.5.4-8,3.1-15.8,5.8-23.3,1.4-4,2.8-8,3.9-12.1.4-1.4.7-2.9,1.1-4.4,2.1-8.7,4.4-17.7,11.4-23,6.5-4.9,14.5-5.6,20.9-5.6s6.2.2,9.2.3c1.8.1,3.7.2,5.4.3h4.7c11.7,0,23.4-1.3,34.9-3.9,11-2.5,27.1-6.1,30.3-19h.2v-.8c0-.6.2-1.3.3-2,0-.6,0-1.2-.4-1.6v-.2h.3,0ZM1256.4,147.6c-5.2,2.6-11.2,4-17,5.3l-.7.2c-11.2,2.5-22.7,3.8-34.4,3.8s-3.3,0-4.9,0-2.9-.1-4.4-.2c-2.9-.1-5.9-.3-8.9-.3-6.9,0-15.8.7-23.1,5.8-9,6.3-11.9,17.2-14.4,26.9l-.2.9c-1.5,6-3.5,11.8-5.6,17.9l-.3.9c-2,5.8-4.1,12.7-4.7,19.9v.9h0c0,15.2,1.6,30.5,5,45.4.2.7.6,1.3,1.2,1.6,2.3,2.8,4.6,5.8,6.2,9,1.5,3.1,1.8,6.3,2.1,9.7,0,.8.2,1.7.3,2.5.5,4.3,2,8,4.8,12.1,2.4,3.4,4.9,7,8.2,11.6.3.5.7.8,1.2.9h0c2.9,2,4.6,5.2,4.6,8.8s-1.7,6.7-4.5,8.6c-1.6,1-3.3,1.6-5.1,2.3-1.5.5-3,1.1-4.5,1.9-4.4,2.5-5.6,6.9-6.1,10.5-.8,5.1-.6,10.2.5,15,0,.4-.2.8-.3,1.2,0,.5-.2.9-.4,1.3-.3.8-1.5,1.2-3.3,1.2s-.7,0-1,0c-1.3,0-2.7-.1-4.1-.3-1,0-2.1-.2-3.2-.2h-.3c-2.6-.1-5.1-.2-7.8-.2h-1.8c-4.3,0-8.9.2-12.5,2.7-1.3.9-2.5,2-3.6,3-1.8,1.7-3.6,3.3-5.9,4h-.4c-1.9.7-3.8,1.3-5.2,3.1-.9,1.2-1.5,2.5-2,3.8-.3.7-.6,1.4-1,2.1-2.1,3.9-4.9,7.3-8,9.8-6.2,5-14.1,7.1-21.7,9.2-1.2.3-2.4.7-3.6,1-2.3.6-4.9,1.5-7.4,2.9-2.2,1.3-4.3,3.1-6.3,5.3-2.8,3.3-5.4,7.1-7.7,11.2-.5.2-1,.6-1.3,1.1-2.7,4.9-3.6,10.4-4.1,14.7-.3,2.3-.5,4.6-.7,6.9-.3,3-.5,6.1-.9,9.1-.9,6.6-1.8,12-2.8,16.5-.4,2.1-1.1,4.7-2.5,7-1,1.7-2.3,3.2-3.9,4.9-.7.8-1.4,1.5-2.1,2.2-2.7,2.8-5.4,5.7-7.2,9.3-.4.8-.4,1.7,0,2.4h0c-.6,3.9-.9,8.4,1.1,12.3,2.3,4.6,6.8,7.5,10.9,10.1,2,1.3,4.2,2.5,6.9,3.9.4.2.8.4,1.3.6,1.5.7,3.1,1.3,4,2.6.9,1.4,1,3.5,1,5.4v4.1c0,1.9.2,3.6.2,5.4s-.7,3.7-2.3,4.4c-1.9.8-4,.9-5.9.9s0,0,0,0h-2.7c-4,0-7.9.5-11.6,1.6-2.1.5-4.3,1.4-6.8,2.6l-.6.3c-1.9.9-4,1.9-5.4,3.4-1.5,1.7-1.6,4-1.8,6v1.6c-.2,2.4-.4,5-.7,7.4-.4,5.4-.9,10.6-1.5,15.7-.7,6.2-1.8,12-3.1,17.3v1.2c.5,6.4.6,12.5.2,18.6-.3,4.6-.7,10-2.5,15-.8,2.3-1.8,4.1-3,5.7-1.3,1.6-2.8,2.6-4.4,3.8-.3.2-.6.4-.9.6-2.2,1.5-3.7,3.5-4.9,6.5-.2.6-.4,1.1-.6,1.7-.7,1.8-1.3,3.4-2.3,5-2.7,4.3-6.9,7.4-11.1,10.4-.5,0-.9.4-1.3.8h0c-.4.3-.7.7-.9,1.1-.4.5-.8,1-1.2,1.5-1.6,2-3.3,4.1-4.9,6.2-2.1,2.7-3.3,5.7-3.9,9.4-.2,1.2-.4,2.4-.6,3.6-.4,2.4-.8,4.8-1.2,7.2,0,.5-.2.9-.3,1.4-.5,2.6-1,5.6-2.7,7.7-.6.8-1.5,1.5-2.3,2.3-.4.3-.8.7-1.1,1-1.3,1.2-2.4,2.4-3.2,3.6-1.8,2.4-3.2,5.1-4.2,8.2-.9,3.1-1.2,6.2-1,9.1.2,3,1,5.9,1.8,8.6,0,.5.3,1,.4,1.5,1.6,5.2,3.1,12.4-1.8,15.6-2.2,1.4-5,1.7-7.7,1.8h-2c-2.6,0-5.4.3-8,.7h-.7c-6.4,1-12.9,1.9-18.9,4.5-2.8,1.3-5.3,3.1-7.4,5.5-.4.4-.8.9-1.1,1.3-.6.7-1.1,1.3-1.7,1.9-1,.9-2.2,1.5-4,2-3.2.7-6.6.8-9.9,1h-2.5c-4,.2-8.2.4-12.2.9-8.4,1.2-15,4.2-19.8,8.8-.5.5-.7,1-.7,1.6v.4c-3.4,10.5-4.7,22.2-4.3,36,0,3.4.3,6.1.9,8.6.7,2.7,2.2,5.1,4.5,7.3.3.3.7.6,1,.9,1.7,1.5,3.3,2.9,4.6,4.7s2.3,3.8,3.3,5.8l.3.5c.9,2.1,1.8,4.3,2.6,6.4,1,2.6,2,5.3,3.2,7.8,1.4,3,3.3,5.8,5.2,8.4,1.4,2.1,2.9,4.2,4.1,6.4,3.6,6.7,5,14.3,6.4,21.7.6,3.2,1.2,6.5,2,9.7,1.6,6.3,3.5,11.2,6.1,15.2,2.8,4.3,6.3,8.1,10.6,11.5,4.1,3.1,8.8,5.7,13.7,7.5,1,.4,2,.7,3.1,1.1,3.6,1.2,7.3,2.5,9.9,4.9,2.9,2.6,3.5,6.2,4.2,10.1,0,.7.2,1.4.4,2.1,1.2,6.3,3.7,10.2,8,12.3,2.5,1.2,5.3,1.7,7.7,2.1,3.1.4,6.2.7,9.3.9,6.5.5,13.1.8,19.7.9,6.4,0,13,0,19.6-.4,7.7-.5,13.4-1.6,18.7-3.7,4.6-1.8,8.9-4.1,13.1-6.4,1.3-.7,2.5-1.4,3.8-2.1,5.3-2.8,10.7-5.7,16.2-8.5-24.8,19.8-93.1,75.2-159.4,129.3-53.4,43.6-88,72-110.4,90.7-.4,0-.9.5-2.2,1.8,0,0-.2.2-.3.3-15.2,12.7-24.5,20.5-30.1,25.4-2.2,1.4-3.7,2-4.8,2s-.8,0-1.1-.3c-.7-.3-.9-.7-1.3-2.2-.6-1.7-1.4-4.3-4-8.5-2-3.1-4.4-6.4-7.9-10.4l-.4-.6c-1.2-1.5-2.4-3-3.9-4.2-2-1.6-4.3-1.8-6.5-2-1.5,0-3-.2-4.5-.4-3-.2-6-.4-8.9-.8-3.2-.5-6.5-1.3-8.5-3.5-.8-.9-1.3-2.1-1.7-3.3-.2-.6-.4-1.1-.7-1.7-.9-1.8-2.2-3.2-3.9-4.2-2.4-1.5-5.2-2.2-7.9-2.8-.8-.2-1.6-.4-2.4-.6-7.9-2.3-13.4-7.7-16.7-11.8-2-2.6-3.8-5.7-5.4-9.2-1.3-3.2-2.1-6.4-2.9-9.9l-.3-1.1c-.5-2.1-1.1-4.4-2.3-6.6-1-1.8-2.3-3.3-3.8-5-2.9-3.2-5.2-5.9-6.6-9.6-1.1-2.8-1.7-5.5-2.4-8.4-.2-1-.5-2-.8-3.1-1-3.9-2.6-7.8-4.8-11.6-1.1-1.8-2.2-3.8-2.6-6-.3-1.6-.3-3.2-.3-4.8v-2c0-4.1-.2-8.4-.5-13.7-.5-7.8-1.5-16.1-3.3-25.2-.4-2.3-.9-4.7-1.4-7,0-.2-.2-.7-.5-1.1-.5-7.4-.9-15,1.7-21.9,1.3-3.4,3.4-6.5,5.5-9.5s4.2-6,5.6-9.5c2.9-7.4.9-14.9-1.1-22.2l-.2-.9c-1-3.8-2-7.5-1.9-11.2,0-3.2.9-6.7,2.5-9.9,3.3-6.5,8.4-11.1,14.8-16.4,5.3-4.3,11.4-10.4,11.4-18.8s-1.5-7.4-4-9.7c-2.4-2.2-5.9-3.5-9.5-3.5s-.6,0-.9,0c-2.1.2-4.2.7-6.2,1.3-1.9.5-3.9,1.1-5.9,1.2h-1.8c-3.3,0-6.4-.7-9.3-2.1-1.8-.8-3.4-2-4.9-3-1.5-1.1-3.1-2.2-4.9-3.1-2.7-1.3-5.7-2-9.2-2s-2.2,0-3.5.2c-1.2,0-2.5.4-3.9.6-2.7.4-5.4.9-8.1.9-4.4,0-7.3-1.3-9.2-4,0,0,0-.2-.2-.2v-1c-.5-9.2-1.4-18-5.5-25.5-2.5-4.4-6-7.4-9.2-9.6-2.1-1.4-3.7-2.9-4.9-4.4-1.1-1.5-2-3.2-2.9-4.9l-.3-.6-.5-1c-1.9-4-3.7-7.7-6.8-11-3.5-3.8-7.8-6.9-11.6-9.6-3.9-2.9-8.3-5.8-13.1-7.6-4.8-1.9-9.9-2.5-13.9-2.9-2.1-.2-4.3-.2-6.9-.2s-5.6,0-8.3.2c-2.7,0-5.5.2-8.3.2h-5.2c-5.2-.2-9.6-1-13.5-2.4-3.1-1.1-6.3-2.8-10-5.6s-7.2-6.2-10.6-9.5c-7.6-7.4-15.4-15.1-26.3-17.1-1-.2-1.9-.3-3-.4-3.3-.3-6.6-.7-8.5-3.1-2-2.4-2.2-6-2.4-9.4,0-.7,0-1.3-.1-1.9-.7-10.2-3.2-20.2-7.6-29.9-.7-1.5-1.4-3.1-2.1-4.5.2-.7,0-1.3-.4-1.9-4-5.3-4.5-12.2-4.9-18.8,0-1.2-.2-2.5-.3-3.7-.5-5.7-1-10.1-1.7-14.3s-1.4-8.5-4.3-12.1c-2.3-2.9-5.4-4.7-8.3-6.5-3.1-1.9-6-3.6-8.1-6.5-3.9-5.3-4.7-12-5.5-18.6-.2-1.4-.3-2.7-.5-4-.5-3.6-1.4-8.3-3.5-12.7l-1.5-3c-.5-1-1-1.9-1.5-2.8-.8-1.8-1.1-3.5-1.4-5.7-.3-2-.7-4.2-1.9-6.3-.9-1.5-2-2.6-3.1-3.8l-.8-.8c-1.1-1.2-2.2-2.5-2.6-4.4-.3-1.5-.2-3-.2-4.5v-1.7c0-4.2-.8-7.9-2.3-11-1.7-3.5-4.6-6.1-8.8-8-3.3-1.5-5.9-2.9-7.2-6-.8-2.1-1.2-5.3.6-7.4,1-1.2,2.5-2,4-2.8l.5-.3c1.8-.9,3.3-1.8,4.6-2.9,2.9-2.1,5.5-4.7,7.9-7.9,4.6-6.1,7.3-13.4,7.5-20.5,0-1.4,0-2.9-.2-4.4v-.5c0-4.7,2.1-9.2,5.5-12.1,2.3-2,5.3-3,8.3-4.1,2-.7,4.1-1.4,6-2.5,9.1-5,12.4-15.6,14.2-24.2.9-4.2,1.6-8.5,2.3-12.6.3-1.5.5-3.1.8-4.6.1-.8.3-1.5.4-2.3.3-2.1.7-4.3,1.2-6.4.3-1.2.8-2.1,1.6-2.7.8-.6,1.7-1,2.7-1.4.3-.1.5-.2.8-.4,5.7-2.5,11.6-5.2,17.4-7.9,4.5-2.1,9.5-5,12.6-10.3,2.7-4.6,3.8-9.9,4.6-14.8v-.8c1-5.5,2-11.1.2-16.5-1.5-4.5-4.6-8.3-7.7-12-.7-.9-1.4-1.7-2.1-2.5-1-1.2-2-2.5-2.9-3.7-1-1.3-2-2.5-3-3.8-1.7-2.1-3.6-4.3-6.1-5.8-2-1.2-4.3-2.1-6.5-3-.6-.2-1.2-.5-1.7-.7h-.1c-2.9-1.2-5.7-2.4-8.7-3.6-2.2-.9-4.3-1.8-6.5-2.7-3.7-1.5-7.5-3.1-11.3-4.6-3-1.1-6-2.2-9.2-3-.6-.2-1.2-.3-1.8-.4-2.1-.5-4.2-1-5.9-2-1.2-.8-2.3-1.9-3.5-3-.7-.7-1.4-1.4-2.2-2-1.9-1.7-4-2.7-5.9-3.6-1.7-.7-3.4-1.2-5.2-1.7-2.4-.7-4.7-1.4-6.7-2.5s-3.2-2.2-3.9-3.7c-1.2-2.3-1-5-.6-6.9.9-3.7,3.1-7,5.2-10.3.9-1.4,1.8-2.8,2.7-4.2.6-1.1,1.2-2.1,1.8-3.2,1.6-2.9,3.2-6,5.4-8.4,1.2-1.3,2.5-2.3,3.9-3.1.5,0,.9-.3,1.3-.7.4-.2.7-.6.9-1,.7-.5,1.6-.6,2.1-.6s1.4.1,2,.4c2.4,1,3.2,4,3.4,5.2.6,3.3-.2,6.5-1,9.9-.7,2.9-1.4,5.8-1.2,8.9.1,3.4,1.1,6.3,2.9,8.6,1.6,2,3.8,3.5,6.8,4.4,2.3.7,5,1,8.6,1s6.5-.2,9.6-.6c3.3-.4,6.5-1.3,9.8-2.8.9-.4,1.8-.9,2.7-1.3,2.1-1,4-2,6.2-2.5,1.2-.3,2.6-.4,4.4-.4h5.7c2.6,0,5.6-.2,8.6-1.8,4-2.2,6.9-6.7,7.9-12.5.9-5.7,0-11.2-.9-16.6-.5-3-.9-6.3-.7-9.6.2-3.5,1.1-6.1,2.7-7.8.7-.8,1.6-1.2,3-1.2s1.7.1,2.6.3c.7,0,1.4.2,2.1.2h.9c2.8,0,5.3-.9,7.4-2.5,4.2-3.1,6.9-8.2,7.9-15.2.2-1.3.3-2.7.5-4,.2-2.2.5-4.4.9-6.5.6-2.8,1.5-5.6,2.8-8.5.6-1.4,1.4-2.8,2.1-4.2,2-4,4.1-8.1,4.9-12.6.6-3.5.4-6.6-.7-9.2-1.3-3.2-4-5.1-6.6-6.4-3.1-1.7-5.1-3.3-6.7-5.3-1.7-2.3-2.8-4.8-3.3-7.7-.2-.9-.3-1.7-.4-2.6-.4-2.4-.8-4.8-1.6-7.1-1-2.7-2.5-5.1-4.4-7.2-4-4.7-9.3-7.8-13.5-9.9-.5-.3-1-.5-1.6-.8-1.9-.9-3.7-1.8-5.2-3.1-.8-.7-1.2-1.4-1.4-2.1-.1-1,.4-2,1.6-3.3,3.6-4.1,8.1-8.1,13.8-12.2,5.1-3.7,10.8-7,16.4-9.5,1.6-.7,3.6-1.5,5.5-1.5s1.3,0,1.8.3c0,0,.2.1.3.2,1.5.8,3,1.7,4.4,2.5,1.5.9,3,1.7,4.5,2.6,2.6,1.5,5.3,3,7.8,4.7,2.2,1.6,7.2,5.9,7,11.8-.2,4.4-4,6.6-7.8,8.7-.6.3-1.2.7-1.8,1-6,3.6-8.9,8.2-8.1,13.1.3,2.4,1.5,5,3.7,8.1,1.7,2.4,4,2.8,6.2,2.8s1.1,0,1.6,0h.4c4.7-.3,10.7-1.2,15.1-5.7,2-2.1,3.4-4.6,4.9-7,.9-1.6,1.9-3.2,3-4.7,1.3-1.8,2.9-3.2,4.7-4.2.9-.5,1.9-.9,2.9-1.3,1.4-.6,2.8-1.2,4.1-2,3-1.9,4.5-4.7,5.4-6.9.6-1.5,1.2-2.9,2-4.4.8-1.3,1.6-2.7,2.3-4.1.8-1.8.9-3.6.9-5.4s0-2.8.7-3.9c.4-.7.9-.8,1.2-.8,1.4,0,3.3,1.6,4.2,2.3.2.2.4.4.6.5h0s.3.1.4.2c.9.3,1.7,1,2.2,1.8.2.4.4.9.6,1.3.3.8.6,1.7,1.4,2.5,1.1,1.2,2.7,1.8,4.7,1.8s2-.1,2.9-.2h0c2.3-.3,4.8-.5,7.7-.5s8,.3,11.5.6c3.8.3,7.2.4,10.5.4h0c3.3,0,6.5-.1,9.6-.4l1.9-.2c5.6-.5,11.4-1.1,16.8-2.4,3.7-.9,11.9-3.6,13.1-10.3.2-.3.4-.6.5-1,.3-1.1,0-2.2-1-2.9-1.1-.7-.6-2.5-.5-3,.5-1.4,1.7-2.4,3.6-3,2.1-.7,4.2-.7,6.4-.7s2.4,0,3.6.3c1,.2,1.7.8,2.5,1.5l.2.2c3.9,3.4,8.3,4.9,12.7,6.3,4.6,1.5,8.2,3.3,11.4,5.7,6.4,4.7,11.4,11.9,13.5,19.8.5,1.7.8,3.5,1.1,6.1.2,2.1.5,4.5,2.3,6.2,1.5,1.3,3.4,1.6,5.2,1.9.6,0,1.1.2,1.7.3,2.3.5,4.9,1.2,7.4,2.3,4.3,1.7,8.6,4,12.7,6.9l.7.5c3.8,2.6,7.6,5.4,12.4,6.3,1.2.2,2.5.3,3.8.3,4.2,0,8.2-1.1,12.1-2.2h.3c4.9-1.4,10.2-2.1,15.4-2.8h.5c9.2-1.1,19.5-2.8,26.3-10.2,2.3-2.5,3.8-5.5,5.2-8.4.4-.8.8-1.6,1.2-2.4,2.1-4.1,4.3-6,7.4-6.7,2-.4,4-.5,6.1-.5s3.6,0,5.4-.4c4.5-.7,7.9-3.2,9.4-6.9.6-1.4.9-2.9,1.2-4.4.6-2.6,1.1-5.1,3.1-6.9,2.7-2.4,6.2-3.5,9.6-4.6.9-.3,1.7-.6,2.6-.9,1.3-.5,2.6-.9,3.9-1.4,1.3-.5,2.6-.9,3.9-1.4.4-.1.7-.3,1-.6,2.9-1.3,5.9-2.6,9-2.6s.7,0,1,0c1.5.2,2.8.7,3.7,1.4,1,.7,1.5,1.8,2,3,0,.3.3.6.5,1,3.1,6.1,10.8,7.4,16.6,7.4s2.2,0,3.3-.1c3.2-.3,6.4-.9,9.5-1.5l1.8-.3c3.2-.7,6.6-1.5,9.7-3.2,2.9-1.5,5.2-3.7,7.7-7.2,1.4-2.1,3.4-4.7,6.3-6.6,3.8-2.5,8.4-3.8,13.3-3.8s2.3,0,3.5.2c1.8.2,3.5.7,5.3,1.2s3.6,1,5.5,1.3c.7,0,1.4.1,2.1.1,3.4,0,6.6-1.1,9.5-2.2,5.5-2.2,10.7-3.3,15.7-3.3s4.3.2,6.4.6c1.7.3,3.4.9,5.1,1.4,1.9.6,3.9,1.2,5.9,1.5,1.1.2,2.2.3,3.4.3,2.8,0,5.7-.5,8.4-1.5,3.5-1.3,6.9-3,10.2-4.7,3.4-1.8,7-3.6,10.7-4.8,2.5-.9,5.2-1.5,7.9-2,3.8-.8,7.8-1.7,11.4-3.5s2.8-1.6,4.2-2.8c0,0,.2-.2.3-.3,1.6-.8,3.4-.9,5.1-.9h4.1c1.1,0,2,0,2.8-.2,4.5-.6,7.8-2.8,11.1-5.2.7-.5,1.5-1.1,2.2-1.7,2.4-1.8,4.9-3.7,7.7-4.8,2.2-.9,4.7-1.4,7.4-1.4s4.2.2,6.5.7c3.3.7,6.6,1.7,9.7,2.7,1.6.5,3.3,1,4.9,1.5,5.3,1.5,10.5,2.7,15.6,3.4,5.7.9,10.2,1.4,15.2,1.5,6,0,10.4-1,14.1-3.1,2.7-1.6,5.1-3.7,7.4-5.7,1-.9,2-1.8,3.1-2.7,3.3-2.8,7-5.2,11.1-7.1,7.5-3.5,15.8-5.3,23.8-7l1.8-.4c.6,0,1.2-.2,1.7-.4,3.8-.8,8.2-1.6,11.3-4.4,3.3-2.9,4.6-7.3,5.3-10.8,0-.6.3-1.1.4-1.7.8-3.6,1.6-6.9,3.3-10.2,2.1-4,5-7.1,8.6-9.2,3.9-2.1,8.3-3.4,12.6-4.6l.7-.2c4.4-1.3,9.7-2.8,15-3.9,2.3-.5,4.6-.8,7.5-1,.7,0,1.5-.2,2.3-.2,1.2,0,2.1.2,2.8.6.8.4,1,1.5,1.3,2.6.2.8.4,1.6.8,2.3.9,1.7,2.4,3,4.6,4,1.6.7,3.2,1.1,4.8,1.4,1.4,2.5,2.2,4.6,2.6,6.8.5,2.7,0,5.3-1.8,7.8-2.8,4.4-7.2,7.8-12.2,9.8-.4.2-.7.4-1,.7-2.5,1-4.6,2.6-6.5,4.1-2.8,2.3-5,4.5-7,6.9-4.3,5.4-5.8,11.7-4,17.2,1,2.9,2.9,5.3,5.5,6.9,2.2,1.3,4.7,1.9,7.1,2.6.5,0,1.1.3,1.6.4,5.3,1.5,9.8,5.2,13,10.5,4.1,7.1,4.8,15.5,5,21.9v.4c-1.5,4.8-6,7.8-8.8,9.3v.8h.3Z"/>
      <path class="cls-10" d="M893.8,549.7c-6.6-3.3-9-4-13.9-4.5-2.3-.2-3.9-.8-4.8-1.8-.9-.9-2-2.4-2.6-3.4.4,0,.8-.3,1.2-.4,1.5-.5,3.5-1.2,4.5-1.6.7-.3,3.4-.6,6.3-.6s5.1-.2,5.9-.8h.9c4.1.3,6.9.4,8.6.4s0,0,0,0h0c1.9,0,2.6,0,3.2-.6l.4-.5v-.6c0-1.2-.4-2-9.8-3.7-3.6-.7-10.9-1.8-19.6-2.4h-1c-2.2-.2-6.3-.5-11.6-.5s0,0,0,0h0c-4.1,0-8.1.2-12,.5-2.5.3-6.2.6-8,.7-5.1.5-16.7,2.1-24,3.6-9,1.8-15.7,3.7-28.6,8.3-13.4,4.7-20.6,6.8-27.8,6.8s-5.6-.3-9.4-1c-12.2-2-20.2-7-27.7-17.3-3.5-4.9-5.6-9.6-6.6-15.4-1.9-10.7,1.4-17.6,10.2-21.9,2-1,3.6-1.4,5.2-1.4,2.4,0,4.9,1.2,8,3.6,2.3,1.9,4.9,6.8,4.9,8.5s-.6,2.5-1.6,4.5c-.3.6-.7,1.3-1.1,2.2-3.3,6.5-3.8,9.5-2.4,14.2.7,2.7,1.5,3.1,4.1,3.9,3.7,1,4.8,1.9,6.4,5.2,1.1,2.3,1.7,3.6,3.2,3.6h0c1.3,0,2-1.1,2.9-2.7,1.2-.3,6.5-.4,8.9-.4h11.1v-1.5c0-.3.2-1,.4-1.7.4-2.2-1.3-9.5-3.1-10.8-.5-.4-1.1-.6-1.8-.6s0,0,0,0h0c-.9,0-1.8.3-3.2.9-2.6,1-4.3,1.5-5.6,1.5s-2.1-.4-3.1-1.2c2.8-1.1,5.8-4,7.2-6.4,3.7-7.2,2.6-14.1-3.7-24.7-.9-1.4-1.8-3.1-2.5-4.3,1.1,0,2.5.2,3.9.2h1.8c.5,0,0,0,0,0h.2c3,0,4.1-.3,6.8-1.7,3.2-1.6,5.3-3.3,5.3-6.6s-1.3-4.7-4.1-7.5c-2.8-2.6-3.6-4.8-3.1-8.5.6,1.2,1.2,2.4,1.5,2.9,4.3,7.1,10.8,11.3,17.6,11.3s0,0,0,0h0c1.1,0,2.2-.1,3.4-.3,3.7-.8,7.7-2.9,15.5-7.9,6.1-4,9-5.8,11.9-8.8,4.6-4.7,7.2-9.9,12.3-20.3,2.5-5.2,3.3-7.4,3.9-9.9.9-3.6.9-7.4.7-12-.4-9.8-1-12.7-4.2-22.2-1.7-5-2.5-11.7-1.9-14.9,1-4.8,6.7-10.9,11.3-12,.7-.2,1.3-.3,1.8-.3s1.3.1,2.4.5c3.9,1.1,5.9,4,8.5,12.3,1,3.7,2.1,5.9,5.4,10.6,2.6,3.8,3.8,6,4.2,7.6,1.2,6.7,1.9,9.3,3.1,11.3.4.6.9,1.3,1.6,2.1,2,1.8,4.6,2.7,8,2.7s0,0,0,0h0c1.1,0,2,0,2.5-.2,2-.2,5.4-.5,7.5-3.1,1.1-1.5,1.4-3,1.4-3.5,0-1.6-.4-3.1-1.7-5.3l-1.1-1.9.7-2c1.9-5.2,2.7-9.9,2.3-14.4-.2-3.2-1-5.5-2.1-8.7l-.3-.8c-3-8.6-4.3-9.3-5.4-9.3s0,0,0,0h-.5c-.9.2-1.8.9-1.7,5.7-1.6-5.4-5-13.8-5.6-15.1-2.3-5.3-4.8-9.6-8.9-15.1-1-1.4-9.3-11.3-12.5-13.1,0-.2-.2-.4-.3-.5-1.2-1.6-6.3-5.2-8.6-5.2s0,0,0,0h0c-1.4,0-2,.7-2.2,1.2-.6,1.5.6,2.9,3.6,6,3.9,4,6.5,7.8,9.1,13.3,1.6,3.3,1.9,4.5,2.1,7.9-8-9-19.1-19.5-27.1-25.5-1.8-1.4-9.9-6.8-12.6-6.8s0,0,0,0h0c-.4,0-.8.1-1.1.4h0c-1.7,2,0,3.7,8.6,13,2.3,2.4,6.4,6.7,8.8,9.4-1-.2-2-.4-3.2-.6-4.9-1-7.4-1.4-8.9-1.4s0,0,0,0h0c-.9,0-2.2.2-2.6,1.8h0v.3c0,1.2.9,2.4,2.8,3.6,1.7,1,4.1,4.1,4.7,5.2-.6.4-2,.9-2.8,1.2-1.1.4-2.3.9-3.6,1.6-6.4,3-8.1,3.9-8,6,0,2,1.8,2.6,3,2.8l-.5.5c-1.1,1.2-3.4,3.6-5,5.2-2,2-3.1,3.1-3.1,4.3s.2,1.1.7,1.6c.6.7,1.4,1.1,2.6,1.1-.4.8-.9,1.7-1.4,2.6-2.5,4.2-3.3,5.8-2.3,7.4.7,1.4,1.7,1.8,2.6,1.9-.3.8-.7,1.9-1,2.9-4,10.8-3.2,12.3-1.9,13.1.3.2.6.3.9.3s0,0,0,0h0c1.1,0,2.1-1,3-2,.2-.2.4-.4.6-.6,0,.2.3.4.5.6.2.3.7,1,1.3,1.7-.9,1.1-2.9,3.2-3.6,3.6-1.4-.1-2.6-.8-4.4-1.9-1.8-1.1-4.1-2.4-7.6-3.8-1.9-.8-2.9-1-4-1.2-.6-.1-1.3-.3-2.2-.6,0,0-12.6-4.8-20.8-25.3-.4-1-.2-1.7,0-2.1h0c.2-.9.6-1.6,1.2-2.2,3-3.4,7.3-6.3,9-7.4h0c3.4-2,4.5-2.3,4.7-2.4,1.7-.5,3.2-.6,4.1-.6h.8l4,.3h.2l-2.8-2.8c-.6-.6-1.5-1.2-2.8-2.1-6-4.1-10.5-5.3-16.1-6.9h0c-1.2-.4-2.3-.7-3.6-1.1s-3.7-1.9-7.4-4.1c-1.2-.7-2.6-1.6-4.1-2.5-5.4-3.2-8.9-5.5-12-7.6-1.2-.8-2.4-1.6-3.6-2.4-3.1-2-12.7-8-24.4-13.6-7.4-3.5-10.5-4.4-14.1-5.4-3.3-1-7.1-2.1-15.3-5.7-.7-.3-16.6-7.3-25.2-7.3s0,0,0,0h0c-1.4,0-2.5.2-3.4.5l-4.7,1.8,3.8.9c0,1.7,2.1,3.8,6,6.4,1.5,1,2.9,2.4,4.2,3.6,1,1,2,2,3.2,2.9,3.5,2.7,9.1,7.9,13.5,13.6,4.8,6.2,6.8,11.2,5.5,14.2-.4.8-.9,1.4-1.9,2.3-1.3,1.3-3.2,3.1-5.8,7-.8,1.2-1.3,2.1-1.7,2.8-.3.6-.5,1-.8,1.4-3.3,4.2-9,7.6-23.2,14.3-6.6,3.1-11.7,5.4-12.4,5.7-1,0-1.8.9-1.8,2,0,1.7.4,2,13.2,2s14.4.3,17.5.6h.2c3.5.4,5.6,1,6.4,1.7,1.9,2,2.6,5.1,2.2,10.5-.7,9.4-4.3,15.8-15.1,26.6-6.1,6.2-6.9,7.3-6.3,8.7,0,.3.6,1.1,1.8,1.1s0,0,0,0h0c1.9,0,14.7-6.4,21.2-10.4,4.6-2.8,19.8-10,26.2-12.4l5.2-1.9,3,1h0c3,.6,5.8,1.5,8.5,2.8,3.4,1.7,5,3.1,6.6,4.7,1.2,1.1,2.5,2.3,4.4,3.5,4.9,3.1,9.2,3.6,13,4,4.2.4,7.4.8,11.1,4.2,1.1,1.1,3.3,3,3,5.1-.2,2.3-3,4.5-7.6,6.1-3.1,1-4.6,1.2-11.9,1.3-4,.1-18.5.9-20.2,2.4-.5.5-.7,1.3-.4,2.1.4,1.1,1.8,2.4,3.3,2.5.2,0,.6,0,1.1.1.7,0,1.5.2,2.3.2-.4.3-.7.6-.9.8-2,2.1-3.8,2.7-11.9,4.2-3.8.7-12.8,2.7-13.1,6,0,.5,0,1.7,1.8,2.4h.9c.4,0,0,0,0,0h0c.7,0,1.6,0,2.5-.2-.3.3-.6.7-.9,1.1-1,1.4-2.7,2.4-7.3,4.5-7.9,3.7-10.4,5.3-10.4,7.6s.4,1.6,1,2.1c.5.3,1.1.5,1.9.5h0c.9,0,2.1-.3,3.6-.8-.8,1.3-1.4,2.9-1.6,4.2,0,.5-.2.7-2.4,1.5-1.5.5-9.3,4.4-11.2,6.9-.6.1-1.3.6-1.9,1.9-.2.5-1.1,2.8.2,3.9.6.6,1.4.9,2.4.9s0,0,0,0h0c1.5,0,3.5-.8,6-2.3.3-.2.6-.4.8-.5-.5,2.3-1.2,5.4-1.7,6.6-.2.5-1.8,2.7-4.2,5.2-4.7,4.9-6.2,7.6-5.7,9.7,0,.4.4,1.6,1.5,1.9.2,0,.4.1.6.1s0,0,0,0h0c1.1,0,2.1-.7,4.7-2.8.6-.5,1-.8,1.4-1.1,0,.8-.2,1.8-.3,2.8v.4c-.2,2-.8,5.7-1.3,8.2v.4c-1.1,5.1-1.2,5.6-.5,6.4.4.5.9.6,1.3.7l.3.3c.3.2.7.4,1.2.4s0,0,0,0h0c.5,0,1.3,0,2.5-.5.3,0,.5,0,.7-.2,0,1.4.2,3.8.3,7.2.4,9.3.4,9.4.9,9.9h0l.3.2h0c.2.2.5.2.7.2s0,0,0,0h0c1.2,0,2-1.2,2.3-1.7.5-.8,1.5-1.8,2.3-2.5.7,1.9,1.6,5.3,1.9,7.3.6,4.5.8,6.1,2.5,7,.4.2.8.5,1.4.5s0,0,0,0h.6c.9-.2,1.4-1,2-2l.9,1.1c1.6,1.9,2.9,3.9,3.3,4.8,1.4,2.8,2.4,4,3.6,4.3h.6c.5,0,1-.2,1.5-.5.4-.3.8-.8,1-1.3,2.6,1.6,7.1,4.7,7.8,5.3.9.9,1.6,1.5,2.5,1.5s0,0,0,0h.7c.3,0,.7-.4,1-1,6.9,1.7,16.5,2.8,24.6,2.8s0,0,0,0h0c2.8,0,5.4,0,7.6-.4,10-1.3,23.6-5.3,35.5-10.3,19-8,28.2-10.9,38.1-12,2.6-.3,4.4-.5,6.1-.5s4,.3,7.4.9c5.5,1,9.1,2.4,13.6,5.3,5,3.2,8.4,6.7,10.7,11,3,5.7,3.4,6.8,3.8,17.8,0,3.8.5,9.8.8,11.1.2.9,1.1,1.9,2.2,1.9s0,0,0,0h0c1.6,0,2.2-1.8,2.6-3,.9-2.7,1.4-4.2,1.5-6,0-.2,0-.6.2-1,.4-1.7,1.1-4.9,1.7-9.9.9-8,1.9-11.4,3.7-12.2.7-.3,1.6-.5,2.5-.5,3.3,0,6.8,1.8,8.4,4.1.9,1.4,1.2,3,1.4,3.8,0,.7.2,1.3,1,1.7l.7.3h0l.4-.2h.4l.4-.6c.7-1,.7-5.1-.7-8.8-2.1-5.2-6.3-8.1-13.4-11.6l1.6.2h.8,0ZM895.2,557.9h0c-1.4,0-2.7.2-3.9.7-3.1,1.4-4.4,4.9-5.5,14.6-.6,4.9-1.2,7.9-1.6,9.6-.2,1-.3,1.3-.3,1.5,0,.9-.2,1.7-.5,2.8,0-1.8-.3-4.1-.4-6.8-.4-10.9-.8-12.9-4.2-19.2-2.6-4.8-6.3-8.7-11.7-12.2-4.9-3.2-8.8-4.7-14.8-5.7-3.6-.6-5.7-.9-7.9-.9s0,0,0,0h0c-1.9,0-3.8.2-6.6.5-10.2,1.1-19.6,4.1-38.9,12.2-11.7,4.9-25,8.8-34.7,10.1-2,.2-4.4.4-7.1.4-8,0-17.5-1.1-24.1-2.8h-.3c-.4-.2-.8-.3-1.1-.3s0,0,0,0h0c-.4,0-.8,0-1.1.4l-.2.2c-1.7-1.2-9.4-6.7-10.6-6.7s0,0,0,0h0c-1.4,0-1.6,1.2-1.7,2-.3-.4-.6-1-1-1.9-.7-1.7-3-4.6-3.7-5.5l-3.8-4.8v.2l-.2-.2-2,3.9v.2c-.2-.7-.4-2.1-.7-4.2,0,0-1.8-10.8-4.4-10.8s0,0,0,0h0c-1,0-2.6,1.5-3.9,2.9,0-1.2,0-2.9-.2-5.2-.2-9.2-.5-9.5-.9-9.9s-.8-.5-1.3-.5,0,0,0,0h0c-.6,0-1.3.2-2.8.6-.4,0-.7.2-.9.2-.2-.2-.5-.3-.7-.4,0-.8.4-2.2.7-3.6v-.4c.6-2.6,1.2-6.4,1.4-8.5v-.4c.2-1.6.4-3.6.6-4.2.3-1.6-.2-2.3-.8-2.6-.3-.2-.6-.3-1-.3s0,0,0,0h0c-1,0-2.3.7-4.9,2.8-.7.6-1.3,1-1.7,1.3.5-1,1.7-2.7,4.7-5.9,2-2.1,4.2-4.8,4.8-6.1,0,0,3.2-9.9,2-11.5l-.4-.6h-1c-1,0-4.5,2.2-4.5,2.2-2.5,1.5-3.7,1.8-4.3,1.9h0c0-.3,0-.5.2-.6h0c.3,0,.6,0,.8-.2.3-.2.7-.6.8-1.4,1-1,6.4-4.4,9.7-5.6,2.6-1,3.8-1.7,4.3-3.7.5-2.3,2-4.6,2.4-4.9,1.1-.6,1.4-1.3,1.5-1.8,0-.6,0-1.2-.5-1.6-.2-.2-.6-.5-1.5-.5s0,0,0,0h0c-.9,0-2.2.3-4,1-1.1.4-1.8.6-2.3.7,1.6-1.3,6.2-3.5,8.1-4.4,5.2-2.4,7.1-3.6,8.5-5.5.8-1.1,1.9-2,2.4-2.2.6-.3,2.4-1.1,2-2.7-.4-1.2-1.7-1.4-2.7-1.4s0,0,0,0h0c-.7,0-1.7,0-2.8.3-.3,0-.5,0-.8.1,1.7-.7,4.4-1.6,8.6-2.4,8.4-1.5,10.9-2.3,13.5-5,.9-.9,1.7-1.4,2-1.6.9,0,1.8-.4,2.2-1l.6-.7-.3-.8c-.3-1-1.6-1.4-4.6-1.7-1,0-2.1-.2-2.9-.3,3.5-.5,9.9-1.1,15.8-1.2,7.6-.1,9.4-.3,12.8-1.5,7.5-2.6,9.3-6.2,9.6-8.7.4-3.6-2.6-6.3-4-7.7-4.4-4.1-8.6-4.5-12.8-4.9-3.6-.4-7.4-.8-11.7-3.5-1.7-1.1-2.9-2.2-4-3.2-1.7-1.6-3.5-3.3-7.4-5.2-2.9-1.4-6-2.4-9.1-3l-3.9-1.3h0l-6.3,2.3c-6.6,2.4-22.1,9.8-26.8,12.6-5.1,3.1-11.7,6.5-15.8,8.4,1.1-1.1,2.2-2.3,2.9-3,11.3-11.3,15.2-18.2,15.9-28.5.4-6.3-.5-10.1-3-12.8-2-2-2.6-2-8.3-2.6h-.3c-3.2-.3-10.2-.6-17.8-.6s-4.5,0-6.1,0c3.8-1.7,8.3-3.9,8.4-3.9,14.7-6.9,20.6-10.5,24.2-15.1.5-.6.8-1.2,1.1-1.8.4-.7.8-1.5,1.5-2.6,2.5-3.7,4.2-5.4,5.4-6.6,1.1-1,1.9-1.9,2.5-3.3,4.8-11.3-19.7-31.2-19.9-31.4-1-.8-2-1.8-3-2.7-1.4-1.4-2.9-2.8-4.6-4-2.6-1.7-3.7-2.8-4.3-3.5h3.4v-.4c8.4,1.2,21.1,6.7,21.2,6.8,8.4,3.7,12.3,4.8,15.7,5.8,3.5,1,6.5,1.9,13.7,5.3,11.5,5.5,20.9,11.5,24,13.4,1.2.8,2.4,1.5,3.6,2.4,3.1,2.1,6.7,4.4,12.1,7.7,1.5.9,2.9,1.8,4.1,2.5,4.1,2.5,6.4,3.9,8,4.4,1.3.4,2.5.7,3.8,1.1,5.1,1.4,9.1,2.6,14.3,5.9-.5,0-1.1.2-1.6.4-1,.2-3,1.1-5.6,2.7h0c-1.8,1.2-6.4,4.3-9.6,8-.7.8-1.5,1.9-1.8,3.5h0c0,.7-.4,2.1.3,4,8.9,22.1,22.1,26.9,22.6,27.1,1.1.3,1.8.5,2.5.7.9.2,1.8.4,3.5,1.1,3.3,1.3,5.5,2.6,7.2,3.6,2.2,1.3,3.9,2.3,6.3,2.3s0,0,0,0h0c2,0,6.3-5,6.7-6.3.3-.9-.2-1.6-.6-1.9,0,0-.7-.7-1.5-1.9-1.6-2.2-2.2-2.6-2.9-2.6s0,0,0,0h0c-.6,0-1,.2-2.1,1.4.4-1.5,1.1-3.8,2.3-7.3,1.6-4.4,1.9-5.3,1.2-6.3-.3-.4-.9-.7-1.5-.7s0,0,0,0h-1l-.2-.3c0-.5,1.5-3.3,2.3-4.6,1.5-2.7,2.8-4.9,2.8-4.9l1.3-2.3h-2.8s-.9,0-1.8.1h-.5c.5-.5,1.2-1.2,1.8-1.9,1.6-1.6,4-4,5.2-5.4l3.7-4.3-4.6-1.1c-.4,0-.6-.1-.8-.2,1-.7,4.3-2.3,6-3.1,1.2-.6,2.4-1.1,3.4-1.5,2.8-1.2,4.7-1.9,4.7-3.8s-4-6.6-6-7.9c1.5.2,3.5.6,6.2,1.1,1.2.2,5.3,1,6.8,1s0,0,0,0h0c.4,0,.6,0,.8-.2h.2c.4-.4.6-.8.6-1.3,0-1.1-.3-2.1-11.2-13.3-2.1-2.3-4.6-4.9-6.3-6.8,2.2,1.2,5,2.9,7.3,4.6,8.4,6.3,20.2,17.5,28.1,26.8l4.6,5.5v-.3l.2.3-.6-8.9c-.2-4.1-.6-5.6-2.4-9.4-2.7-5.8-5.5-9.9-9.7-14.1s-.4-.4-.6-.6c1.3.8,2.6,1.8,3,2.3,0,.5.3,1,.7,1.3.3.2.6.3,1,.3,1.5,1.2,8,7.8,11.2,12.2,4,5.3,6.3,9.4,8.5,14.5,2.4,5.4,6,15.8,6.3,17.5,0,.7,0,1.4.6,1.9,0,.3.4,1.1.5,2.2.3,2.1.5,3.7,1.9,3.7s0,0,.2,0h1.6v-1c1.1-1.8,1-4.9.9-5.8,0-1.4,0-2.7-.2-3.8.4,1.1.9,2.4,1.5,3.9l.3.8c1,3,1.8,5.2,2,8,.4,4.1-.3,8.4-2.1,13.1l-1.3,3.4,1.9,3.1c1,1.6,1.4,2.6,1.3,3.6,0,.2-.2,1-.8,1.8-1.2,1.6-3.5,1.8-5.4,1.9-.5,0-1.2.1-2.1.1-2.5,0-4.5-.7-5.8-1.9-.5-.5-.8-1-1.2-1.6-1-1.5-1.6-4.2-2.7-10.2-.5-2.1-1.8-4.6-4.6-8.7-3-4.4-4.1-6.4-5-9.8-2.9-9.5-5.4-12.8-10.5-14.3-1.2-.4-2.3-.6-3.3-.6s0,0,0,0h0c-.8,0-1.5.1-2.7.4-5.8,1.5-12.3,8.3-13.5,14.4-.8,3.8,0,10.9,1.9,16.5,3.1,9.2,3.6,12,4,21.4.2,4.3,0,7.9-.7,11.2-.5,2.3-1.3,4.4-3.7,9.3-4.9,10.1-7.4,15.1-11.7,19.5-2.6,2.7-5.4,4.6-11.3,8.4-7.4,4.8-11.2,6.7-14.5,7.5-.9.2-1.7.3-2.6.3-5.6,0-11.2-3.7-14.9-9.8-1-1.9-2.1-4.3-2.4-5.3l-2-7.4v.4l-.2-.4-2.2,7.7c-1.7,6.7-.9,10.3,3.3,14.2,2.1,2.1,3.2,3.9,3.2,5.3s-.6,2.5-3.7,4c-2.4,1.2-3,1.4-5.4,1.4h-1.7c-2.6,0-5.1-.3-5.3-.3s-.5-.1-.9-.1,0,0,0,0h0c-.6,0-1.1.2-1.4.7-.9,1.2-.3,2.3,3.4,8.5,5.7,9.5,6.7,15.6,3.6,21.7-1.5,2.7-5.1,5.3-6.8,5.3s-1.7.6-1.9,1.1c-.5,1.1.4,2,1.2,2.8,1.9,2,3.7,2.9,6,2.9s0,0,0,0h0c1.8,0,3.9-.5,6.9-1.7.9-.4,1.5-.6,1.9-.6.7.9,2.3,6.3,2,7.8,0,.3,0,.5-.2.7h-8.4c-8.9,0-10.4.3-11.3,1.6,0,0-.2.3-.3.5-.2-.4-.3-.7-.5-1-2-4.1-3.8-5.6-8.3-6.8-1.1-.3-1.8-.9-2-1.8-1.2-4-.8-6.3,2.2-12.1.4-.8.8-1.5,1.1-2.1,1.1-2.1,2-3.7,2-5.9s-3.2-8.5-6-10.9c-3.7-3-6.8-4.3-10-4.3s0,0,0,0h0c-2,0-4.2.6-6.6,1.7-10.2,4.9-14,12.9-11.8,25.1,1.1,6.2,3.4,11.4,7.2,16.6,8.1,11,16.6,16.3,29.7,18.5,4.1.7,7.2,1,10.1,1s0,0,0,0h0c7.5,0,15.3-2.3,28.9-7,12.7-4.5,19.3-6.4,28.2-8.1,7.1-1.5,18.6-3.1,23.6-3.6,1.7,0,5.5-.4,8.1-.7,3.8-.3,7.7-.5,11.6-.5s9.1.3,11.2.5h1c5.3.4,10.3,1,14.6,1.7-.2,0-.3.3-.4.4-.5,0-1.6.2-3.8.2s-6.1.3-7.5.8c-1,.4-2.8,1.1-4.3,1.6-1.4.5-2.7,1-2.8,1.1h0l-.7.5v.7c-.4,1.7,3.4,6.1,3.8,6.5,2.1,2.2,2.9,2.4,6.6,2.7,4.5.5,6.7,1.2,12.9,4.3,5.5,2.7,9.1,5,11.1,8.3-2.3-1.7-5.3-2.7-8.2-2.7l-.8-.3h-1.2Z"/>
      <path class="cls-10" d="M874.6,397.3l2.8,3.7v-.2l.2.2,1.7-3.7c2-3.8,2.3-6.5,1.2-8.6-.2-.3-.3-.7-.4-.9v-.2c0-.7-.6-1.5-1.6-2.3-.2-.1-.3-.2-.4-.3-.4-.4-.9-.8-1.7-.8s0,0,0,0h0c-1,0-1.8.7-2.4,2,0,0-.8,1.9-.8,3.1h0c-.2,1.2-.6,3.5.4,5.9.3.8.7,1.5,1.2,2.2h-.2ZM876.2,389.6c0-.4.3-1.2.5-1.8,0,0,0,.1.2.1,0,.7.6,1.7.9,2.2.5,1,.3,2.6-.8,4.9-.2-.3-.4-.6-.5-1-.7-1.6-.4-3.3-.2-4.4h-.1Z"/>
    </g>
  </g>
  <g id="Sandboxes">
    <g class="cls-21">
      <g class="cls-21">
        <g class="cls-21">
          <g class="cls-21">
            <g class="cls-21">
              <text class="cls-22" transform="translate(1115.7 915.5) rotate(-6.5) scale(1.2 1)"><tspan x="0" y="0">THE SANDBOXES</tspan></text>
            </g>
          </g>
        </g>
      </g>
      <g class="cls-21">
        <g class="cls-21">
          <g class="cls-21">
            <g class="cls-21">
              <text class="cls-22" transform="translate(1145.3 928.1) rotate(-6.5) scale(1.2 1)"><tspan x="0" y="0">PENINSULA</tspan></text>
            </g>
          </g>
        </g>
      </g>
    </g>
    <g>
      <path class="cls-2" d="M1301.6,887c-4.5-3.9-10.7-6.1-16.2-8.7-6.5-3-11.5-7.2-14-13.2-2.5-6.1-2.6-12.8-1.7-19.2,1.9-14.6,9-29.9,2.7-44.1-2.8-6.5-8.2-11.8-12.7-17.7-4.7-6.3-7.6-13.2-8.9-20.7-1.3-7.4-1.1-15-.5-22.5.5-5.6,2.1-11.9-.4-17.3-1.1-2.2-3-4.2-5.6-5.2-3.7-1.4-7.9-.6-11.8-.3-9.5.9-19.2,1.3-28.7,1.2-9.6,0-19.2-.6-28.6-1.7-8.1-.9-17.1-3.3-25.4-1.5-15.9,3.4-12.9,18.8-9.3,28.1,2.9,7.7,5.8,15.4,8.7,23.2,1.5,3.7,2.9,7.4,4.3,11.2.7,2,1.4,4.1.7,6.3-.5,1.8-1.7,3.3-3.1,4.8-9.2,9.7-25.2,14.1-39.3,12.2-3.6-.5-7-1.4-10.2-2.7s-6.3-3.3-10.2-2.9-7.1,3-10,5-5.7,4.1-8.3,6.3c-5.1,4.3-9.8,9.2-12,14.9s-1.2,11.5,1.2,17.1c2.3,5.5,6.1,11,6.5,17,.5,6.2-4.7,9.9-9.5,14.1-4.5,4-6.9,8.8-2.8,13.6,2.2,2.6,5.3,4.5,7.2,7.4,1.7,2.9,2.3,6.2,2.2,9.4-.3,14.1-11.8,26.4-13.6,40.4-.8,6.1.4,12.3,4.9,17.1,1,1.1,3,.2,3.1-.9,3.1,1.8,6.1,3.6,9,5.4l-9-5.4c0-.3,0-.6-.3-.9l-.4.4c-10.6-11.2-.6-26.7,4.7-38.5,2.8-6.2,5.1-12.9,4.8-19.5,0-3-.9-6-2.6-8.7-1.7-2.8-4.4-4.8-6.8-7.2-2.3-2.3-3-4.9-.9-7.7,1.6-2.3,4-4.1,6.2-5.9,4.6-4,7.5-8.4,7-14-1.3-11.8-13.2-21.6-7.1-34,2.8-5.6,8-10.4,13.4-14.5,2.8-2.2,5.8-4.3,8.8-6.2,1.8-1.2,3.8-2.1,6.1-1.8,2,.2,3.7,1.3,5.4,2,12,5.4,27.3,5.2,39.9,0,6.2-2.5,12.1-6.3,16.2-11,2.3-2.8,3.5-5.9,2.8-9.2-.7-3.7-2.4-7.3-3.8-10.8-2.8-7.6-5.8-15.2-8.6-22.9-2.1-5.7-4.8-11.6-4.3-17.8.2-2.6,1-5.2,3.1-7.3,2.6-2.7,6.5-3.7,10.3-3.8,4.3-.2,8.5.5,12.8,1.1,4.5.6,9.2,1.1,13.8,1.5,18.5,1.6,36.9,1.1,55.5-.5,3.9-.3,7.7,0,9.7,2.9,1.6,2.3,1.9,5.2,1.8,7.7,0,3.3-.6,6.6-.9,10-.3,3.5-.6,7.1-.5,10.6,0,7.1.9,14.1,3.3,20.8,2.4,6.8,6.6,12.6,11.4,18.3,4.9,6,9.2,11.9,10.1,19.4.9,7.7-.8,15.4-2.5,23-2.7,12.2-5.6,26.1,2,37.3,3.4,5,8.7,8.2,14.6,10.8,5.7,2.6,12.1,4.9,15.9,9.5,4.9,6.2,3,14.8,2.4,21.9-.7,8.1-1.5,16.4-2.1,24.5-.3,3.6-.7,7.3-.5,10.8.2,3.9,1.3,7.4,2.4,11.1,1.8,5.8,4,13.6-1.9,18.8-4.9,4.3-13.1,3.8-19.4,4.8-2.9.5-5.9,1.2-8.4,2.9-2.9,1.8-4.3,4.6-5.6,7.3-1.5,3.1-3.5,5.3-7.1,6.9-3.2,1.4-6.7,2.2-10,3.3-6.6,2.3-11.7,6.1-14.5,11.6-3.3,6.3-3.1,13.1-1.4,19.6,2,7.5,5.6,14.8,8.7,22.1,2,4.8,4.1,9.7,6.1,14.5l-2.9-1.7c1,.6,2,1.2,2.9,1.7,1.1,2.6,2.2,5.1,3.3,7.7.8,1.7,3.9.6,3.2-1.1-.5-1.2-1-2.4-1.6-3.7l.3.2s-.2,0-.3-.2c-2.8-6.5-5.5-13-8.3-19.5-3.3-7.7-7.3-15.4-8.8-23.4-1.2-6.5-.3-13.8,4.8-19.4,4.8-5.2,12.3-6,18.8-8.7,3.1-1.2,5.9-2.8,7.8-5.2,2.2-2.8,2.7-6.3,5.4-8.8,4.7-4.2,13.2-3.4,19.3-4.6,6.7-1.2,12-4.4,14-10.1,2.4-7-.9-13.5-2.5-20.2-2-7.9-.5-16.2.2-24.3s1.6-16.4,2.1-24.6c.4-6.6-.3-13.2-5.8-18.1h-.2,0Z"/>
      <polygon class="cls-2" points="1226.5 838.9 1226.5 838.9 1226.6 838.9 1226.5 838.9"/>
      <path class="cls-2" d="M1218.4,862.5l.5,4.5,5.4-.6-.5-4.5,5.2-.6-2.6-22.4-5.1.6-1.5-13.5-16.3,1.9-.5-4.3-27.2,3.1.5,4.3-5.4.6.3,2.3.2,2.1,5.3-.6.5,4.5,21.7-2.5.5,4.5-5.4.6.5,4.5-5.4.6.5,4.5-5.4.6.5,4.5-5.4.6.5,4.5-5.4.6.5,4.5-5.4.6.5,4.5-5.4.6.5,4.5-5.4.6,1,8.9,10.9-1.2-.5-4.4,5.4-.6-.5-4.5,5.4-.6-.5-4.5,5.4-.6-.5-4.5,5.4-.6-.5-4.5,5.4-.6-.5-4.5,5.4-.6-.5-4.5,5.4-.6-.5-4.5,5.4-.6,2.1,17.9,5.4-.6h0Z"/>
      <path class="cls-2" d="M1245.5,1068.4c-1-.6-2.1-1.2-3.2-1.9l3.2,1.9Z"/>
      <path class="cls-2" d="M1242.2,1066.5l-.7-.4c.3.2.5.3.7.4Z"/>
      <path class="cls-2" d="M1246.8,1069.2s-.3-.2-.4-.2l.4.2Z"/>
      <path class="cls-2" d="M1246.4,1069l-1-.6c.3.2.7.4,1,.6Z"/>
      <path class="cls-2" d="M1258.5,1076.2h0Z"/>
      <path class="cls-2" d="M1241.5,1066c-.7-.4-1.5-.9-2.2-1.3l2.2,1.3Z"/>
      <path class="cls-2" d="M1258.5,1076.2h0Z"/>
      <path class="cls-2" d="M1227.1,1057.4l-1.5-.9c.5.3,1,.6,1.5.9Z"/>
      <path class="cls-2" d="M1225.5,1056.5c-1.6-1-3.3-2-5.1-3.1l5.1,3.1Z"/>
      <path class="cls-2" d="M1233.6,1061.3l-2.7-1.6c.9.6,1.9,1.1,2.7,1.6Z"/>
      <path class="cls-2" d="M1230.9,1059.7c-1.2-.7-2.5-1.5-3.8-2.3l3.8,2.3Z"/>
      <path class="cls-2" d="M1237.8,1063.8c-1.3-.8-2.7-1.6-4.1-2.5l4.1,2.5Z"/>
      <path class="cls-2" d="M1257.8,1075.7h.2-.2Z"/>
      <path class="cls-2" d="M1256.1,1074.7l.3.2s-.2,0-.3-.2Z"/>
      <path class="cls-2" d="M1255.7,1074.5s.3,0,.4.2l-.4-.2Z"/>
      <path class="cls-2" d="M1256.4,1074.9c.2,0,.4.2.6.3l-.6-.3Z"/>
      <path class="cls-2" d="M1258.5,1076.2h0Z"/>
      <path class="cls-2" d="M1255.3,1074.3l.4.2s-.2,0-.4-.2Z"/>
      <path class="cls-2" d="M1255,1074s.2,0,.4.2l-.4-.2Z"/>
      <path class="cls-2" d="M1256.9,1075.2l.8.5c-.2,0-.5-.3-.8-.5Z"/>
      <path class="cls-2" d="M1258.5,1076.2h0Z"/>
      <path class="cls-2" d="M1220.4,1053.5l-12.7-7.6c4.7,2.8,8.9,5.3,12.7,7.6Z"/>
      <path class="cls-2" d="M1258.5,1076.2h0Z"/>
      <path class="cls-2" d="M1258,1075.9c.3.2.5.3.5.3l-.5-.3Z"/>
      <path class="cls-2" d="M1258,1075.9h0Z"/>
      <path class="cls-2" d="M1239.2,1064.7l-1.4-.9c.5.3,1,.6,1.4.9Z"/>
      <path class="cls-2" d="M1119.7,993.4l-7.1-4.2c2.4,1.4,4.8,2.8,7.1,4.2Z"/>
      <path class="cls-2" d="M1141.5,1006.4l-11.7-7c4,2.4,7.9,4.7,11.7,7Z"/>
      <path class="cls-2" d="M1129.8,999.4c-3.3-2-6.6-4-10.1-6l10.1,6Z"/>
      <path class="cls-2" d="M1143.2,1007.4c-.6-.3-1.1-.7-1.7-1l1.7,1Z"/>
      <path class="cls-2" d="M1148.1,1010.3l-4.9-3c1.7,1,3.3,2,4.9,3Z"/>
      <path class="cls-2" d="M1159.7,1017.2c-3.7-2.2-7.6-4.5-11.6-6.9l11.6,6.9Z"/>
      <path class="cls-2" d="M1084.3,972.2c-1.2-.7-2.4-1.5-3.7-2.2l3.7,2.2Z"/>
      <path class="cls-2" d="M1080.6,970l-4.7-2.8c1.6.9,3.1,1.9,4.7,2.8Z"/>
      <path class="cls-2" d="M1075.9,967.3c-2.2-1.3-4.5-2.7-6.8-4l6.8,4Z"/>
      <path class="cls-2" d="M1162.5,1018.9l-2.8-1.7c.9.6,1.9,1.1,2.8,1.7Z"/>
      <path class="cls-2" d="M1106.2,985.3l-21.9-13.1c7.6,4.6,14.9,8.9,21.9,13.1Z"/>
      <path class="cls-2" d="M1112.6,989.1c-2.1-1.3-4.2-2.5-6.4-3.8l6.4,3.8Z"/>
      <path class="cls-2" d="M1179,1028.7l-3.9-2.3c1.3.8,2.6,1.6,3.9,2.3Z"/>
      <path class="cls-2" d="M1199.9,1041.2c-1.2-.7-2.5-1.5-3.8-2.3l3.8,2.3Z"/>
      <path class="cls-2" d="M1196.1,1038.9l-.5-.3c.2,0,.3.2.5.3Z"/>
      <path class="cls-2" d="M1200.4,1041.5l-.6-.3c.2,0,.4.2.6.3Z"/>
      <path class="cls-2" d="M1203.4,1043.3c-1-.6-1.9-1.2-2.9-1.7l2.9,1.7Z"/>
      <path class="cls-2" d="M1205.4,1044.5l-2-1.2c.7.4,1.4.8,2,1.2Z"/>
      <path class="cls-2" d="M1195.6,1038.6c-1.6-.9-3.1-1.9-4.8-2.8l4.8,2.8Z"/>
      <path class="cls-2" d="M1175.1,1026.4c-2.7-1.6-5.6-3.3-8.5-5.1l8.5,5.1Z"/>
      <path class="cls-2" d="M1166.2,1021.1c-1.2-.7-2.5-1.5-3.8-2.2l3.8,2.2Z"/>
      <path class="cls-2" d="M1166.6,1021.3l-.3-.2s.2,0,.3.2Z"/>
      <path class="cls-2" d="M1207.7,1045.9c-.7-.4-1.5-.9-2.3-1.4l2.3,1.4Z"/>
      <path class="cls-2" d="M1190.8,1035.8l-7-4.2c2.4,1.4,4.7,2.8,7,4.2Z"/>
      <path class="cls-2" d="M1183.9,1031.6c-1.6-.9-3.2-1.9-4.9-2.9l4.9,2.9Z"/>
    </g>
  </g>
  <g id="KIDS">
    <g class="cls-21">
      <g class="cls-21">
        <g class="cls-21">
          <g class="cls-21">
            <g class="cls-21">
              <text class="cls-17" transform="translate(765.5 1410.1)"><tspan x="0" y="0">T</tspan></text>
            </g>
          </g>
        </g>
      </g>
      <g class="cls-21">
        <g class="cls-21">
          <g class="cls-21">
            <g class="cls-21">
              <text class="cls-17" transform="translate(783.9 1410.1)"><tspan x="0" y="0">H</tspan></text>
            </g>
          </g>
        </g>
      </g>
      <g class="cls-21">
        <g class="cls-21">
          <g class="cls-21">
            <g class="cls-21">
              <text class="cls-17" transform="translate(799.2 1410.1)"><tspan x="0" y="0">E KINGDOMS OF</tspan></text>
            </g>
          </g>
        </g>
      </g>
      <g class="cls-21">
        <g class="cls-21">
          <g class="cls-21">
            <g class="cls-21">
              <text class="cls-17" transform="translate(774 1438.9)"><tspan x="0" y="0">KID</tspan></text>
            </g>
          </g>
        </g>
      </g>
      <g class="cls-21">
        <g class="cls-21">
          <g class="cls-21">
            <g class="cls-21">
              <text class="cls-17" transform="translate(820.8 1438.9)"><tspan x="0" y="0">S</tspan></text>
            </g>
          </g>
        </g>
      </g>
      <g class="cls-21">
        <g class="cls-21">
          <g class="cls-21">
            <g class="cls-21">
              <text class="cls-17" transform="translate(831.9 1438.9)"><tspan x="0" y="0">/</tspan></text>
            </g>
          </g>
        </g>
      </g>
      <g class="cls-21">
        <g class="cls-21">
          <g class="cls-21">
            <g class="cls-21">
              <text class="cls-17" transform="translate(847.5 1438.9)"><tspan x="0" y="0">TEENS MMO</tspan></text>
            </g>
          </g>
        </g>
      </g>
      <g class="cls-21">
        <g class="cls-21">
          <g class="cls-21">
            <g class="cls-21">
              <text class="cls-15" transform="translate(1000 1438.9)"><tspan x="0" y="0">S</tspan></text>
            </g>
          </g>
        </g>
      </g>
    </g>
    <g>
      <path class="cls-11" d="M834.1,1314.3h-.2c-4.8-20.1-14.9-37.4-36-37.4s-31.2,17.3-36,37.4c-3.8,2.6-16.4,12.4-16.4,27.3s0,8.7,3.5,8.7,6.9-4.6,9.1-7.1c-.3,5.1-.3,9.8-.3,14.1,0,24.5,21,24.5,40.2,24.5-15.7,0-26.2-3.5-26.2-15.7s7-19.2,26.2-19.2,26.2,7,26.2,19.2-10.5,15.7-26.2,15.7c19.2,0,40.2,0,40.2-24.5s0-12.5,0-13.8c2.3,2.6,6.4,6.8,8.8,6.8s3.5-3.5,3.5-8.7c0-14.9-12.6-24.7-16.4-27.3h0ZM797.8,1341.7s-21,0-21-3.5,0-.6,0-.9v-.3c0-.2.2-.4.2-.6s.2-.2.2-.4.2-.3.3-.5c0,0,.2-.2.3-.4,0,0,.3-.3.4-.4.2,0,.3-.3.5-.4h.4c.2,0,.3-.2.5-.3.2,0,.4-.3.6-.4.2,0,.3-.2.5-.3.2,0,.5-.3.7-.4,0,0,.3,0,.4-.2.3,0,.6-.3.9-.4,4.3-1.9,10.2-2.9,15.1-2.9s10.8,1.1,15.1,2.9c.3,0,.6.3.9.4,0,0,.3,0,.4.2.2,0,.5.3.7.4.2,0,.3.2.5.3.2,0,.4.3.6.4.2,0,.3.2.5.3.2,0,.3.2.5.4.2,0,.3.3.4.4s.2.2.3.4c0,.2.2.3.3.5,0,0,.2.2.2.4s.2.4.2.6v1.2c0,3.5-21,3.5-21,3.5h.4,0ZM816.3,1329.9h-.2c-5.6-2.9-13.5-4-18.1-4s-12.6,1.1-18.1,4c-4.3-4-6.3-9.1-6.3-12.8,0-7,1.8-14,10.5-14s8.7,3.5,14,3.5,5.2-3.5,14-3.5,10.5,7,10.5,14-2,8.8-6.3,12.8h0ZM837.9,1343.2s.2.2.2.3c0,.7,0,1.6-.2-.3Z"/>
      <ellipse class="cls-11" cx="806.7" cy="1317.1" rx="3.5" ry="5.2"/>
      <ellipse class="cls-11" cx="789.2" cy="1317.1" rx="3.5" ry="5.2"/>
      <path class="cls-11" d="M1247.6,1470.2c-.4-8.1-3.2-15.9-4.9-23.8-1.8-8.5-2.6-17.1-3.2-25.7-1-15.4-1.4-31.2-5.9-46-3.6-11.8-9.7-23.5-19.4-31.7-4.6-3.9-9.9-6.7-15.8-8.5-5.6-1.7-11.6-2.7-16.8-5.6-2.6-1.4-4.8-3.4-6.1-6-1.8-3.8-1.2-8.2-.5-12.3,1.2-6.5,1.9-12.6.3-19.1-2.9-11.6-11.5-21.7-22.4-26.7-6.1-2.7-12.7-3.3-19.3-2.8-8.4.7-16.8,2.7-25.2,1.2-13.4-2.2-27.3-9.3-39.5,0-2.9,2.2-5.6,5-9,6.3-4,1.5-8.2.6-12-1.3-7.5-3.7-13.9-9.9-20.3-15.2-6.8-5.6-13.8-11.1-20.6-16.7-5.4-4.4-10.9-9.2-15.1-14.7-4.1-5.3-7.3-11.6-7.2-18.4,0-7.1,4.7-14,.7-20.8-3.1-5.5-9.2-9.7-14.6-13-5.8-3.6-12.3-6.3-18.9-7.9-6.6-1.7-13.6-2.4-20.4-1.9-7.3.4-14.1,2.5-21,4.5-4.1,1.2-8.3,2.2-12.7,1.8-3.4-.2-6.8-1.2-10.2-2.2-5.5-1.6-12.1-3.8-17.7-1.7-2.5,1-4.5,2.8-5.9,5.1-1.9,3.1-2.9,6.4-6.2,8.3-5.6,3.3-13.3,3-19.5,4.5-13.2,3.1-25.2,9.7-36.7,16.6-11.9,7.2-23.3,14.9-36,20.6-6.4,2.9-13.6,4.3-19.9,7.3-6.7,3.1-9.4,9.2-14.2,14.4-3,3.4-10.3,7.1-13.7,2.6,1-.9-1.7-2.4-1.7-2.4-13.2,6.3-25.3,14.8-35.7,25.1-10.1,10.1-20.9,22.4-20.1,37.5.4,8.1,3.2,15.9,4.9,23.8,1.8,8.5,2.6,17.1,3.2,25.7,1,15.4,1.4,31.1,5.9,45.9,3.6,11.8,9.7,23.5,19.3,31.6,4.6,3.9,9.9,6.7,15.7,8.5,5.6,1.7,11.5,2.7,16.7,5.6,2.6,1.4,4.8,3.4,6.1,6,1.8,3.8,1.2,8.2.5,12.3-1.2,6.5-1.9,12.6-.3,19.1,2.9,11.6,11.4,21.7,22.3,26.6,6.1,2.7,12.6,3.3,19.2,2.8,8.4-.7,16.7-2.7,25.1-1.2,13.3,2.2,27.2,9.3,39.3,0,2.9-2.2,5.6-5,9-6.3,4-1.5,8.2-.6,11.9,1.3,7.5,3.7,13.8,9.9,20.2,15.2,6.8,5.6,13.7,11.1,20.5,16.7,5.4,4.4,10.8,9.2,15,14.7,4.1,5.3,7.3,11.6,7.2,18.4,0,7.1-4.7,14-.7,20.8,3.1,5.5,9.2,9.7,14.5,13,5.8,3.6,12.2,6.3,18.8,7.9,6.6,1.7,13.5,2.4,20.3,1.9,7.3-.4,14-2.5,20.9-4.5,4.1-1.2,8.3-2.2,12.6-1.8,3.4.2,6.8,1.2,10.1,2.2,5.5,1.6,12,3.8,17.6,1.7,2.5-1,4.5-2.8,5.9-5.1,1.9-3.1,2.9-6.4,6.2-8.3,5.6-3.3,13.2-3,19.4-4.5,13.1-3.1,25.1-9.7,36.5-16.6,11.8-7.2,23.2-14.9,35.8-20.6,6.4-2.9,13.5-4.3,19.8-7.3,6.7-3.1,9.4-9.2,14.1-14.4,3.2-3.6,11.3-7.6,14.3-1.5.4.8,1.1.9,1.8.6.5.7,1.6,1.3,1.6,1.3,13.3-6.3,25.4-14.8,35.9-25.1,10.2-10.1,21-22.4,20.2-37.6v-.2h0ZM1240.2,1487.5c-3.8,6.5-9,12.3-14.3,17.6-5.3,5.3-11.1,10.2-17.2,14.4-5.7,3.9-11.7,7.4-17.9,10.4v-.4c-2.2-4.4-7.4-5.2-11.8-3.9-6,1.8-9,7.2-12.5,11.8-2.4,3.2-5.2,5.6-8.8,7.2-3.3,1.4-6.8,2.3-10.2,3.4-6.3,2.1-12.3,4.9-18.1,8.1-12,6.5-23.2,14.3-35.2,21-6,3.3-12.1,6.4-18.5,8.7-6.3,2.3-12.7,3.4-19.3,4.4-6,.9-11.7,2.8-14.8,8.4-1.7,3-3,6.4-6.5,7.7-2.9,1.2-6.3.7-9.3,0-6.4-1.4-12.6-4.2-19.3-4.1-7.7,0-14.9,3.4-22.3,5.1-13.7,3.1-28.5,1.1-41.2-5-6.2-3-12.2-7-16.9-12.1-3.1-3.4-4-7-3.1-11.6.8-3.4,1.9-6.8,2-10.3.4-13.1-9.6-23.9-18.8-32-6.1-5.3-12.5-10.3-18.8-15.4-6.5-5.3-12.9-10.7-19.5-15.8-5.5-4.2-12.3-8.4-19.5-6.9-6.7,1.3-10.7,7.6-16.7,10.2-6.9,2.9-14.8.9-21.7-.9-7.3-1.9-14.4-3.5-22-2.9-8.1.6-16.2,2.7-24.3,1.5-6.2-1-12.1-3.9-16.8-8s-8.5-9.5-10.7-15.5c-2.4-6.5-2.3-12.9-1-19.6,1.2-6.3,2.1-13.1-2.2-18.5-3.3-4.2-8.5-6.2-13.4-7.7-5.8-1.8-11.8-2.9-17.2-5.9-5.6-3.1-10.4-7.5-14.2-12.6-18.6-24.8-14.2-57.2-18.6-86-1.2-8.2-3.8-16-5.4-24.1-1.7-8.5-1-16.4,3.5-24,3.8-6.5,9-12.3,14.2-17.6,5.3-5.3,11-10.2,17.1-14.4,5.2-3.6,10.6-6.8,16.2-9.6,2.5,3.5,7.2,4.1,11.2,2.9,6-1.8,9-7.2,12.6-11.8,2.4-3.2,5.2-5.6,8.8-7.2,3.3-1.4,6.8-2.3,10.3-3.4,6.3-2.1,12.4-4.9,18.2-8.1,12.1-6.5,23.3-14.3,35.4-21,6-3.3,12.2-6.4,18.6-8.7,6.3-2.3,12.8-3.4,19.4-4.4,6-.9,11.8-2.8,14.9-8.4,1.7-3,3-6.4,6.5-7.7,2.9-1.2,6.3-.7,9.3,0,6.4,1.4,12.7,4.2,19.4,4.1,7.7,0,15-3.4,22.4-5.1,13.8-3.1,28.6-1.1,41.4,5,6.2,3,12.3,7,17,12.1,3.1,3.4,4,7,3.1,11.6-.8,3.4-1.9,6.8-2,10.3-.4,13.1,9.6,23.9,18.9,32.1,6.1,5.3,12.6,10.3,18.9,15.4,6.5,5.3,13,10.7,19.6,15.8,5.5,4.2,12.4,8.4,19.6,6.9,6.7-1.3,10.8-7.6,16.8-10.2,6.9-2.9,14.9-.9,21.8.9,7.3,1.9,14.5,3.5,22.1,2.9,8.1-.6,16.3-2.7,24.4-1.5,6.2,1,12.2,3.9,16.9,8,4.7,4.1,8.5,9.5,10.8,15.5,2.4,6.5,2.3,12.9,1,19.6-1.2,6.3-2.1,13.1,2.2,18.5,3.3,4.2,8.5,6.2,13.5,7.7,5.8,1.8,11.9,2.9,17.3,5.9,5.6,3.1,10.5,7.5,14.3,12.6,18.7,24.8,14.3,57.3,18.7,86.2,1.2,8.2,3.8,16,5.4,24.1,1.7,8.5,1,16.4-3.5,24v.3h-.2Z"/>
    </g>
  </g>
  <g id="SOCIAL">
    <path class="cls-4" d="M1528.2,1211.3c-2.1-.4-3.9-.7-6.6-1.2,2.6,5,3.7,5.1,6.6,1.2Z"/>
    <path class="cls-4" d="M1528.1,1211.3c-2.1-.4-3.9-.7-6.6-1.2,2.6,5,3.7,5.1,6.6,1.2Z"/>
    <path class="cls-4" d="M1527.8,1211.3c-2.1-.4-3.9-.7-6.6-1.2,2.6,5,3.7,5.1,6.6,1.2Z"/>
    <path class="cls-4" d="M1452.1,1248.3c-.5,2.1,0,4.6.8,6.8.8,2.3,1.7,4.3,3.8,8.1,1.1,2,2.1,3.8,2.5,3.7.3,0,0-2.1-.5-3.7,1.8,2.5,2.8,5.6,4.8,7.6,2,2.1,5.2,3,7.7,4.5,2.4,1.4,4.6,3.1,6.9,4.6.8.5,1.9,1.2,2.7,1.1,2.4-.3,2.4,1,2.1,2.6-.4,1.7-1.1,3.4-1.4,5.2-.2,1.1-.4,2.6,0,3.5,1.1,2.1,2.3,4.6,4.1,6,4.1,3.1,3,6.8,2.4,10.8-.6,3.8-.9,7.5-1,11.3,0,3,1,3.5,1.4,3.6.8.2,1.9-.7,2.4-1.7s0-1.6.2-2c.6-3.1,2.9-4.6,5.2-6.5,2.8-2.3,4.5-6.1,7.5-7.9,4.6-2.7,5.6-7.6,8.5-11.3,1.4-1.8,1.2-3.7-1.4-4.7-2.3-.9-5.2-1.6-6.6-3.4-3.9-4.9-9.1-7.4-14.9-8.9-1.4-.4-3.4.3-4.8,1.2-2.1,1.3-5.3.8-5.4-1.6,0-1.1-.2-1.2-1-2.7-1-1.8-2.2-1.8-2.6-3.2-.3-1.2.4-2.1,0-2.3-.4-.2-1,.6-3.1,1.6-1.6.9-2.2.9-2.5.6-.3-.2-.5-.5-.7-1-.5-2.1-.6-4.6-.2-6.7.2-.8,2.6-1.1,4-1.6.3,0,.6,0,.8-.2.7-.6,1.4-.9,1.9-.8.8,0,1.5.7,2.7,2,1.4,1.6,1.9,2.6,2.1,2.5.4-.2-.9-2.4,0-4.7.6-1.6.7-2.4,3.2-4.4.5-.4.6-1.5,1.1-2.1,1.9-2.3,3.9-4.6,5.8-6.8.2-.2.8-.4.9-.3.6.6,1.2.9,1.7.8,0,0,.6-.2,1.2-3.1.4-1.8.3-2.3.8-2.6.8-.4,1.9.3,2,.4,1,.7.9,1.6,1.8,2.2.8.5,2.1.6,2.5,0,.8-1-2-4.2-4.2-6.9,0,0-2.2-2.6-5.9-5.6-.8-.6-1.4-1-2.2-1.3-1.6-.6-4.1-.9-5.6.2-2.9,2.1-1.5,8.8-2,8.8s0-1.6-1.1-2.9c-1.2-1.4-2.3-1.1-4.7-2.5-1-.6-2.4-2.4-2.2-2.7.8-1.3,1.9-2.7,3.9-4.1,2.2-1.4,2.8-1.2,3.6-2.3.6-1,.7-1.8,1.7-3,.6-.8,1.1-1,1.4-1,1.1.2,2.3,1.7,2,2.8-.2.5-.6.5-.8.9-.4,1.2,1.7,3.4,4.1,3.9.6,0,1.6.3,2.4-.2,1.1-.7,1.4-2.2,1.3-3.3-.2-1.9-1.8-2.5-4.2-5.2-1.1-1.2-4.3-4.7-3.5-5.9.8-1.3,5.8.3,6.9.6,1.1.3,1.8.3,2.1.8,1.5,2.8,3.3,5.6,4.2,8.7,1,3.4,4.3,6.7,8.3,6.7-.8-4.4,1.9-6.7,5.2-8.7.8-.5,1.4-2.5,1-3.5-1.3-3.2-3-6.3-4.6-9.5-.2-.2-.5-.6-.7-.6-4-.3-7.9-2.7-11.9-.2-.7.4-2,.2-2.9,0-1.4-.5-2.7-.8-4-.9-2.4-.2-5.4,0-7.7,1.5-1.8,1.2-2.3,2.5-4.1,2.6-1,0-2.1-.2-2.1,0s.5.5.9.8c.6.4,1,.5,1,.6,0,.3-1.7,0-2.1.7-.2.3,0,.6.2,1.5,0,.8-.2,1.4-.3,1.6-.4,1.1-1,1.3-.9,1.9s.7.8.6,1.2c0,.5-.8,1.1-1.6,1.1-1.6,0-2.1-2.2-5.1-4.1-.9-.6-2.1-1.3-2.8-.9-1,.6,0,2.4-1,3.7-1.6,2.2-7,1.3-8.8,1-2.3-.4-2.8-.9-4.2-.6-2.4.5-3.9,2.5-4.4,3.1-1.4,1.8-2.2,3.6-2.5,4.5-1,3-1.1,6.2-.5,6.4.5,0,1.6-.7,2.4-2,.2-.2,2.2,0,2.6.7,3.1,4.7,4.7,9.6,3.3,15.4h0v-.3h0Z"/>
    <path class="cls-4" d="M1523.8,1235.7h7.5c-2.2-1.6-4.4-4.2-7.5,0Z"/>
    <path class="cls-4" d="M1449.9,1279.3c.6.6,1.6,1.4,3,2,1.6.7,3.3,1,3.4.7,0-.3-1.8-1.2-3.1-1.7-1.4-.6-2.5-.9-3.3-1h0Z"/>
    <path class="cls-4" d="M1492.8,1198.2c-36.7,0-66.6,29.9-66.6,66.6s29.9,66.6,66.6,66.6,66.6-29.9,66.6-66.6-29.9-66.6-66.6-66.6"/>
    <path class="cls-4" d="M1535.9,1248.1c.2,0,.5.7.9,2,.4,1.1.5,1.8.7,1.8s0-.2.3-1c.2-.7.3-1.1.4-1.1.3,0,.5.8,1.3,2,.5.7.9,1.3,1.6,1.7.6.4,1,.4,2,.6,2.1.5,3.2.7,3.4,1.3.5,1.2-2.6,4.5-4.7,3.9-.7-.2-1.6-.7-1.7-1.4-.3-1.8-.9-2.7-1.7-3.1-1.5-.8-3.8,1.7-4.9.9-.9-.6-.2-2.9,0-3.9.5-1.8,1.6-3.8,2.3-3.6h0Z"/>
    <path class="cls-4" d="M1431,1274.1c-.2-1.6-.4-3.2-.6-4.7,0-1.5-.2-3-.2-4.5,0-12.9,3.9-24.8,10.6-34.8v-.2c.8-1.2,1.7-2.4,2.6-3.5,1.6-2,3-3.5,3.9-4.6,7.4-7.8,14.8-11.7,17.5-12.9.5-.2,1.1-.5,1.6-.7,5.9-2.5,11.7-4.2,17.4-5.2h.7c.6,0,1.2-.2,1.8-.2,2.1-.2,4.1-.3,6.2-.3,7.3,0,14.4,1.3,21,3.6,6.5,2.4,12.7,6,18.9,10.8.7.6,1.3,1.4,2,2.2-.7-.3-.9-.3-1-.2-.2.2.2.7.8,2.2.5,1.2.5,1.3.5,1.4-.3.3-2.1-1.9-4.4-1.9s-2.8-.4-2.7,1c.3,3.4.8,6.7,1.3,10.1,0,.5.6.9,1.1,1.2,2.6,1.9,2.6,2.9,2.5,3.1-.3.4-4.4-3.1-5.9-2-1.3.9-1,5,1.1,6.8.7.6,1.4.8,2,1.8.6,1.2.4,2.4.3,2.9-.3,1.4-.8,1.5-1.4,2.9-.7,1.7-.6,3.3-.5,4.3.2,1.9.7,3.4,1.2,4.2-.9,2.1-1.9,5.5-3.7,8.4-2.6,4.4-2.4,8.7-1,13.2,1.6,4.9,2.9,5.6,8,4.9,1.8-.2,4,0,3.6,2.1-2.3,11.7-3.3,14.4-3.3,14.4-4.3,10-5.6,12.2-4.9,12.7.8.6,3.8-2.1,6.5-4.5,5.6-4.9,8.4-8.8,8.6-8.7.2.2-4,8.5-12.7,15.6-7.4,6-14.6,8.4-18.7,9.7-2.8.9-5.7,1.6-8.7,2.1-5,.7-10.2.8-15.8.4-6.9-.6-13.5-2.2-19.5-4.7-13.2-5.8-24.1-16-30.7-28.8-2.9-5.9-5-12.4-6.1-19.3h0v-.3h0Z"/>
    <path class="cls-4" d="M1451.9,1248.3c-.5,2.1,0,4.6.8,6.8.8,2.3,1.7,4.3,3.8,8.1,1.1,2,2.1,3.8,2.5,3.7.3,0,0-2.1-.5-3.7,1.8,2.5,2.8,5.6,4.8,7.6,2,2.1,5.2,3,7.7,4.5,2.4,1.4,4.6,3.1,6.9,4.6.8.5,1.9,1.2,2.7,1.1,2.4-.3,2.4,1,2.1,2.6-.4,1.7-1.1,3.4-1.4,5.2-.2,1.1-.4,2.6,0,3.5,1.1,2.1,2.3,4.6,4.1,6,4.1,3.1,3,6.8,2.4,10.8-.6,3.8-.9,7.5-1,11.3,0,3,1,3.5,1.4,3.6.8.2,1.9-.7,2.4-1.7s0-1.6.2-2c.6-3.1,2.9-4.6,5.2-6.5,2.8-2.3,4.5-6.1,7.5-7.9,4.6-2.7,5.6-7.6,8.5-11.3,1.4-1.8,1.2-3.7-1.4-4.7-2.3-.9-5.2-1.6-6.6-3.4-3.9-4.9-9.1-7.4-14.9-8.9-1.4-.4-3.4.3-4.8,1.2-2.1,1.3-5.3.8-5.4-1.6,0-1.1-.2-1.2-1-2.7-1-1.8-2.2-1.8-2.6-3.2-.3-1.2.4-2.1,0-2.3-.4-.2-1,.6-3.1,1.6-1.6.9-2.2.9-2.5.6-.3-.2-.5-.5-.7-1-.5-2.1-.6-4.6-.2-6.7.2-.8,2.6-1.1,4-1.6.3,0,.6,0,.8-.2.7-.6,1.4-.9,1.9-.8.8,0,1.5.7,2.7,2,1.4,1.6,1.9,2.6,2.1,2.5.4-.2-.9-2.4,0-4.7.6-1.6.7-2.4,3.2-4.4.5-.4.6-1.5,1.1-2.1,1.9-2.3,3.9-4.6,5.8-6.8.2-.2.8-.4.9-.3.6.6,1.2.9,1.7.8,0,0,.6-.2,1.2-3.1.4-1.8.3-2.3.8-2.6.8-.4,1.9.3,2,.4,1,.7.9,1.6,1.8,2.2.8.5,2.1.6,2.5,0,.8-1-2-4.2-4.2-6.9,0,0-2.2-2.6-5.9-5.6-.8-.6-1.4-1-2.2-1.3-1.6-.6-4.1-.9-5.6.2-2.9,2.1-1.5,8.8-2,8.8s0-1.6-1.1-2.9c-1.2-1.4-2.3-1.1-4.7-2.5-1-.6-2.4-2.4-2.2-2.7.8-1.3,1.9-2.7,3.9-4.1,2.2-1.4,2.8-1.2,3.6-2.3.6-1,.7-1.8,1.7-3,.6-.8,1.1-1,1.4-1,1.1.2,2.3,1.7,2,2.8-.2.5-.6.5-.8.9-.4,1.2,1.7,3.4,4.1,3.9.6,0,1.6.3,2.4-.2,1.1-.7,1.4-2.2,1.3-3.3-.2-1.9-1.8-2.5-4.2-5.2-1.1-1.2-4.3-4.7-3.5-5.9.8-1.3,5.8.3,6.9.6,1.1.3,1.8.3,2.1.8,1.5,2.8,3.3,5.6,4.2,8.7,1,3.4,4.3,6.7,8.3,6.7-.8-4.4,1.9-6.7,5.2-8.7.8-.5,1.4-2.5,1-3.5-1.3-3.2-3-6.3-4.6-9.5-.2-.2-.5-.6-.7-.6-4-.3-7.9-2.7-11.9-.2-.7.4-2,.2-2.9,0-1.4-.5-2.7-.8-4-.9-2.4-.2-5.4,0-7.7,1.5-1.8,1.2-2.3,2.5-4.1,2.6-1,0-2.1-.2-2.1,0s.5.5.9.8c.6.4,1,.5,1,.6,0,.3-1.7,0-2.1.7-.2.3,0,.6.2,1.5,0,.8-.2,1.4-.3,1.6-.4,1.1-1,1.3-.9,1.9s.7.8.6,1.2c0,.5-.8,1.1-1.6,1.1-1.6,0-2.1-2.2-5.1-4.1-.9-.6-2.1-1.3-2.8-.9-1,.6,0,2.4-1,3.7-1.6,2.2-7,1.3-8.8,1-2.3-.4-2.8-.9-4.2-.6-2.4.5-3.9,2.5-4.4,3.1-1.4,1.8-2.2,3.6-2.5,4.5-1,3-1.1,6.2-.5,6.4.5,0,1.6-.7,2.4-2,.2-.2,2.2,0,2.6.7,3.1,4.7,4.7,9.6,3.3,15.4h0v-.3h0Z"/>
    <path class="cls-4" d="M1523.7,1235.7h7.5c-2.2-1.6-4.4-4.2-7.5,0Z"/>
    <path class="cls-4" d="M1449.7,1279.3c.6.6,1.6,1.4,3,2,1.6.7,3.3,1,3.4.7,0-.3-1.8-1.2-3.1-1.7-1.4-.6-2.5-.9-3.3-1h0Z"/>
    <g>
      <path class="cls-4" d="M1492.7,1198.2c-36.7,0-66.6,29.9-66.6,66.6s29.9,66.6,66.6,66.6,66.6-29.9,66.6-66.6-29.9-66.6-66.6-66.6"/>
      <path class="cls-4" d="M1430.9,1274.1c-.2-1.6-.4-3.2-.6-4.7,0-1.5-.2-3-.2-4.5,0-12.9,3.9-24.8,10.6-34.8v-.2c.8-1.2,1.7-2.4,2.6-3.5,1.6-2,3-3.5,3.9-4.6,7.4-7.8,14.8-11.7,17.5-12.9.5-.2,1.1-.5,1.6-.7,5.9-2.5,11.7-4.2,17.4-5.2h.7c.6,0,1.2-.2,1.8-.2,2.1-.2,4.1-.3,6.2-.3,7.3,0,14.4,1.3,21,3.6,6.5,2.4,12.7,6,18.9,10.8.7.6,1.3,1.4,2,2.2-.7-.3-.9-.3-1-.2-.2.2.2.7.8,2.2.5,1.2.5,1.3.5,1.4-.3.3-2.1-1.9-4.4-1.9s-2.8-.4-2.7,1c.3,3.4.8,6.7,1.3,10.1,0,.5.6.9,1.1,1.2,2.6,1.9,2.6,2.9,2.5,3.1-.3.4-4.4-3.1-5.9-2-1.3.9-1,5,1.1,6.8.7.6,1.4.8,2,1.8.6,1.2.4,2.4.3,2.9-.3,1.4-.8,1.5-1.4,2.9-.7,1.7-.6,3.3-.5,4.3.2,1.9.7,3.4,1.2,4.2-.9,2.1-1.9,5.5-3.7,8.4-2.6,4.4-2.4,8.7-1,13.2,1.6,4.9,2.9,5.6,8,4.9,1.8-.2,4,0,3.6,2.1-2.3,11.7-3.3,14.4-3.3,14.4-4.3,10-5.6,12.2-4.9,12.7.8.6,3.8-2.1,6.5-4.5,5.6-4.9,8.4-8.8,8.6-8.7.2.2-4,8.5-12.7,15.6-7.4,6-14.6,8.4-18.7,9.7-2.8.9-5.7,1.6-8.7,2.1-5,.7-10.2.8-15.8.4-6.9-.6-13.5-2.2-19.5-4.7-13.2-5.8-24.1-16-30.7-28.8-2.9-5.9-5-12.4-6.1-19.3h0v-.3h0Z"/>
      <g>
        <g class="cls-21">
          <g class="cls-21">
            <g class="cls-21">
              <g class="cls-21">
                <g class="cls-21">
                  <text class="cls-7" transform="translate(1356.6 1372.1)"><tspan x="0" y="0">THE LANDS OF</tspan></text>
                </g>
              </g>
            </g>
          </g>
          <g class="cls-21">
            <g class="cls-21">
              <g class="cls-21">
                <g class="cls-21">
                  <text class="cls-20" transform="translate(1356.6 1372.1)"><tspan x="0" y="0">THE LANDS OF</tspan></text>
                </g>
              </g>
            </g>
          </g>
          <g class="cls-21">
            <g class="cls-21">
              <g class="cls-21">
                <g class="cls-21">
                  <text class="cls-7" transform="translate(1364.3 1417.7)"><tspan x="0" y="0">SOCIAL MMO</tspan></text>
                </g>
              </g>
            </g>
          </g>
          <g class="cls-21">
            <g class="cls-21">
              <g class="cls-21">
                <g class="cls-21">
                  <text class="cls-20" transform="translate(1364.3 1417.7)"><tspan x="0" y="0">SOCIAL MMO</tspan></text>
                </g>
              </g>
            </g>
          </g>
        </g>
        <g class="cls-21">
          <g class="cls-21">
            <g class="cls-21">
              <g class="cls-21">
                <g class="cls-21">
                  <text class="cls-8" transform="translate(1607.2 1417.7)"><tspan x="0" y="0">S</tspan></text>
                </g>
              </g>
            </g>
          </g>
          <g class="cls-21">
            <g class="cls-21">
              <g class="cls-21">
                <g class="cls-21">
                  <text class="cls-18" transform="translate(1607.2 1417.7)"><tspan x="0" y="0">S</tspan></text>
                </g>
              </g>
            </g>
          </g>
        </g>
      </g>
      <path class="cls-4" d="M1451.7,1248.3c-.5,2.1,0,4.6.8,6.8.8,2.3,1.7,4.3,3.8,8.1,1.1,2,2.1,3.8,2.5,3.7.3,0,0-2.1-.5-3.7,1.8,2.5,2.8,5.6,4.8,7.6,2,2.1,5.2,3,7.7,4.5,2.4,1.4,4.6,3.1,6.9,4.6.8.5,1.9,1.2,2.7,1.1,2.4-.3,2.4,1,2.1,2.6-.4,1.7-1.1,3.4-1.4,5.2-.2,1.1-.4,2.6,0,3.5,1.1,2.1,2.3,4.6,4.1,6,4.1,3.1,3,6.8,2.4,10.8-.6,3.8-.9,7.5-1,11.3,0,3,1,3.5,1.4,3.6.8.2,1.9-.7,2.4-1.7s0-1.6.2-2c.6-3.1,2.9-4.6,5.2-6.5,2.8-2.3,4.5-6.1,7.5-7.9,4.6-2.7,5.6-7.6,8.5-11.3,1.4-1.8,1.2-3.7-1.4-4.7-2.3-.9-5.2-1.6-6.6-3.4-3.9-4.9-9.1-7.4-14.9-8.9-1.4-.4-3.4.3-4.8,1.2-2.1,1.3-5.3.8-5.4-1.6,0-1.1-.2-1.2-1-2.7-1-1.8-2.2-1.8-2.6-3.2-.3-1.2.4-2.1,0-2.3-.4-.2-1,.6-3.1,1.6-1.6.9-2.2.9-2.5.6-.3-.2-.5-.5-.7-1-.5-2.1-.6-4.6-.2-6.7.2-.8,2.6-1.1,4-1.6.3,0,.6,0,.8-.2.7-.6,1.4-.9,1.9-.8.8,0,1.5.7,2.7,2,1.4,1.6,1.9,2.6,2.1,2.5.4-.2-.9-2.4,0-4.7.6-1.6.7-2.4,3.2-4.4.5-.4.6-1.5,1.1-2.1,1.9-2.3,3.9-4.6,5.8-6.8.2-.2.8-.4.9-.3.6.6,1.2.9,1.7.8,0,0,.6-.2,1.2-3.1.4-1.8.3-2.3.8-2.6.8-.4,1.9.3,2,.4,1,.7.9,1.6,1.8,2.2.8.5,2.1.6,2.5,0,.8-1-2-4.2-4.2-6.9,0,0-2.2-2.6-5.9-5.6-.8-.6-1.4-1-2.2-1.3-1.6-.6-4.1-.9-5.6.2-2.9,2.1-1.5,8.8-2,8.8s0-1.6-1.1-2.9c-1.2-1.4-2.3-1.1-4.7-2.5-1-.6-2.4-2.4-2.2-2.7.8-1.3,1.9-2.7,3.9-4.1,2.2-1.4,2.8-1.2,3.6-2.3.6-1,.7-1.8,1.7-3,.6-.8,1.1-1,1.4-1,1.1.2,2.3,1.7,2,2.8-.2.5-.6.5-.8.9-.4,1.2,1.7,3.4,4.1,3.9.6,0,1.6.3,2.4-.2,1.1-.7,1.4-2.2,1.3-3.3-.2-1.9-1.8-2.5-4.2-5.2-1.1-1.2-4.3-4.7-3.5-5.9.8-1.3,5.8.3,6.9.6,1.1.3,1.8.3,2.1.8,1.5,2.8,3.3,5.6,4.2,8.7,1,3.4,4.3,6.7,8.3,6.7-.8-4.4,1.9-6.7,5.2-8.7.8-.5,1.4-2.5,1-3.5-1.3-3.2-3-6.3-4.6-9.5-.2-.2-.5-.6-.7-.6-4-.3-7.9-2.7-11.9-.2-.7.4-2,.2-2.9,0-1.4-.5-2.7-.8-4-.9-2.4-.2-5.4,0-7.7,1.5-1.8,1.2-2.3,2.5-4.1,2.6-1,0-2.1-.2-2.1,0s.5.5.9.8c.6.4,1,.5,1,.6,0,.3-1.7,0-2.1.7-.2.3,0,.6.2,1.5,0,.8-.2,1.4-.3,1.6-.4,1.1-1,1.3-.9,1.9s.7.8.6,1.2c0,.5-.8,1.1-1.6,1.1-1.6,0-2.1-2.2-5.1-4.1-.9-.6-2.1-1.3-2.8-.9-1,.6,0,2.4-1,3.7-1.6,2.2-7,1.3-8.8,1-2.3-.4-2.8-.9-4.2-.6-2.4.5-3.9,2.5-4.4,3.1-1.4,1.8-2.2,3.6-2.5,4.5-1,3-1.1,6.2-.5,6.4.5,0,1.6-.7,2.4-2,.2-.2,2.2,0,2.6.7,3.1,4.7,4.7,9.6,3.3,15.4h0v-.3h0Z"/>
      <path class="cls-4" d="M1523.4,1235.7h7.5c-2.2-1.6-4.4-4.2-7.5,0Z"/>
      <path class="cls-4" d="M1449.5,1279.3c.6.6,1.6,1.4,3,2,1.6.7,3.3,1,3.4.7,0-.3-1.8-1.2-3.1-1.7-1.4-.6-2.5-.9-3.3-1h0Z"/>
      <path class="cls-4" d="M1492.4,1198.2c-36.7,0-66.6,29.9-66.6,66.6s29.9,66.6,66.6,66.6,66.6-29.9,66.6-66.6-29.9-66.6-66.6-66.6"/>
      <path class="cls-4" d="M1535.5,1248.1c.2,0,.5.7.9,2,.4,1.1.5,1.8.7,1.8s0-.2.3-1c.2-.7.3-1.1.4-1.1.3,0,.5.8,1.3,2,.5.7.9,1.3,1.6,1.7.6.4,1,.4,2,.6,2.1.5,3.2.7,3.4,1.3.5,1.2-2.6,4.5-4.7,3.9-.7-.2-1.6-.7-1.7-1.4-.3-1.8-.9-2.7-1.7-3.1-1.5-.8-3.8,1.7-4.9.9-.9-.6-.2-2.9,0-3.9.5-1.8,1.6-3.8,2.3-3.6h0Z"/>
      <path class="cls-4" d="M1430.6,1274.1c-.2-1.6-.4-3.2-.6-4.7,0-1.5-.2-3-.2-4.5,0-12.9,3.9-24.8,10.6-34.8v-.2c.8-1.2,1.7-2.4,2.6-3.5,1.6-2,3-3.5,3.9-4.6,7.4-7.8,14.8-11.7,17.5-12.9.5-.2,1.1-.5,1.6-.7,5.9-2.5,11.7-4.2,17.4-5.2h.7c.6,0,1.2-.2,1.8-.2,2.1-.2,4.1-.3,6.2-.3,7.3,0,14.4,1.3,21,3.6,6.5,2.4,12.7,6,18.9,10.8.7.6,1.3,1.4,2,2.2-.7-.3-.9-.3-1-.2-.2.2.2.7.8,2.2.5,1.2.5,1.3.5,1.4-.3.3-2.1-1.9-4.4-1.9s-2.8-.4-2.7,1c.3,3.4.8,6.7,1.3,10.1,0,.5.6.9,1.1,1.2,2.6,1.9,2.6,2.9,2.5,3.1-.3.4-4.4-3.1-5.9-2-1.3.9-1,5,1.1,6.8.7.6,1.4.8,2,1.8.6,1.2.4,2.4.3,2.9-.3,1.4-.8,1.5-1.4,2.9-.7,1.7-.6,3.3-.5,4.3.2,1.9.7,3.4,1.2,4.2-.9,2.1-1.9,5.5-3.7,8.4-2.6,4.4-2.4,8.7-1,13.2,1.6,4.9,2.9,5.6,8,4.9,1.8-.2,4,0,3.6,2.1-2.3,11.7-3.3,14.4-3.3,14.4-4.3,10-5.6,12.2-4.9,12.7.8.6,3.8-2.1,6.5-4.5,5.6-4.9,8.4-8.8,8.6-8.7.2.2-4,8.5-12.7,15.6-7.4,6-14.6,8.4-18.7,9.7-2.8.9-5.7,1.6-8.7,2.1-5,.7-10.2.8-15.8.4-6.9-.6-13.5-2.2-19.5-4.7-13.2-5.8-24.1-16-30.7-28.8-2.9-5.9-5-12.4-6.1-19.3h0v-.3h0Z"/>
    </g>
    <g>
      <path class="cls-1" d="M1966.4,1427.2c-.8-4.2-4.6-6.1-8.4-6.9-5.1-1.2-10.5-.7-15.1-3.6-3.6-2.3-6.1-5.8-7.6-9.6-.3-.3-.6-1.4-1-3.3h0c-.5-2.4-1.2-202.9-1.9-208.1h0c1.6-7.9,1.2-15.7-3.5-23.3-3.4-5.4-8-10-12.1-15-4.7-5.8-7.5-11.7-7.7-19.2-.2-6.3-.8-14.8-8.1-17-6.3-1.9-9.1,4.2-11.8,8.5-4.6,7.4-14.1,6.1-20.6,1.9s-11.3-10.5-18.1-14.3c-7-4-15-4.9-22.8-6.4-8.1-1.6-14.6-4.8-21.4-9.4-6.5-4.4-13-7.8-21-7.8s-17.4,2-26,2.8c-9.5.8-19.1,1-28.5-.7-8.6-1.6-16.6-5-24.3-9-7.7-4-14.7-8.1-22.6-11-3-1.1-6.1-2.1-9.2-.8-3.1,1.3-5.1,4.4-7.4,6.8-10.4,10.9-24,18.6-38.6,22.4-7.5,1.9-15.2,2.8-22.9,2.7-8-.2-15.3-2.4-23.1-3.8-7.1-1.2-12.6,1.4-18.1,5.7-5.4,4.2-10.5,8.8-17.7,8.8s-13.4-2.6-19.6-.2c-7.2,2.9-6.2,10.9-10.9,15.8-4.7,4.9-13.3,5.2-19.8,6.5-8,1.6-15.7,4.4-22.8,8.3-3.4,1.9-6.7,4-9.8,6.4-3.6,2.7-7.1,6-11.6,6.9-8.6,1.9-16.4-4.8-21.9-10.6-8.8-9.2-17-21.4-30.6-23.3-7.8-1.1-15.6,1.2-23.4.8-4.4-.2-8.2-1.6-11.5-4.5-2.6-2.2-4.8-4.8-7.8-6.5-11.6-6.8-21.2,6.2-31.6,9.3-15.2,4.6-21.4-15.1-27-25.1-6.8-12.1-17.5-23.7-31-28-6.2-2-12.8-2.1-19-.2-1.8.6-1.1,3.4.8,2.9h0l-7.2,410.6c-.7-.2-1.6,0-1.9,1-3.6,13.6,5.6,25.4,15.9,33.2,11.7,8.7,27,14.7,41.2,17.3,12.9,2.4,26.6,1.2,37.3-7,2.5-1.9,4.5-4.9,7.3-6.2,3-1.3,4.5,1.3,7.6.7,4.4-.9,6.6-5.4,8.4-9,1.4-2.6,2.7-5.5,4.8-7.6,3.4-3.5,8.2-2.9,12-.3,7.8,5.4,8.5,16.3,12.9,24,.4.7,1.3.9,2.1.5,12.3-6.8,28.8-13.7,42.2-6,2.8,1.6,5.2,3.7,7.9,5.2,3,1.6,6.2,2.5,9.5,3,7.7,1.1,15.7.9,23.4,1.2,8.1.3,16.2.6,24.2.9,6.2.2,12.7,1.1,17.6-3.6,4.9-4.8,7.1-11.1,14.8-11.8,6.8-.7,13.2,2.4,18.8,5.9,5.6,3.4,11,7.5,17.4,9.4,4.8,1.5,10,1.5,15,.5,9.9-2.1,19-8.8,24-17.6,2.5-4.4,4-9.4,4-14.4s-1.7-13.8,4.9-18.2c12.5-8.4,25.5,3.1,33.7,11.9,3.9,4.2,8.4,9,14.7,8.4,2.9-.3,5.5-1.6,8.2-2.7,3.3-1.4,6.7-2.4,10.2-3,6.6-1,13.4-.3,19.7,1.8,7,2.4,11.7,6.8,17.4,11.3,10.6,8.4,23.9,2.7,33.9-3.7,6-3.8,11.9-8.2,18.9-9.9,7.6-1.9,15.2.4,22.8.9,11.8.8,19.7-5.2,26.8-14,6.6-8.3,13.3-18.9,25.1-19.2,7.7-.2,15.1,3.5,21.9,6.6,5.2,2.3,10.4,4.4,16,5.6,10.3,2.1,21.1,1.7,31.3-1,20.3-5.3,39-19.2,48.1-38.4,2-4.3,5.1-10.4,4.2-15.2h0ZM1242.6,1494.8c.5,3.4,1.1,5.6,1.5,6.9-.9-2.2-1.4-4.5-1.5-6.9ZM1959.7,1441c-2.4,5.1-5.5,9.8-9.2,14.1-7.1,8.2-16,14.7-25.9,19.1-10.3,4.6-21.7,6.7-33,5.9-5.5-.4-10.9-1.5-16-3.4-6.7-2.4-12.9-5.9-19.7-8.2-11.1-3.6-21.1-1.2-29.1,7.3-6.9,7.2-11.8,17.3-21,22-6.8,3.5-14.4,2-21.6,1.1-6.8-.9-13.2-.8-19.6,2-12.3,5.2-23.9,18.8-38.4,15.8-6.8-1.4-11.2-7.8-17-11.3-5.1-3.1-10.9-5-16.8-5.8-5.8-.8-11.9-.4-17.6,1.2-2.8.8-5.4,2-8.2,3.1-4.8,2-8.7,1.7-12.7-1.7-9-7.7-15.9-19-28.9-20-10.5-.8-19.8,5.9-19.6,16.8,0,6.4.6,12-2.2,18-2.4,5.1-6.3,9.5-10.9,12.8-4.7,3.3-10.3,5.6-16.1,6-6.7.5-12.5-1.6-18.2-4.9-9.8-5.7-20.7-14.7-32.8-10.5-5.7,2-8.1,6.9-11.9,11.1-5.4,5.9-16.1,3.4-23.3,3.1-8.1-.3-16.2-.6-24.2-.9-7.7-.3-16.7.5-23.8-3.2-5.8-3-10.2-7.4-16.9-8.7-6.2-1.2-12.6-.4-18.7,1.3-5.9,1.7-11.4,4.2-16.8,7-3.2-6.3-4.3-13.6-8.5-19.3-3.2-4.2-8.5-7.8-13.9-7.1-4.9.6-7.9,4.7-10.2,8.7-2.1,3.7-4,10.2-8.9,10.4-4.3-4.9-11.1,2.7-14.3,5.4-7.2,5.8-16.3,8.3-25.4,8.2-9.5-.2-18.9-2.8-27.7-6.2-9.1-3.5-18.2-7.7-25.7-14.1-4.5-3.9-8.6-8.6-10.8-14,10.3,24.3,5.4-410.5,5.2-426.1,15.6-4.6,30.1,5,39.6,16.6,4.7,5.8,7.9,12.2,11.2,18.8,2.7,5.4,5.8,11,10.6,14.9,4.3,3.4,9.7,4.7,15.1,3.2,5.8-1.6,10.6-5.6,15.7-8.5,2.5-1.4,5.2-2.7,8.2-2.8,4,0,7.2,2.3,10,4.9,5.2,4.7,9.9,7.8,17.1,8.1,8,.3,16.1-2.3,24-.5,7,1.6,12.6,6.3,17.4,11.4,8.6,9,18.4,23.9,32.7,22.5,7.7-.8,13.4-7.3,19.6-11.3,7.3-4.7,15.3-8.1,23.8-10.1,6.4-1.5,13.3-1.7,19.4-4.7,2.3-1.1,4.4-2.8,6-4.9,2.2-3.1,2.6-6.9,4.5-10.1,4.2-7,14.5-3.4,21-3.1,6.7.3,11.9-2.3,17.1-6.3,5.9-4.6,11.4-9.5,19.4-8.2,7.4,1.2,14.3,3.4,21.9,3.8,14.2.7,28.6-2.3,41.4-8.4,6.3-3,12.2-6.7,17.5-11.2,2.6-2.2,5.1-4.5,7.4-7,1.1-1.2,2.2-2.5,3.3-3.7,2.6-2.5,5.3-2.3,8.6-1.2,16.2,5.6,29.7,16.8,46.8,20.2,17.4,3.5,34.3,0,51.7-1.6,4.2-.4,8.6-.4,12.7.9,3.9,1.2,7.4,3.5,10.8,5.7,6.7,4.4,12.9,8,20.8,9.8,7.8,1.7,16.1,2.3,23.2,6,6.9,3.6,11.8,9.9,18.1,14.2,4.9,3.4,11.3,5.4,17.2,4,2.9-.7,5.4-2.3,7.2-4.6,1.9-2.5,2.9-6.1,5.4-8.1,4.5-3.6,8.9,2.2,9.8,6.3.9,4.3.2,8.8,1,13.1,1.1,5.7,4.4,10.7,8.1,15.2,4,5,8.7,9.6,12,15.2,3.7,6.1,2.8,12.7,3.1,19.7.2,3.1.3,6.1.5,9.2.8-2.3,1.5-4.7,2-7-2.5,15.8-1,211,3.2,217,2.4,3.5,5.8,6.3,9.8,7.7,4.7,1.6,9.9,1,14.5,2.8,7.1,2.8,2.3,12.1,0,17h0Z"/>
      <path class="cls-1" d="M1937.5,1389.3"/>
    </g>
    <path class="cls-4" d="M1535.8,1248.1c.2,0,.5.7.9,2,.4,1.1.5,1.8.7,1.8s0-.2.3-1c.2-.7.3-1.1.4-1.1.3,0,.5.8,1.3,2,.5.7.9,1.3,1.6,1.7.6.4,1,.4,2,.6,2.1.5,3.2.7,3.4,1.3.5,1.2-2.6,4.5-4.7,3.9-.7-.2-1.6-.7-1.7-1.4-.3-1.8-.9-2.7-1.7-3.1-1.5-.8-3.8,1.7-4.9.9-.9-.6-.2-2.9,0-3.9.5-1.8,1.6-3.8,2.3-3.6h0Z"/>
  </g>
</svg>